<svg width="320" height="160" viewBox="0 0 320 160" fill="none" xmlns="http://www.w3.org/2000/svg">
<path d="M145.912 82.5559H156.63L150.968 73.536L140.593 89.8552H135.853L148.493 70.2774C149.046 69.4953 149.967 69 150.968 69C151.942 69 152.864 69.4692 153.391 70.2252L166.083 89.8291H161.343L159.105 86.1795H148.256L145.912 82.5559ZM195.048 86.2055V69.2086H191.046V87.8739C191.046 88.3953 191.256 88.8906 191.625 89.2556C192.02 89.6466 192.52 89.8552 193.1 89.8552H211.401L213.771 86.2055H195.048ZM128.665 83.1555C132.562 83.1555 135.722 80.0533 135.722 76.195C135.722 72.3368 132.562 69.2086 128.665 69.2086H111.101V89.8552H115.103V72.8582H128.375C130.245 72.8582 131.745 74.3702 131.745 76.195C131.745 78.0459 130.245 79.5319 128.375 79.5319L117.052 79.5058L129.033 89.8291H134.853L126.795 83.1294H128.665V83.1555ZM86.4276 89.8552C80.6608 89.8552 76 85.241 76 79.5319C76 73.8228 80.6608 69.2086 86.4276 69.2086H98.5404C104.307 69.2086 108.968 73.8488 108.968 79.5319C108.968 85.241 104.307 89.8552 98.5404 89.8552H86.4276ZM98.2771 86.2055C102.016 86.2055 105.018 83.2337 105.018 79.5319C105.018 75.8301 101.99 72.8321 98.2771 72.8321H86.6909C82.9517 72.8321 79.9498 75.8301 79.9498 79.5319C79.9498 83.2337 82.9781 86.2055 86.6909 86.2055H98.2771ZM174.456 89.8552C168.69 89.8552 164.029 85.241 164.029 79.5319C164.029 73.8228 168.716 69.2086 174.456 69.2086H188.86L186.517 72.8582H174.72C170.981 72.8582 167.952 75.8561 167.952 79.5579C167.952 83.2597 170.981 86.2316 174.72 86.2316H189.176L186.806 89.8813H174.456V89.8552ZM223.514 86.2055C220.433 86.2055 217.826 84.1722 217.009 81.3306H234.152L236.522 77.681H217.009C217.799 74.8916 220.433 72.8061 223.514 72.8061H235.284L237.654 69.1564H223.224C217.457 69.1564 212.796 73.7967 212.796 79.4797C212.796 85.1888 217.483 89.8031 223.224 89.8031H235.6L237.97 86.1534H223.514" fill="#F80000"/>
<path d="M239.813 71.3983C239.813 70.3816 240.63 69.5734 241.657 69.5734C242.684 69.5734 243.5 70.3816 243.5 71.3983C243.5 72.4149 242.684 73.2231 241.657 73.2231C240.63 73.2231 239.813 72.4149 239.813 71.3983ZM241.657 73.7184C242.947 73.7184 244 72.6756 244 71.3983C244 70.1209 242.947 69.0781 241.657 69.0781C240.366 69.0781 239.313 70.1209 239.313 71.3983C239.313 72.6756 240.366 73.7184 241.657 73.7184ZM241.446 70.0166C241.815 70.0166 241.973 70.0427 242.131 70.0948C242.605 70.2512 242.657 70.6423 242.657 70.8247C242.657 70.8508 242.657 70.929 242.631 71.0333C242.605 71.1376 242.552 71.32 242.315 71.4765C242.289 71.5025 242.262 71.5025 242.21 71.5547L242.815 72.6235H242.236L241.709 71.6329H241.341V72.6235H240.814V70.0166H241.446ZM241.604 71.2158C241.762 71.1897 241.946 71.1897 242.025 71.0594C242.078 70.9812 242.104 70.929 242.104 70.8247C242.104 70.6944 242.025 70.5901 241.894 70.5119C241.788 70.4598 241.657 70.4598 241.42 70.4598H241.262V71.2158H241.604Z" fill="#F80000"/>
</svg>
