<svg width="320" height="160" viewBox="0 0 320 160" fill="none" xmlns="http://www.w3.org/2000/svg">
<path d="M223.505 92.0702C223.244 91.6076 223.104 91.1248 223.104 90.5818C223.104 90.0387 223.244 89.556 223.505 89.0933C223.766 88.6307 224.127 88.2888 224.568 88.0273C225.029 87.7658 225.511 87.625 226.052 87.625C226.573 87.625 227.075 87.7658 227.536 88.0273C227.997 88.2888 228.338 88.6508 228.599 89.0933C228.86 89.556 229 90.0387 229 90.5818C229 91.1248 228.86 91.6076 228.599 92.0702C228.338 92.5328 227.977 92.8748 227.536 93.1363C227.075 93.3977 226.593 93.5184 226.052 93.5184C225.531 93.5184 225.029 93.3977 224.568 93.1363C224.127 92.8748 223.786 92.5127 223.505 92.0702ZM223.766 92.1104C224.027 92.4926 224.347 92.7943 224.748 93.0156C225.15 93.2368 225.591 93.3374 226.072 93.3374C226.573 93.3374 227.035 93.2167 227.456 92.9753C227.877 92.734 228.218 92.392 228.459 91.9696C228.699 91.5472 228.82 91.0846 228.82 90.5818C228.82 90.0789 228.699 89.6163 228.459 89.1939C228.218 88.7715 227.877 88.4296 227.456 88.1882C227.035 87.9468 226.573 87.8261 226.072 87.8261C225.571 87.8261 225.109 87.9468 224.688 88.1882C224.267 88.4296 223.926 88.7715 223.686 89.1939C223.445 89.6163 223.325 90.0789 223.325 90.5818C223.305 91.145 223.465 91.6478 223.766 92.1104ZM225.089 91.9495V90.7226H226.052H226.072H226.092L227.035 91.9495H227.315L226.333 90.6823C226.593 90.6421 226.794 90.5415 226.954 90.3806C227.115 90.2197 227.195 90.0186 227.195 89.7571C227.195 89.5962 227.155 89.4755 227.075 89.3548C226.995 89.2341 226.894 89.1537 226.774 89.0933C226.654 89.033 226.533 88.9928 226.433 88.9726C226.313 88.9525 226.212 88.9324 226.112 88.9324H225.089H225.049H224.889V91.9294H225.089V91.9495ZM225.089 89.7973V89.1537H226.152C226.373 89.1537 226.573 89.214 226.714 89.3146C226.874 89.4152 226.954 89.5761 226.954 89.7571C226.954 89.9985 226.874 90.1795 226.734 90.3002C226.573 90.4209 226.333 90.4812 225.992 90.4812H225.089V89.7973Z" fill="black"/>
<path d="M111.458 72.3573L111.398 72.2969C107.367 68.254 100.85 68.254 96.8186 72.2969C92.7877 76.2996 92.7877 82.8769 96.8186 86.9199C100.789 90.9628 107.407 90.9628 111.398 86.9199L114.025 89.5548V89.6152C108.47 95.1264 99.7265 95.1867 94.1714 89.6152C88.6163 83.9832 88.6163 75.2135 94.1113 69.662C99.7064 64.0301 108.751 64.3117 114.065 69.662L111.458 72.3573Z" fill="#414042"/>
<path d="M145.872 79.72C145.872 87.5242 139.655 93.7797 131.753 93.7797C123.912 93.7797 117.735 87.5443 117.735 79.72V79.6596V56.0859H121.486V69.9244C124.012 67.2291 127.602 65.5395 131.733 65.5395C139.314 65.5395 145.872 71.7347 145.872 79.72ZM142.122 79.6596C142.122 73.9271 137.529 69.321 131.814 69.321C126.158 69.321 121.506 73.9271 121.506 79.6596C121.506 85.3318 126.158 89.9982 131.814 89.9982C137.529 89.9982 142.122 85.3318 142.122 79.6596Z" fill="#414042"/>
<path d="M221.878 69.9244V56.0859H225.628V79.72C225.628 87.5242 219.471 93.7797 211.61 93.7797C203.709 93.7797 197.492 87.5443 197.492 79.72C197.492 71.7347 204.05 65.5597 211.61 65.5597C215.701 65.5395 219.351 67.2291 221.878 69.9244ZM221.878 79.6596C221.878 73.9271 217.225 69.321 211.57 69.321C205.854 69.321 201.262 73.9271 201.262 79.6596C201.262 85.3318 205.854 89.9982 211.57 89.9982C217.225 89.9982 221.878 85.3318 221.878 79.6596Z" fill="#414042"/>
<path d="M177.698 79.6994C177.698 87.5237 171.481 93.7591 163.58 93.7591C155.739 93.7591 149.562 87.5237 149.562 79.6994C149.562 71.7744 155.618 65.5391 163.58 65.5391C171.14 65.5391 177.698 71.7342 177.698 79.6994ZM173.948 79.6591C173.948 73.9266 169.355 69.3205 163.64 69.3205C157.985 69.3205 153.332 73.9266 153.332 79.6591C153.332 85.3313 157.985 89.9978 163.64 89.9978C169.355 89.9978 173.948 85.3313 173.948 79.6591Z" fill="#166DFF"/>
<path d="M182.05 77.549C182.01 67.5523 191.977 65.8828 196.068 65.8828V69.6643C190.473 69.6643 186.041 71.6354 185.82 77.0863V93.781H182.07L182.05 77.549Z" fill="#414042"/>
</svg>
