<svg width="320" height="160" viewBox="0 0 320 160" fill="none" xmlns="http://www.w3.org/2000/svg">
<path d="M236.448 58L227.653 76.976L224.346 69.7859H220.769L226.208 81.547H229.099L240 58H236.448Z" fill="#D52B1E"/>
<path d="M198.721 93.2332H205.801V80.1625C205.801 77.1728 207.516 75.0726 210.064 75.0726C212.513 75.0726 213.787 76.8022 213.787 79.2977V93.2332H220.867V77.9387C220.867 72.75 217.78 69.0932 212.783 69.0932C209.598 69.0932 207.369 70.4768 205.703 72.9971H205.556V69.785H198.697L198.721 93.2332ZM184.806 69.1426C177.408 69.1426 172.459 74.5043 172.459 81.5709C172.459 88.588 177.408 93.9991 184.806 93.9991C192.205 93.9991 197.153 88.588 197.153 81.5709C197.178 74.5043 192.205 69.1426 184.806 69.1426ZM184.757 88.7116C181.401 88.7116 179.613 85.8701 179.613 81.5709C179.613 77.2222 181.377 74.4302 184.757 74.4302C188.114 74.4302 189.975 77.2222 189.975 81.5709C190 85.8701 188.138 88.7116 184.757 88.7116ZM152.273 93.2332H172.165V87.5997H160.896V87.4514L171.675 75.2702V69.7603H152.273V75.4185H163.175V75.5667L152.273 87.8468V93.2332ZM143.184 93.2332H150.313V69.785H143.184V93.2332ZM126.648 93.2332H133.753V82.4604C133.753 77.5681 136.668 75.3938 141.102 76.0115H141.249V69.8344C140.882 69.6862 140.465 69.6615 139.804 69.6615C137.035 69.6615 135.174 70.9463 133.581 73.6889H133.434V69.785H126.648V93.2332ZM113.615 88.7363C110.48 88.7363 108.569 86.6855 108.201 83.5228H124.958C125.007 78.4823 123.684 74.4549 120.916 71.9346C118.956 70.1062 116.384 69.0932 113.101 69.0932C106.095 69.0932 101.244 74.4549 101.244 81.472C101.244 88.5386 105.874 93.925 113.566 93.925C116.482 93.925 118.785 93.1343 120.695 91.8248C122.729 90.4164 124.199 88.3409 124.591 86.2901H117.78C117.119 87.8221 115.698 88.7363 113.615 88.7363ZM113.248 74.2078C115.747 74.2078 117.462 76.0856 117.756 78.8282H108.25C108.814 76.0609 110.308 74.2078 113.248 74.2078ZM87.0843 93.2332H94.5316L102.616 69.785H95.4871L90.955 84.8571H90.857L86.3249 69.785H79L87.0843 93.2332ZM143.184 61.4336H150.313V67.8083H143.184V61.4336Z" fill="black"/>
</svg>
