<svg width="320" height="160" viewBox="0 0 320 160" fill="none" xmlns="http://www.w3.org/2000/svg">
<path d="M110.222 80.1629C110.222 72.7639 115.972 67.3242 123.155 67.3242C130.337 67.3242 136.087 72.7639 136.087 80.1629C136.087 87.5618 130.337 93.0015 123.155 93.0015C115.949 93.0015 110.222 87.5618 110.222 80.1629ZM131.976 80.1629C131.976 74.8615 128.327 70.8969 123.131 70.8969C117.935 70.8969 114.287 74.8615 114.287 80.1629C114.287 85.4643 117.935 89.4288 123.131 89.4288C128.327 89.4288 131.976 85.4643 131.976 80.1629Z" fill="#DFE0DE"/>
<path d="M138.35 80.1629C138.35 72.7639 144.1 67.3242 151.282 67.3242C158.464 67.3242 164.214 72.7639 164.214 80.1629C164.214 87.5618 158.464 93.0015 151.282 93.0015C144.1 93.0015 138.35 87.5618 138.35 80.1629ZM160.127 80.1629C160.127 74.8615 156.478 70.8969 151.282 70.8969C146.086 70.8969 142.437 74.8615 142.437 80.1629C142.437 85.4643 146.086 89.4288 151.282 89.4288C156.478 89.4288 160.127 85.4643 160.127 80.1629Z" fill="#DFE0DE"/>
<path d="M162.067 67.668H166.408L173.521 80.7141L180.519 67.668H184.652L175.438 84.6786V92.6538H171.489V84.7247L162.067 67.668Z" fill="#DFE0DE"/>
<path d="M182.043 92.6531H178.071L189.04 67.1602H189.271L200.286 92.6761H196.13L194.698 89.1726H183.497L182.043 92.6531ZM189.109 75.7807L184.952 85.669H193.197L189.109 75.7807Z" fill="#DFE0DE"/>
<path d="M202.296 67.6672H206.244V89.1726H217.445L215.944 92.6761H202.319V67.6672H202.296ZM222.779 92.6531H218.807L229.777 67.1602H230.008L241.023 92.6761H236.866L235.435 89.1726H224.234L222.779 92.6531ZM229.846 75.7807L225.689 85.669H233.933L229.846 75.7807Z" fill="#DFE0DE"/>
<path d="M239.73 71.0567C239.268 71.5177 238.691 71.7482 238.044 71.7482C237.374 71.7482 236.82 71.5177 236.358 71.0567C235.896 70.5957 235.666 70.0195 235.666 69.3741C235.666 68.7287 235.896 68.1525 236.358 67.6915C236.82 67.2305 237.374 67 238.044 67C238.714 67 239.268 67.2305 239.73 67.6915C240.192 68.1525 240.423 68.7057 240.423 69.3741C240.446 70.0195 240.192 70.5957 239.73 71.0567ZM236.612 67.922C236.22 68.3138 236.012 68.7979 236.012 69.3741C236.012 69.9504 236.22 70.4344 236.612 70.8262C237.005 71.2181 237.49 71.4255 238.067 71.4255C238.645 71.4255 239.13 71.2181 239.522 70.8262C239.915 70.4344 240.123 69.9273 240.123 69.3741C240.123 68.7979 239.915 68.3369 239.522 67.922C239.13 67.5301 238.645 67.3227 238.067 67.3227C237.49 67.3227 237.005 67.5301 236.612 67.922ZM237.998 68.0603C238.321 68.0603 238.552 68.0833 238.714 68.1525C238.991 68.2677 239.13 68.4752 239.13 68.8209C239.13 69.0514 239.037 69.2358 238.876 69.328C238.783 69.3972 238.668 69.4202 238.506 69.4433C238.714 69.4663 238.852 69.5585 238.945 69.6968C239.037 69.8351 239.083 69.9734 239.083 70.0887V70.273C239.083 70.3422 239.083 70.3883 239.083 70.4574C239.083 70.5266 239.106 70.5727 239.106 70.5957L239.13 70.6188H238.691V70.5957V70.5727V70.4805V70.273C238.691 69.9734 238.598 69.766 238.437 69.6738C238.344 69.6277 238.16 69.5816 237.929 69.5816H237.559V70.6188H237.097V68.0603H237.998ZM238.506 68.4752C238.391 68.406 238.206 68.383 237.952 68.383H237.559V69.328H237.975C238.16 69.328 238.321 69.305 238.414 69.2589C238.598 69.1897 238.691 69.0514 238.691 68.844C238.668 68.6596 238.621 68.5443 238.506 68.4752Z" fill="#DFE0DE"/>
<path d="M92.0478 75.6197C94.318 75.6197 96.1584 73.7828 96.1584 71.5169C96.1584 69.251 94.318 67.4141 92.0478 67.4141C89.7775 67.4141 87.9371 69.251 87.9371 71.5169C87.9371 73.7828 89.7775 75.6197 92.0478 75.6197Z" fill="#EAB447"/>
<path d="M83.1106 82.0299C85.3809 82.0299 87.2212 80.193 87.2212 77.9271C87.2212 75.6611 85.3809 73.8242 83.1106 73.8242C80.8404 73.8242 79 75.6611 79 77.9271C79 80.193 80.8404 82.0299 83.1106 82.0299Z" fill="#881433"/>
<path d="M86.4822 92.5846C88.7524 92.5846 90.5928 90.7477 90.5928 88.4817C90.5928 86.2158 88.7524 84.3789 86.4822 84.3789C84.212 84.3789 82.3716 86.2158 82.3716 88.4817C82.3716 90.7477 84.212 92.5846 86.4822 92.5846Z" fill="#8661A5"/>
<path d="M101.724 88.4817C101.724 90.7406 99.8764 92.5846 97.6132 92.5846C95.3501 92.5846 93.5026 90.7406 93.5026 88.4817C93.5026 86.2229 95.3501 84.3789 97.6132 84.3789C99.8764 84.3789 101.724 86.2229 101.724 88.4817Z" fill="#82A240"/>
<path d="M100.985 82.0299C103.255 82.0299 105.096 80.193 105.096 77.9271C105.096 75.6611 103.255 73.8242 100.985 73.8242C98.7147 73.8242 96.8743 75.6611 96.8743 77.9271C96.8743 80.193 98.7147 82.0299 100.985 82.0299Z" fill="#97CFE2"/>
</svg>
