<svg width="320" height="160" viewBox="0 0 320 160" fill="none" xmlns="http://www.w3.org/2000/svg">
<path d="M220.895 67.4805L216.736 74.4163H223.079V91.5425H230.851V74.4163H238V67.4805H220.895ZM197.681 67.4805V91.5425H205.583V84.1265H213.642V77.3774H205.583V74.4163H213.954L218.191 67.4805H197.681ZM186.711 91.5425H194.769V67.4805H186.711V91.5425ZM176.702 67.4805L175.013 80.3384L171.971 67.4805H165.524L162.483 80.3384L160.793 67.4805H152.968L156.816 91.5425H165.446L168.722 80.7386L171.997 91.5425H180.628L184.475 67.4805H176.702ZM133.03 67.4805V74.4163H139.788L132.484 86.474V91.5425H151.902V84.6066H142.622L152.994 67.4805H133.03Z" fill="#282828"/>
<path d="M109.841 85.6756H105.786L120.37 61H87.953C84.6516 61 82 63.7743 82 67.1622C82 70.5501 84.6776 73.3244 87.953 73.3244H91.9823L82.8579 88.77C82.8579 88.77 82 90.0771 82 91.9445C82 95.3057 84.6256 98 87.875 98H109.841C113.143 98 115.794 95.2257 115.794 91.8378C115.794 88.4499 113.117 85.6756 109.841 85.6756Z" fill="#F26722"/>
</svg>
