<svg width="320" height="160" viewBox="0 0 320 160" fill="none" xmlns="http://www.w3.org/2000/svg">
<path d="M214.6 72.8984C214.6 71.4984 213.5 70.3984 212.1 70.3984H183.8C178.6 70.3984 174.4 74.3984 174.4 79.4984C174.4 84.6984 178.6 88.5984 183.8 88.5984H206.5C208.7 88.5984 210.5 90.5984 210.5 92.7984C210.5 94.9984 208.7 96.9984 206.5 96.9984H178.3C176.9 96.9984 175.8 98.0984 175.8 99.3984C175.8 100.798 176.9 101.798 178.3 101.798H206.6C211.8 101.798 216 97.7984 216 92.6984C216 87.4984 211.8 83.5984 206.6 83.5984H183.8C181.6 83.5984 179.8 81.5984 179.8 79.3984C179.8 77.1984 181.6 75.1984 183.8 75.1984H212.1C213.5 75.3984 214.6 74.2984 214.6 72.8984Z" fill="#A2C037"/>
<path d="M164.7 59.6C164.7 57.6 163.1 56 161.1 56C159.1 56 157.5 57.6 157.5 59.6C157.5 61.6 159.1 63.2 161.1 63.2C163.1 63.1 164.7 61.5 164.7 59.6Z" fill="#A2C037"/>
<path d="M149.8 63.0984C147.8 63.0984 146.2 61.4984 146.2 59.4984C146.2 57.4984 147.8 55.8984 149.8 55.8984C151.8 55.8984 153.4 57.4984 153.4 59.4984C153.3 61.4984 151.7 63.0984 149.8 63.0984Z" fill="#B6CB5D"/>
<path d="M138.4 63.0984C136.4 63.0984 134.8 61.4984 134.8 59.4984C134.8 57.4984 136.4 55.8984 138.4 55.8984C140.4 55.8984 142 57.4984 142 59.4984C142 61.4984 140.4 63.0984 138.4 63.0984Z" fill="#C9D888"/>
<path d="M127 63.0984C125 63.0984 123.4 61.4984 123.4 59.4984C123.4 57.4984 125 55.8984 127 55.8984C129 55.8984 130.6 57.4984 130.6 59.4984C130.6 61.4984 129 63.0984 127 63.0984Z" fill="#DCE5B2"/>
<path d="M115.7 63.0984C113.7 63.0984 112.1 61.4984 112.1 59.4984C112.1 57.4984 113.7 55.8984 115.7 55.8984C117.7 55.8984 119.3 57.4984 119.3 59.4984C119.3 61.4984 117.7 63.0984 115.7 63.0984Z" fill="#EEF2DA"/>
<path d="M145.3 70.5C145.2 70.5 145.1 70.5 145.1 70.5H121C111.4 70.5 105 76.8 105 86.3V99.7C105 101.2 106.2 102.4 107.7 102.4C109.2 102.4 110.4 101.2 110.4 99.7V86.3C110.4 79.7 114.4 75.4 121.1 75.4H145.2C145.3 75.4 145.3 75.4 145.4 75.4C146.8 75.4 147.8 74.3 147.8 73C147.8 71.7 146.7 70.5 145.3 70.5Z" fill="#A2C037"/>
<path d="M113 86.2969C113 87.6969 114.1 88.7969 115.4 88.7969H140C141.4 88.7969 142.5 87.6969 142.5 86.2969C142.5 84.8969 141.4 83.7969 140 83.7969H115.5C114.1 83.7969 113 84.8969 113 86.2969Z" fill="#A2C037"/>
<path d="M158.5 72.8992V99.5992C158.5 101.099 159.7 102.299 161.2 102.299C162.7 102.299 163.9 101.099 163.9 99.5992V72.8992C163.9 71.3992 162.7 70.1992 161.2 70.1992C159.6 70.2992 158.5 71.4992 158.5 72.8992Z" fill="#A2C037"/>
</svg>
