<svg width="320" height="160" viewBox="0 0 320 160" fill="none" xmlns="http://www.w3.org/2000/svg">
<path d="M107.71 68.2961L111.098 62.4078C112.085 60.676 111.498 58.4912 109.791 57.4787C108.084 56.4929 105.87 57.079 104.883 58.7842L101.496 64.6726C94.2682 62.3812 86.1602 65.3387 82.2129 72.1862C79.7858 76.3693 79.3324 81.3783 80.9327 85.9345L87.1737 75.0904C88.5873 72.6125 90.961 70.8007 93.7348 70.0546C96.5086 69.3086 99.4424 69.6816 101.923 71.147C107.07 74.1312 108.857 80.7389 105.87 85.9078C102.883 91.0768 96.2686 92.8353 91.121 89.8511L94.7216 83.6164C96.4286 84.6023 98.6423 84.0161 99.6291 82.3109C100.616 80.579 100.029 78.3942 98.3222 77.3817C96.6153 76.3959 94.4016 76.9821 93.4148 78.6873L81.9462 98.5904C80.9594 100.322 81.5461 102.507 83.2531 103.519C84.96 104.505 87.1737 103.919 88.1606 102.214L91.5478 96.3256C98.7757 98.617 106.884 95.6595 110.831 88.812C114.805 81.9112 113.311 73.4118 107.71 68.2961ZM128.434 80.3392C130.034 80.3392 131.074 79.6198 131.074 77.8613C131.074 76.1028 130.008 75.4101 128.434 75.4101H126.22V80.3392H128.434ZM122.966 72.5592H128.514C131.741 72.5592 134.408 74.1578 134.408 77.8613C134.408 81.5648 131.741 83.1901 128.514 83.1901H126.22V88.3857H122.966V72.5592ZM139.209 72.5592H149.691V75.4367H142.463V79.0603H148.837V81.8579H142.463V85.5614H150.011V88.439H139.209V72.5592ZM155.505 72.5592H158.759V85.5614H165.934V88.439H155.505V72.5592ZM182.63 80.4991C182.63 77.5416 180.683 75.2769 177.775 75.2769C174.895 75.2769 172.921 77.5416 172.921 80.4991C172.921 83.4566 174.868 85.7213 177.775 85.7213C180.683 85.7213 182.63 83.4566 182.63 80.4991ZM169.587 80.4991C169.587 75.8097 173.215 72.3727 177.802 72.3727C182.363 72.3727 185.99 75.8364 185.99 80.4991C185.99 85.1884 182.363 88.6255 177.802 88.6255C173.241 88.6255 169.587 85.1884 169.587 80.4991ZM194.018 75.4367H189.511V72.5592H201.806V75.4367H197.299V88.4124H194.045V75.4367H194.018ZM218.342 80.4991C218.342 77.5416 216.395 75.2769 213.488 75.2769C210.608 75.2769 208.634 77.5416 208.634 80.4991C208.634 83.4566 210.581 85.7213 213.488 85.7213C216.395 85.7213 218.342 83.4566 218.342 80.4991ZM205.3 80.4991C205.3 75.8097 208.927 72.3727 213.515 72.3727C218.076 72.3727 221.703 75.8364 221.703 80.4991C221.703 85.1884 218.076 88.6255 213.515 88.6255C208.927 88.6255 205.3 85.1884 205.3 80.4991ZM231.678 81.0586C230.878 80.3126 229.784 78.9004 229.784 78.9004C229.784 78.9004 230.024 80.659 230.024 81.8046V88.439H226.984V72.4526H227.304L235.305 79.9662C236.079 80.6856 237.172 82.1244 237.172 82.1244C237.172 82.1244 236.959 80.3392 236.959 79.2468V72.6125H239.999V88.5989H239.679L231.678 81.0586Z" fill="#181A1D"/>
</svg>
