<svg width="320" height="160" viewBox="0 0 320 160" fill="none" xmlns="http://www.w3.org/2000/svg">
<path d="M110 91.0032H115.856V81.6936C115.856 78.2323 117.529 76.6806 119.8 76.6806C121.832 76.6806 122.907 78.2323 122.907 80.9774V91.0032H128.763V79.9032C128.763 74.8903 126.015 71.429 121.354 71.429C118.844 71.429 116.932 72.5032 115.976 73.8161V62.2387H110V91.0032ZM136.054 69.1613C138.085 69.1613 139.759 67.6097 139.759 65.5806C139.759 63.5516 138.085 62 136.054 62C134.141 62 132.468 63.5516 132.468 65.5806C132.468 67.6097 134.022 69.1613 136.054 69.1613ZM133.185 91.0032H139.041V71.7871H133.185V91.0032ZM143.702 99H149.559V89.0935C150.276 90.1677 152.188 91.4806 154.817 91.4806C159.837 91.4806 163.78 86.9452 163.78 81.4548C163.78 75.9645 159.837 71.429 154.817 71.429C152.188 71.429 150.395 72.7419 149.559 73.8161V71.7871H143.702V99ZM153.502 86.1097C150.873 86.1097 149.08 84.0806 149.08 81.3355C149.08 78.5903 150.873 76.5613 153.502 76.5613C156.132 76.5613 157.924 78.5903 157.924 81.3355C157.805 84.2 156.132 86.1097 153.502 86.1097ZM166.29 99H172.146V89.0935C172.863 90.1677 174.776 91.4806 177.405 91.4806C182.424 91.4806 186.368 86.9452 186.368 81.4548C186.368 75.9645 182.424 71.429 177.405 71.429C174.776 71.429 172.983 72.7419 172.146 73.8161V71.7871H166.29V99ZM176.09 86.1097C173.461 86.1097 171.668 84.0806 171.668 81.3355C171.668 78.5903 173.461 76.5613 176.09 76.5613C178.72 76.5613 180.512 78.5903 180.512 81.3355C180.512 84.2 178.72 86.1097 176.09 86.1097ZM197.841 91.3613C203.339 91.3613 208 86.9452 208 81.3355C208 75.7258 203.459 71.3097 197.841 71.3097C192.344 71.3097 187.683 75.7258 187.683 81.3355C187.683 86.9452 192.344 91.3613 197.841 91.3613ZM197.841 85.9903C195.451 85.9903 193.539 84.0806 193.539 81.3355C193.539 78.5903 195.332 76.6806 197.841 76.6806C200.351 76.6806 202.144 78.5903 202.144 81.3355C202.144 84.0806 200.351 85.9903 197.841 85.9903Z" fill="#02DE82"/>
</svg>
