<svg width="320" height="160" viewBox="0 0 320 160" fill="none" xmlns="http://www.w3.org/2000/svg">
<path d="M98.7042 72.9224C103.771 72.9224 107.943 76.9336 107.943 81.8664C107.943 86.772 103.799 90.8103 98.7042 90.8103C93.609 90.8103 89.4657 86.7991 89.4657 81.8664C89.4657 79.5626 89.4657 62 89.4657 62H94.2249V81.785C94.2249 84.3056 96.2966 86.3112 98.9001 86.3112C101.504 86.3112 103.575 84.3056 103.575 81.785C103.575 79.2645 101.504 77.2589 98.9001 77.2589H96.5205V72.8411L98.7042 72.9224Z" fill="#E87511"/>
<path d="M80.6752 77.6387C80.6752 77.449 80.8712 77.3406 80.9832 77.3406H87.3101V73.0312C87.3101 73.0312 79.7514 73.0312 79.5274 73.0312C77.5677 73.0312 76 74.549 76 76.4462C76 76.5546 76 90.5939 76 90.5939H80.6752V77.6387Z" fill="#E87511"/>
<path d="M240.249 87.1511C239.829 87.5577 239.633 88.0455 239.633 88.6689C239.633 89.2923 239.829 89.7801 240.249 90.1866C240.669 90.5932 241.173 90.7829 241.816 90.7829C242.432 90.7829 242.964 90.5932 243.384 90.1866C243.804 89.7801 244 89.2923 244 88.7773C244 88.181 243.804 87.6661 243.384 87.2595C242.964 86.853 242.46 86.6633 241.816 86.6633C241.173 86.5549 240.641 86.7717 240.249 87.1511ZM234.538 72.5969C233.39 72.5969 232.354 72.7867 231.626 73.1119C230.786 73.41 230.17 74.0063 229.554 74.711C228.715 75.7138 228.323 76.9063 228.323 78.2343C228.323 79.2371 228.631 80.2399 229.163 81.053C229.89 82.1642 231.122 82.8689 232.998 83.3567C234.034 83.5465 234.65 83.7633 234.958 83.953C235.573 84.2511 235.881 84.7661 235.881 85.4708C235.881 86.067 235.685 86.582 235.154 86.9885C234.734 87.3951 234.118 87.5848 233.278 87.5848C232.046 87.5848 230.478 87.1782 228.603 86.3923V90.1053C230.366 90.7016 231.934 90.9997 233.278 90.9997C235.154 90.9997 236.609 90.5932 237.729 89.6988C239.073 88.5876 239.689 87.1782 239.689 85.4708C239.689 84.0614 239.157 82.7605 238.233 81.8661C237.813 81.4595 237.393 81.1614 236.889 80.9717C236.357 80.782 235.546 80.4567 234.398 80.1586C233.474 79.9689 232.83 79.6437 232.522 79.3455C232.214 79.0474 231.99 78.6409 231.99 78.153C231.99 77.6381 232.186 77.1502 232.606 76.7437C233.026 76.3371 233.754 76.1474 234.566 76.1474C235.602 76.1474 236.749 76.4455 238.093 77.0418V73.3287C236.805 72.7053 235.685 72.5969 234.538 72.5969ZM212.449 74.8194C210.266 76.6352 209.23 78.939 209.23 81.6493C209.23 83.2483 209.65 84.7661 210.462 86.1754C211.302 87.5848 212.533 88.7773 214.101 89.5904C215.557 90.4035 217.013 90.7016 218.664 90.7016C220.316 90.7016 221.772 90.2951 223.228 89.5904C224.683 88.7773 225.831 87.6932 226.755 86.3652C227.679 84.9558 228.099 83.3567 228.099 81.7577C228.099 79.1558 227.175 77.0418 225.411 75.2259C223.536 73.41 221.38 72.5156 218.776 72.5156C216.285 72.5969 214.213 73.3016 212.449 74.8194ZM222.5 77.5296C223.731 78.6409 224.375 80.0502 224.375 81.7577C224.375 83.0586 223.955 84.2782 223.032 85.3623C221.884 86.6633 220.428 87.368 218.776 87.368C217.321 87.368 216.089 86.853 215.053 85.9586C213.709 84.8474 213.093 83.4381 213.093 81.7306C213.093 80.3212 213.513 79.1287 214.549 78.0175C215.697 76.7166 217.153 76.1203 218.916 76.1203C220.232 76.1203 221.464 76.6352 222.5 77.5296ZM200.831 90.4848V82.2455C200.943 82.7605 201.139 83.1399 201.447 83.3567C201.755 83.5465 202.287 83.6549 202.903 83.6549H203.323C203.939 83.6549 204.359 83.7633 204.555 83.953C204.751 84.1427 204.863 84.5493 204.863 85.1455V90.4577H208.586V84.8474C208.586 83.0315 207.97 81.9474 206.626 81.6222C207.858 80.5109 208.39 79.3184 208.39 77.9091C208.39 76.2016 207.662 74.7923 206.206 73.7895C205.674 73.4913 205.171 73.1932 204.639 73.0848C204.107 72.9764 203.491 72.8951 202.679 72.8951H200.719C199.879 72.8951 199.264 72.8951 198.956 73.0035C198.648 73.1119 198.228 73.3016 197.92 73.5184C197.5 73.8166 197.304 74.2231 197.192 74.6296C197.08 75.0362 196.996 75.6324 196.996 76.5268V90.4848H200.831ZM202.511 76.31C203.239 76.31 203.855 76.4997 204.163 76.825C204.583 77.1231 204.779 77.6381 204.779 78.2343C204.779 78.6409 204.667 79.1287 204.359 79.4268C204.051 79.8334 203.519 80.0231 202.791 80.1315C202.063 80.2399 201.559 80.3212 201.335 80.5381C201.027 80.7278 200.915 81.1343 200.803 81.7306V76.31C200.831 76.31 202.511 76.31 202.511 76.31ZM189.941 76.31C190.557 76.31 191.089 76.4997 191.397 76.7166C191.817 77.0147 191.929 77.4212 191.929 77.9091C191.929 78.424 191.733 78.8035 191.313 79.21C191.005 79.3997 190.585 79.5081 189.857 79.5081H188.625V76.2829C188.597 76.31 189.941 76.31 189.941 76.31ZM195.232 79.2371C195.54 78.7222 195.652 78.0446 195.652 77.4212C195.652 76.5268 195.456 75.7138 194.924 75.0091C194.392 74.3044 193.776 73.7081 192.965 73.41C192.125 73.1119 190.893 72.8951 189.017 72.8951C188.177 72.8951 187.561 73.0035 187.142 73.0848C186.722 73.1932 186.302 73.3829 185.994 73.681C185.686 73.9792 185.378 74.3857 185.266 74.7923C185.154 75.1988 185.07 75.9035 185.07 76.6895V86.338C185.07 87.2324 185.182 87.9371 185.266 88.4521C185.378 88.967 185.686 89.3465 185.994 89.6446C186.414 89.9427 186.834 90.1595 187.226 90.3493C187.757 90.4577 188.457 90.539 189.605 90.539C191.061 90.539 192.097 90.4306 192.601 90.3493C193.748 90.0511 194.672 89.4549 195.512 88.5334C196.128 87.639 196.548 86.7175 196.548 85.6334C196.548 84.9287 196.436 84.3324 196.128 83.6278C195.82 83.0315 195.512 82.4352 194.98 81.9203C194.672 81.6222 194.252 81.324 193.748 81.0259C194.504 80.4296 194.924 79.8334 195.232 79.2371ZM189.941 82.9502C190.557 82.9502 190.977 82.9502 191.173 82.9502C191.369 82.9502 191.593 83.0586 191.789 83.1399C192.097 83.3296 192.405 83.5465 192.629 83.8446C192.853 84.1427 192.937 84.5493 192.937 84.8474C192.937 85.6605 192.629 86.2567 191.901 86.5549C191.593 86.6633 191.369 86.7446 191.173 86.7446C190.977 86.7446 190.557 86.7446 189.941 86.7446H188.709V82.7334H189.941V82.9502ZM174.908 72.9222C173.564 72.9222 172.64 73.2203 171.996 73.7353C171.38 74.3315 171.156 75.253 171.156 76.6352V86.7717C171.156 87.4764 171.268 87.9642 171.352 88.3708C171.436 88.7773 171.66 89.1838 171.968 89.482C172.276 89.8885 172.696 90.0782 173.116 90.2951C173.536 90.4035 174.152 90.4848 174.992 90.4848H180.283V87.0698H174.88V83.0586H179.863V79.7521H174.88V76.4455H180.283V73.0306H174.88L174.908 72.9222ZM166.005 90.4848H169.728V72.9222H166.005V90.4848ZM160.91 72.9222V79.7521H155.227V72.9222H151.503V90.4848H155.227V83.0586H160.938V90.4848H164.661V72.9222H160.91ZM150.44 72.9222H149.208C148.172 72.9222 147.332 73.0306 146.716 73.1119C144.841 73.5184 143.189 74.4128 141.957 75.7138C140.389 77.4212 139.577 79.3184 139.577 81.6493C139.577 83.6549 140.193 85.3623 141.453 86.9614C142.685 88.4792 144.253 89.5633 146.128 90.0782C146.968 90.268 148.004 90.3764 149.46 90.3764H150.496V87.0698H149.46C148.312 87.0698 147.388 86.8801 146.66 86.5549C145.932 86.2567 145.205 85.7418 144.589 85.0371C143.749 84.0343 143.357 82.9231 143.357 81.6222C143.357 80.7278 143.553 79.8063 144.085 79.0203C144.505 78.3156 145.009 77.7194 145.736 77.2044C146.268 76.7979 146.772 76.6081 147.388 76.3913C147.92 76.2829 148.62 76.2016 149.46 76.2016H150.608V72.8951H150.44V72.9222ZM130.115 72.9222V76.3371H133.53V90.4848H137.254V76.3371H140.669V72.9222H130.115ZM125.468 90.4848H129.191V72.9222H125.468V90.4848ZM116.649 90.4848V82.2455C116.761 82.7605 116.957 83.1399 117.265 83.3567C117.573 83.5465 118.105 83.6549 118.721 83.6549H119.141C119.757 83.6549 120.177 83.7633 120.485 83.953C120.681 84.1427 120.793 84.5493 120.793 85.1455V90.4577H124.516V84.8474C124.628 83.0315 123.9 81.9474 122.556 81.6222C123.788 80.5109 124.32 79.3184 124.32 77.9091C124.32 76.2016 123.592 74.7923 122.136 73.7895C121.604 73.4913 121.101 73.1932 120.569 73.0848C120.037 72.9764 119.421 72.8951 118.609 72.8951H116.649C115.809 72.8951 115.194 72.8951 114.886 73.0035C114.578 73.1119 114.158 73.3016 113.85 73.5184C113.43 73.8166 113.234 74.2231 113.122 74.6296C113.01 75.0362 112.926 75.6324 112.926 76.5268V90.4848H116.649ZM118.301 76.31C119.029 76.31 119.645 76.4997 119.953 76.825C120.373 77.1231 120.569 77.6381 120.569 78.2343C120.569 78.6409 120.457 79.1287 120.149 79.4268C119.841 79.8334 119.309 80.0231 118.581 80.1315C117.853 80.2399 117.349 80.3212 117.125 80.5381C116.817 80.7278 116.705 81.1343 116.593 81.7306V76.31C116.649 76.31 118.301 76.31 118.301 76.31Z" fill="black"/>
</svg>
