<svg width="320" height="160" viewBox="0 0 320 160" fill="none" xmlns="http://www.w3.org/2000/svg">
<path d="M118.683 59.543H110.883V67.4686H118.683V59.543Z" fill="#0069B7"/>
<path d="M118.491 100.84V72.2922H111.106V100.84H118.491ZM167.577 101.122V94.1262C166.495 94.1262 165.578 94.0698 164.912 93.9569C164.135 93.8441 163.552 93.562 163.163 93.1671C162.774 92.7721 162.524 92.208 162.386 91.4745C162.274 90.7693 162.219 89.8384 162.219 88.71V78.7239H167.577V72.2922H162.219V61.1495H154.806V88.7664C154.806 91.1078 155 93.0824 155.389 94.6622C155.778 96.2137 156.444 97.4831 157.36 98.4422C158.277 99.4013 159.498 100.078 160.97 100.501C162.469 100.925 164.357 101.122 166.606 101.122H167.577ZM210 100.84V58.9492H202.587V100.84H210ZM147.671 75.0849C145.616 72.8282 142.729 71.6998 139.064 71.6998C137.287 71.6998 135.677 72.0665 134.205 72.8C132.762 73.5334 131.512 74.5489 130.541 75.8466L130.124 76.3825V75.903V72.2922H122.822V100.84H130.18V85.6352V86.6789C130.18 86.5097 130.18 86.3404 130.18 86.1712C130.263 83.4913 130.902 81.5166 132.123 80.2472C133.428 78.8932 135.011 78.2162 136.815 78.2162C138.953 78.2162 140.591 78.8932 141.674 80.1908C142.729 81.4884 143.284 83.322 143.284 85.6634V85.7198V100.812H150.753V84.6197C150.78 80.5575 149.725 77.3417 147.671 75.0849ZM198.756 86.5097C198.756 84.4504 198.395 82.5322 197.701 80.7268C196.979 78.9496 195.979 77.3699 194.73 76.0158C193.453 74.6618 191.926 73.618 190.149 72.8564C188.372 72.0947 186.401 71.728 184.263 71.728C182.236 71.728 180.321 72.1229 178.544 72.8846C176.767 73.6745 175.212 74.7182 173.907 76.044C172.602 77.3699 171.547 78.9496 170.798 80.755C170.02 82.5604 169.66 84.5068 169.66 86.5661C169.66 88.6254 170.02 90.5718 170.742 92.3772C171.464 94.1826 172.491 95.7623 173.769 97.0882C175.046 98.414 176.628 99.4859 178.461 100.248C180.293 101.037 182.32 101.432 184.485 101.432C190.76 101.432 194.647 98.5268 196.979 95.8187L191.648 91.7002C190.538 93.0542 187.872 94.8878 184.541 94.8878C182.459 94.8878 180.737 94.4083 179.432 93.421C178.127 92.4618 177.239 91.1078 176.767 89.4434L176.684 89.1896H198.756V86.5097ZM176.739 83.8862C176.739 81.7987 179.099 78.1597 184.18 78.1315C189.261 78.1315 191.648 81.7705 191.648 83.858L176.739 83.8862Z" fill="black"/>
</svg>
