<svg width="320" height="160" viewBox="0 0 320 160" fill="none" xmlns="http://www.w3.org/2000/svg">
<path d="M104.332 64.0859C102.031 64.0859 100.334 64.2179 99.1502 64.2179H98.1899C95.7332 64.2179 94.3932 64.0859 94.1475 64.0859C93.4775 64.0859 93.1425 64.2839 93.1425 64.6577C93.1425 65.4054 93.9689 65.1415 95.3089 65.4054C96.4255 65.6033 96.5595 65.9771 96.5595 67.2966V85.8128C96.5595 87.792 96.5595 88.3637 95.0185 88.6496C93.9242 88.8475 93.0085 88.5616 93.0085 89.3533C93.0085 89.7711 93.3882 90.013 94.1029 90.013C94.8175 90.013 96.4479 89.7271 98.8599 89.7271C101.495 89.7271 103.103 90.013 103.773 90.013C104.488 90.013 104.868 89.7711 104.868 89.3533C104.868 88.5836 103.952 88.8475 102.902 88.6496C101.317 88.3197 101.317 87.748 101.317 85.7688V79.6114C101.317 79.0836 101.451 78.7318 101.808 78.7758C102.098 78.7977 103.528 79.7653 106.587 79.2595C110.25 78.6658 113.399 75.719 113.399 71.6508C113.421 66.7248 110.339 64.0859 104.332 64.0859ZM104.041 77.8521C102.5 77.8521 101.317 77.3903 101.317 76.2908V67.2966C101.317 65.7352 101.696 65.2734 103.729 65.2734C106.319 65.2734 108.486 67.8683 108.486 71.4308C108.486 74.7734 106.632 77.8521 104.041 77.8521Z" fill="#333333"/>
<path d="M118.893 79.435H130.037C131.288 79.435 131.801 79.2591 131.801 78.5334C131.801 75.1688 128.92 71.1445 123.784 71.1445C117.776 71.1445 113.689 75.0809 113.689 80.9744C113.689 86.8899 117.441 90.7823 123.203 90.7823C126.218 90.7823 128.474 89.8367 130.35 88.1874C131.265 87.4177 131.69 86.758 131.69 86.3401C131.69 86.0103 131.556 85.8783 131.265 85.8783C130.93 85.8783 129.188 88.2753 125.302 88.2753C120.88 88.2753 118.334 84.6468 118.334 80.4246V80.0728C118.29 79.523 118.379 79.435 118.893 79.435ZM118.669 77.7198L118.781 77.0381C119.317 74.861 119.987 72.31 123.806 72.31C126.821 72.31 127.201 74.5531 127.201 76.0265C127.201 78.3575 125.995 78.1596 122.689 78.1596H119.295C118.893 78.1596 118.669 78.0276 118.669 77.8297V77.7198Z" fill="#333333"/>
<path d="M152.415 87.794C152.415 87.4201 152.192 87.1782 151.834 87.1782C151.209 87.1782 150.584 88.0799 149.78 88.0799C148.73 88.0799 148.484 87.1343 148.484 85.375V75.853C148.484 72.4444 147.658 71.125 143.437 71.125C137.854 71.125 133.968 74.4016 133.968 76.8866C133.968 77.3044 134.392 77.6343 134.973 77.6343C137.027 77.6343 137.675 76.6007 138.524 75.1273C139.484 73.39 140.355 72.4225 142.164 72.4225C143.884 72.4225 144.241 73.3681 144.241 75.6991V77.4583C144.241 78.0301 144.196 78.25 143.66 78.4479L142.32 78.9757C136.983 81.0208 134.057 82.8461 134.057 86.2986C134.057 88.2998 135.062 90.7407 137.72 90.7407C139.596 90.7407 141.137 89.7951 142.923 88.6076L144.04 87.86H144.33C145.09 89.6852 146.34 90.7407 147.881 90.7407C149.936 90.6968 152.415 88.5637 152.415 87.794ZM144.263 84.4734C144.263 86.5185 142.432 88.0799 140.623 88.0799C138.658 88.0799 138.233 86.5405 138.233 84.8252C138.233 83.066 139.707 81.1968 141.695 80.4051L143.437 79.7454C143.683 79.6134 143.906 79.5914 143.973 79.5914C144.107 79.5914 144.219 79.7454 144.219 80.0972L144.263 84.4734Z" fill="#363636"/>
<path d="M165.838 71.1437C163.582 71.1437 161.795 71.8913 159.986 73.4967L159.45 73.9805C159.294 74.1344 159.16 74.1784 159.071 74.1784C158.937 74.1784 158.847 74.0904 158.847 73.8925V71.8694C158.847 71.2976 158.691 71.0117 158.311 71.0117C157.842 71.0117 156.882 72.1552 154.626 73.2768C153.242 73.9805 152.259 74.0244 152.259 74.6622C152.259 75.3219 153.085 75.08 153.711 75.3219C154.381 75.6078 154.537 76.0696 154.537 77.1691V95.7293C154.537 96.8288 154.314 97.2027 153.443 97.4886C152.326 97.8624 151.477 97.4886 151.477 98.3902C151.477 98.764 151.768 99.0059 152.348 99.0059C153.063 99.0059 154.559 98.72 156.681 98.72C158.468 98.72 160.053 99.0059 161.393 99.0059C162.108 99.0059 162.443 98.72 162.443 98.3902C162.443 97.4886 161.483 97.8624 160.098 97.4886C159.048 97.2027 158.847 96.8728 158.847 95.7293V89.8798L159.138 89.7478C160.545 90.3636 162.019 90.6934 163.649 90.6934C169.947 90.6934 174.28 86.3393 174.28 80.3798C174.347 74.97 170.639 71.1437 165.838 71.1437ZM163.135 89.5059C160.411 89.5059 158.914 88.1865 158.914 85.6575V78.0048C158.914 75.2559 160.254 73.9365 163.135 73.9365C167.222 73.9365 170.014 76.9052 170.014 81.6112C170.014 86.2733 167.2 89.5059 163.135 89.5059Z" fill="#333333"/>
<path d="M220.42 87.1344C220.13 87.1344 219.594 87.9261 218.834 87.9261C218.41 87.9261 218.164 87.3983 218.164 86.2768V65.0337C218.164 63.9562 218.343 63.0106 218.343 62.2409C218.343 61.7131 218.164 61.4492 217.718 61.4492C217.383 61.4492 216.266 62.2629 213.921 62.9226C212.469 63.3404 211.554 63.3844 211.554 64.0001C211.554 64.418 212.268 64.374 213.095 64.7478C213.809 65.0777 213.899 65.3196 213.899 66.3532V71.1911C213.899 71.6089 213.72 71.8069 213.519 71.8069H213.363L212.693 71.5869C211.889 71.345 210.638 71.1251 209.186 71.1251C203.134 71.1251 198.556 75.4793 198.556 81.2409C198.556 86.8265 202.643 90.7189 208.114 90.7189C211.621 90.7189 213.497 88.8717 213.787 88.8717C214.211 88.8717 214.278 90.6309 215.038 90.6309C215.462 90.6309 216.914 89.7733 219.594 89.0256C220.398 88.8057 220.889 88.7397 220.889 87.7941C220.867 87.4203 220.621 87.1344 220.42 87.1344ZM213.943 84.7814C213.943 87.6622 213.72 88.8497 210.683 88.8497C206.104 88.8497 203.29 85.9249 203.29 81.1309C203.29 75.8312 206.216 72.3346 209.834 72.3346C213.43 72.3346 213.921 74.3358 213.921 78.492V84.7814H213.943Z" fill="#333333"/>
<path d="M225.043 63.8222C224.998 63.7782 224.909 63.7342 224.82 63.6683C225.11 63.6243 225.311 63.5363 225.445 63.4044C225.579 63.2724 225.646 63.0965 225.646 62.8986C225.646 62.7446 225.601 62.5907 225.534 62.4588C225.445 62.3268 225.333 62.2389 225.199 62.1949C225.065 62.1509 224.864 62.1289 224.619 62.1289H223.323V64.9877H223.703V63.7122H224.15C224.239 63.7122 224.328 63.7122 224.373 63.7342C224.44 63.7562 224.485 63.7782 224.552 63.8222C224.619 63.8442 224.686 63.9102 224.753 63.9981C224.82 64.0861 224.909 64.218 225.043 64.394L225.423 64.9877H225.892L225.4 64.218C225.244 64.0421 225.155 63.9321 225.043 63.8222ZM224.507 63.3824H223.681V62.4368H224.596C224.82 62.4368 224.976 62.4808 225.065 62.5687C225.155 62.6567 225.222 62.7666 225.222 62.8986C225.222 62.9865 225.199 63.0745 225.155 63.1625C225.11 63.2504 225.021 63.2944 224.931 63.3384C224.82 63.3604 224.686 63.3824 224.507 63.3824Z" fill="#363636"/>
<path d="M224.44 61.0078C223.011 61.0078 221.872 62.1513 221.872 63.5367C221.872 64.9442 223.033 66.0657 224.44 66.0657C225.847 66.0657 227.008 64.9222 227.008 63.5367C227.008 62.1513 225.869 61.0078 224.44 61.0078ZM224.44 65.6479C223.256 65.6479 222.274 64.7023 222.274 63.5367C222.274 62.3712 223.234 61.4256 224.44 61.4256C225.646 61.4256 226.584 62.3712 226.584 63.5367C226.606 64.7023 225.646 65.6479 224.44 65.6479Z" fill="#333333"/>
<path d="M196.948 80.5778C196.948 86.2954 192.236 90.9135 186.451 90.9135C180.645 90.9135 175.955 86.2954 175.955 80.5778C175.955 74.8602 180.645 70.2422 186.451 70.2422C192.258 70.2422 196.948 74.8822 196.948 80.5778Z" fill="#5EA000"/>
</svg>
