<svg width="320" height="160" viewBox="0 0 320 160" fill="none" xmlns="http://www.w3.org/2000/svg">
<path d="M91.6185 87.841L79.8461 86.2265L78.6016 80.2058L78.6689 80.0376L71.1682 77.0441V70.6533L78.568 61L97.7065 61.1682L107.393 70.6533L107.259 80.1721L104.501 87.0338L100.935 89.7246L98.6819 98.5034L91.753 87.7401L91.6185 87.841Z" fill="#603FF0"/>
<path d="M97.7738 61V70.5861H88.1877L78.568 61H97.7738Z" fill="#7681F2"/>
<path d="M78.568 61V70.5861H71L78.568 61Z" fill="#7681F2"/>
<path d="M91.6184 87.8423L79.6779 86.3959L78.6016 80.207L91.6184 87.8423Z" fill="#00BBD7"/>
<path d="M107.394 70.5861H97.7738V61L107.394 70.5861Z" fill="#00BBD7"/>
<path d="M78.568 70.5859V80.172L71 77.1785V70.5859H78.568Z" fill="#00BBD7"/>
<path d="M97.7738 70.5859H88.1877V80.2056H97.7738V70.5859Z" fill="#2745FF"/>
<path d="M88.1877 70.5859V80.2056H78.568V70.6196L88.1877 70.5859Z" fill="#002B9D"/>
<path d="M104.501 87.0686L101.07 89.8267L98.7492 98.9083L91.6186 87.8423L88.1877 80.207H97.7738L104.501 87.0686Z" fill="#002B9D"/>
<path d="M117.013 69.7769H121.117V71.8623C122.126 70.5169 123.471 69.5078 125.624 69.5078C128.987 69.5078 132.183 72.1314 132.183 76.9749V77.0421C132.183 81.852 129.021 84.5092 125.624 84.5092C123.438 84.5092 122.092 83.5001 121.117 82.3565V88.5454H117.013V69.7769ZM128.079 77.0085V76.9412C128.079 74.5531 126.465 72.9723 124.547 72.9723C122.63 72.9723 121.049 74.5531 121.049 76.9412V77.0085C121.049 79.3966 122.63 80.9775 124.547 80.9775C126.465 80.9775 128.079 79.4302 128.079 77.0085Z" fill="black"/>
<path d="M134.302 87.6056L135.681 84.6457C136.219 84.982 136.892 85.2175 137.43 85.2175C138.136 85.2175 138.506 85.0157 138.842 84.2757L133.192 69.8125H137.531L140.827 79.634L143.989 69.8125H148.227L142.677 84.5448C141.567 87.4711 140.39 88.581 137.934 88.581C136.454 88.581 135.378 88.211 134.302 87.6056Z" fill="black"/>
<path d="M150.649 69.7769H154.752V71.8287C155.694 70.6178 156.938 69.5078 158.99 69.5078C160.874 69.5078 162.286 70.3487 163.06 71.795C164.338 70.3151 165.818 69.5078 167.803 69.5078C170.83 69.5078 172.68 71.3241 172.68 74.8222V84.2065H168.576V76.1676C168.576 74.2168 167.702 73.2413 166.188 73.2413C164.641 73.2413 163.699 74.2504 163.699 76.1676V84.2065H159.596V76.1676C159.596 74.2168 158.721 73.2413 157.207 73.2413C155.694 73.2413 154.718 74.2504 154.718 76.1676V84.2065H150.615V69.7769H150.649Z" fill="black"/>
<path d="M175.505 77.0758V77.0085C175.505 72.905 178.431 69.5078 182.636 69.5078C187.446 69.5078 189.665 73.2413 189.665 77.3448C189.665 77.6812 189.632 78.0512 189.598 78.4212H179.575C179.978 80.2711 181.257 81.2465 183.107 81.2465C184.486 81.2465 185.461 80.8093 186.605 79.7666L188.959 81.852C187.614 83.5337 185.663 84.5428 183.073 84.5428C178.7 84.5428 175.505 81.482 175.505 77.0758ZM185.697 75.8649C185.461 74.0486 184.385 72.8041 182.669 72.8041C180.988 72.8041 179.878 74.0149 179.541 75.8649H185.697Z" fill="black"/>
<path d="M193.365 80.1041V73.2761H191.65V69.778H193.365V66.0781H197.469V69.778H200.866V73.2761H197.469V79.4314C197.469 80.3731 197.873 80.844 198.781 80.844C199.521 80.844 200.193 80.6422 200.799 80.3395V83.6358C199.924 84.1403 198.949 84.4767 197.57 84.4767C195.081 84.443 193.365 83.4676 193.365 80.1041Z" fill="black"/>
<path d="M203.86 69.7785H207.963V72.6712C208.804 70.6867 210.149 69.3749 212.571 69.5095V73.7812H212.369C209.645 73.7812 207.997 75.4293 207.997 78.8601V84.2081H203.86V69.7785Z" fill="black"/>
<path d="M215.195 64.5664H219.5V68.199H215.195V64.5664ZM215.296 69.7799H219.399V84.2094H215.296V69.7799Z" fill="black"/>
<path d="M222.527 77.0758V77.0085C222.527 72.905 225.689 69.5078 230.095 69.5078C232.82 69.5078 234.501 70.416 235.847 71.9296L233.358 74.6204C232.45 73.645 231.541 73.0395 230.062 73.0395C228.01 73.0395 226.563 74.8558 226.563 76.9749V77.0421C226.563 79.2621 227.976 81.0111 230.23 81.0111C231.609 81.0111 232.551 80.4057 233.526 79.4639L235.914 81.8856C234.501 83.4328 232.887 84.5092 230.028 84.5092C225.723 84.5428 222.527 81.1793 222.527 77.0758Z" fill="black"/>
<path d="M237.495 82.2892L239.244 79.5984C240.791 80.742 242.439 81.3138 243.785 81.3138C244.962 81.3138 245.5 80.8766 245.5 80.2375V80.1702C245.5 79.2957 244.087 78.993 242.507 78.4884C240.488 77.883 238.201 76.9412 238.201 74.1495V74.0822C238.201 71.1559 240.556 69.5078 243.482 69.5078C245.298 69.5078 247.316 70.1132 248.864 71.1896L247.316 74.0149C245.904 73.1741 244.457 72.6695 243.415 72.6695C242.406 72.6695 241.901 73.1068 241.901 73.6786V73.7795C241.901 74.5867 243.28 74.9567 244.827 75.4949C246.845 76.1676 249.2 77.143 249.2 79.7666V79.8339C249.2 83.0292 246.812 84.4755 243.684 84.4755C241.666 84.4755 239.378 83.8028 237.495 82.2892Z" fill="black"/>
</svg>
