<svg width="320" height="160" viewBox="0 0 320 160" fill="none" xmlns="http://www.w3.org/2000/svg">
<path d="M129.32 105.263H127V103.133H129.32V99.5146H132.272V103.133H135.434V105.263H132.272V110.586C132.272 111.866 132.272 112.716 133.324 112.716C134.166 112.716 134.802 112.503 135.644 112.503V114.846H133.324C129.531 114.846 129.32 113.57 129.32 111.44V105.263ZM140.495 107.606C140.916 105.263 142.815 104.625 144.289 104.625C145.762 104.625 147.872 105.475 148.082 107.606H140.495ZM151.248 109.732V109.094C151.248 105.901 149.35 102.708 144.289 102.708C140.07 102.708 137.329 105.05 137.329 108.881C137.329 112.074 139.227 115.055 144.499 115.055C148.718 115.055 150.402 112.499 151.034 111.22H147.661C147.24 112.283 146.398 112.925 144.289 112.925C141.337 112.925 140.495 111.007 140.495 109.732H151.248ZM153.779 98.6602H156.941V114.629H153.779V98.6602ZM160.314 98.6602H163.265V114.629H160.314V98.6602ZM165.796 103.133H168.747V109.732C168.747 111.436 169.169 112.712 171.91 112.712C173.177 112.712 175.282 111.862 175.282 109.519V103.133H178.234V114.629H175.282V113.137C174.23 114.2 172.752 115.055 170.642 115.055C168.322 115.055 165.792 114.204 165.792 110.794L165.796 103.133ZM183.51 111.011C183.51 112.712 185.619 113.141 186.672 113.141C188.15 113.141 189.623 112.716 189.623 111.649C189.623 110.586 189.202 110.373 186.04 109.948C182.457 109.523 180.558 109.098 180.558 106.33C180.558 103.137 184.356 102.712 186.251 102.712C188.15 102.712 192.364 102.924 192.575 106.543H189.413C189.202 104.842 187.093 104.625 186.251 104.625C184.566 104.625 183.51 105.475 183.51 106.117C183.51 106.968 183.931 107.18 186.672 107.61C190.465 108.035 192.996 108.46 192.996 111.228C192.996 114.208 190.255 115.063 186.672 115.063C184.141 115.063 180.347 114.638 180.133 111.019L183.51 111.011Z" fill="#0C0E0F"/>
<path d="M130.583 121.447H129.32V120.809H132.272V121.447H131.219V124.002H130.583V121.447ZM133.96 120.809H136.701V121.447H134.592V122.084H136.49V122.722H134.592V123.573H136.701V123.998H133.96V120.809ZM141.126 122.084C141.126 121.447 140.705 121.234 140.074 121.234C139.442 121.234 139.021 121.659 139.021 122.51C139.021 123.147 139.442 123.573 140.074 123.573C140.916 123.573 141.126 123.147 141.126 122.722H141.758C141.758 123.36 141.337 123.998 140.07 123.998C138.802 123.998 138.381 123.36 138.381 122.505C138.381 121.442 138.802 120.805 140.07 120.805C141.122 120.805 141.758 121.23 141.758 122.08L141.126 122.084ZM143.657 120.809H144.288V122.084H146.187V120.809H146.819V124.002H146.187V122.51H144.288V124.002H143.657V120.809ZM148.928 120.809H149.56L151.459 123.151V120.809H152.091V124.002H151.459L149.56 121.659V124.002H148.928V120.809ZM155.678 123.577C155.046 123.577 154.625 123.151 154.625 122.514C154.625 121.663 155.046 121.238 155.678 121.238C156.52 121.238 156.945 121.663 156.945 122.514C156.941 123.147 156.52 123.577 155.678 123.577ZM155.678 124.002C157.156 124.002 157.577 123.364 157.577 122.51C157.577 121.447 157.156 120.809 155.678 120.809C154.415 120.809 153.989 121.447 153.989 122.51C153.989 123.364 154.411 124.002 155.678 124.002ZM159.261 120.809H160.103V123.577H162.002V124.002H159.261V120.809ZM164.533 123.577C163.901 123.577 163.48 123.151 163.48 122.514C163.48 121.663 163.901 121.238 164.533 121.238C165.375 121.238 165.796 121.663 165.796 122.514C165.796 123.147 165.375 123.577 164.533 123.577ZM164.533 124.002C165.796 124.002 166.432 123.364 166.432 122.51C166.432 121.447 165.8 120.809 164.533 120.809C163.265 120.809 162.634 121.447 162.634 122.51C162.634 123.364 163.269 124.002 164.533 124.002ZM171.493 124.002H171.071V123.577C170.861 123.789 170.44 124.002 169.808 124.002C168.541 124.002 168.12 123.364 168.12 122.51C168.12 121.447 168.541 120.809 169.808 120.809C170.861 120.809 171.286 121.234 171.493 121.872H170.646C170.646 121.447 170.225 121.234 169.804 121.234C168.962 121.234 168.752 121.659 168.752 122.51C168.752 123.36 169.173 123.573 169.804 123.573C170.436 123.573 170.646 123.36 170.857 122.722H170.015V122.297H171.493V124.002ZM174.444 122.722L173.181 120.805H174.023L174.869 122.297L175.711 120.805H176.554L175.08 122.722V123.998H174.448L174.444 122.722ZM180.979 120.809H181.611V124.002H180.979V120.809ZM183.51 120.809H184.352L186.04 123.151V120.809H186.672V124.002H186.04L184.141 121.659V124.002H183.51V120.809ZM190.891 122.084C190.891 121.447 190.469 121.234 190.048 121.234C189.417 121.234 188.996 121.659 188.996 122.51C188.996 123.147 189.417 123.573 190.048 123.573C190.68 123.573 190.891 123.147 190.891 122.722H191.733C191.522 123.36 191.101 123.998 189.834 123.998C188.781 123.998 188.149 123.36 188.149 122.505C188.149 121.442 188.781 120.805 190.048 120.805C191.101 120.805 191.526 121.23 191.737 122.08L190.891 122.084Z" fill="black"/>
<path d="M133.535 62.6784C133.535 47.3469 145.766 35 160.946 35C176.129 35 188.356 47.351 188.356 62.6784C188.356 78.0057 176.125 90.3567 160.946 90.3567C145.766 90.3567 133.535 78.0098 133.535 62.6784Z" fill="#769ACA"/>
<path d="M155.257 68.8508C147.034 68.213 141.13 65.6578 141.13 62.89C141.13 59.4843 149.985 56.5039 160.95 56.5039C163.059 56.5039 165.168 56.7165 167.063 56.9291L155.257 68.8508Z" fill="white"/>
<path d="M155.046 62.8916C155.046 51.8202 157.787 42.8789 161.16 42.8789C164.743 42.8789 167.484 51.8202 167.484 62.8916C167.484 73.9629 164.743 82.9042 161.16 82.9042C157.787 82.9083 155.046 73.9629 155.046 62.8916Z" fill="#0C0E0F"/>
<path d="M167.063 56.9297C175.076 57.7801 180.769 60.1227 180.769 62.8905C180.769 66.2962 171.914 69.2766 160.95 69.2766C159.051 69.2766 157.156 69.064 155.257 68.8514L167.063 56.9297Z" fill="white"/>
</svg>
