<svg width="320" height="160" viewBox="0 0 320 160" fill="none" xmlns="http://www.w3.org/2000/svg">
<path d="M161.771 41.2461C174.481 41.2461 186.997 41.2461 199.695 41.2461C199.695 45.3219 199.695 49.3007 199.695 53.3765C201.226 53.3765 202.599 53.3765 204.142 53.3765C204.142 49.3128 204.142 45.334 204.142 41.2582C207.739 41.2582 211.141 41.2582 214.69 41.2582C214.69 58.2165 214.69 75.1505 214.69 92.3272C214.143 92.3272 213.584 92.3272 213.025 92.3272C198.759 92.3272 184.494 92.3272 170.24 92.3272C164.979 92.3272 161.795 89.1733 161.783 83.9693C161.771 70.262 161.783 56.5668 161.783 42.8594C161.771 42.3742 161.771 41.9011 161.771 41.2461Z" fill="black"/>
<path d="M157.972 41C157.972 41.5938 157.972 42.1149 157.972 42.636C157.972 56.6935 157.985 70.7632 157.936 84.8207C157.936 85.6933 157.45 86.5658 157.195 87.4262C156.394 86.9899 155.435 86.6991 154.803 86.0932C139.602 71.4782 124.449 56.8147 109.271 42.1755C108.931 41.8483 108.506 41.6059 108.118 41.3272C108.178 41.2303 108.251 41.1091 108.324 41C124.789 41 141.241 41 157.972 41Z" fill="black"/>
<path d="M105.055 92.3089C105.055 76.1863 105.055 60.3062 105.055 44.1836C105.541 44.5839 105.893 44.8387 106.209 45.142C121.461 59.8695 136.713 74.5971 151.953 89.3246C152.184 89.543 152.487 89.7371 152.621 90.0039C152.876 90.5013 153.313 91.1322 153.167 91.5325C153.034 91.9086 152.269 92.0784 151.759 92.2847C151.577 92.3574 151.334 92.3089 151.115 92.3089C136.167 92.3089 121.23 92.3089 106.282 92.3089C105.93 92.3089 105.565 92.3089 105.055 92.3089Z" fill="black"/>
<path d="M117.795 117.901C116.692 117.901 115.614 117.926 114.536 117.877C114.365 117.865 114.144 117.632 114.034 117.448C112.282 114.533 110.543 111.593 108.804 108.665C108.693 108.481 108.571 108.298 108.363 107.979C108.363 111.36 108.363 114.594 108.363 117.865C107.236 117.865 106.17 117.865 105.067 117.865C105.067 112.83 105.067 107.82 105.067 102.736C106.207 102.736 107.334 102.724 108.473 102.761C108.62 102.761 108.804 103.03 108.902 103.214C110.616 106.105 112.319 109.008 114.022 111.911C114.132 112.095 114.255 112.279 114.487 112.463C114.487 109.241 114.487 106.019 114.487 102.773C115.639 102.773 116.692 102.773 117.795 102.773C117.795 107.783 117.795 112.818 117.795 117.901Z" fill="black"/>
<path d="M145.344 102.469C140.726 102.457 137.137 105.837 137.125 110.223C137.1 114.682 140.677 118.136 145.332 118.148C149.926 118.173 153.453 114.78 153.466 110.321C153.466 105.874 149.962 102.481 145.344 102.469ZM145.369 115.037C142.612 115.049 140.469 112.991 140.457 110.333C140.444 107.663 142.576 105.568 145.307 105.568C148.027 105.568 150.109 107.614 150.122 110.284C150.134 113.028 148.125 115.025 145.369 115.037Z" fill="black"/>
<path d="M179.313 102.984C177.292 102.69 175.209 102.8 173.151 102.727C173.053 102.727 172.967 102.751 172.869 102.776V117.794C174.842 117.794 176.777 117.928 178.7 117.769C182.816 117.414 185.095 115.233 185.462 111.289C185.842 106.965 184.09 103.67 179.313 102.984ZM182.142 110.468C182.081 113.016 180.672 114.425 177.953 114.719C177.39 114.78 176.826 114.78 176.201 114.817V105.813C177.671 105.826 179.092 105.887 180.378 106.634C181.861 107.479 182.179 108.913 182.142 110.468Z" fill="black"/>
<path d="M164.491 112.392C164.748 112.294 164.907 112.233 165.054 112.171C167.394 111.289 168.41 109.672 168.239 107.076C168.092 104.871 166.818 103.303 164.417 102.972C162.212 102.666 159.946 102.727 157.655 102.629V117.867H160.975V112.894C161.208 113.213 161.342 113.384 161.477 113.568C162.408 114.879 163.339 116.202 164.282 117.512C164.405 117.684 164.601 117.892 164.772 117.904C166.022 117.941 167.284 117.929 168.668 117.929C167.222 116.006 165.863 114.205 164.491 112.392ZM163.878 109.452C162.959 109.672 162.004 109.709 160.987 109.844V105.728C161.967 105.851 162.923 105.887 163.829 106.096C164.576 106.255 164.919 106.867 164.932 107.725C164.944 108.607 164.625 109.268 163.878 109.452Z" fill="black"/>
<path d="M210.512 112.392C210.819 112.282 211.027 112.208 211.235 112.122C213.416 111.253 214.481 109.525 214.285 107.161C214.089 104.846 212.901 103.327 210.537 102.996C208.295 102.678 205.992 102.739 203.702 102.629V117.88H206.985V112.845C208.148 114.487 209.202 115.957 210.243 117.451C210.476 117.782 210.708 117.941 211.137 117.929C212.08 117.892 213.011 117.916 213.955 117.916H214.69C213.244 116.006 211.909 114.229 210.512 112.392ZM209.9 109.452C208.981 109.672 208.026 109.709 206.997 109.844V105.728C207.977 105.851 208.932 105.887 209.851 106.096C210.61 106.267 210.941 106.855 210.953 107.725C210.966 108.607 210.647 109.268 209.9 109.452Z" fill="black"/>
<path d="M190.117 102.75C193.008 102.75 195.837 102.75 198.716 102.75C198.716 103.754 198.716 104.747 198.716 105.8C196.964 105.8 195.225 105.8 193.449 105.8C193.449 106.805 193.449 107.736 193.449 108.74C195.115 108.74 196.781 108.74 198.483 108.74C198.483 109.806 198.483 110.798 198.483 111.864C196.83 111.864 195.164 111.864 193.424 111.864C193.424 112.807 193.412 113.677 193.449 114.546C193.449 114.644 193.767 114.791 193.951 114.804C195.323 114.828 196.683 114.816 198.054 114.816C198.275 114.816 198.495 114.816 198.74 114.816C198.74 115.869 198.74 116.862 198.74 117.878C195.862 117.878 193.02 117.878 190.141 117.878C190.117 112.819 190.117 107.809 190.117 102.75Z" fill="black"/>
<path d="M122.499 106.426C123.528 106.426 124.544 106.426 125.635 106.426C125.635 106.683 125.635 106.916 125.635 107.161C125.671 109.243 125.647 111.326 125.745 113.396C125.818 114.915 126.725 115.503 128.219 115.184C128.893 115.037 129.383 114.67 129.53 113.984C129.653 113.408 129.763 112.82 129.775 112.232C129.812 110.542 129.787 108.851 129.787 107.149C129.787 106.928 129.787 106.708 129.787 106.438C130.878 106.438 131.919 106.438 133.009 106.438C133.009 110.235 133.009 114.021 133.009 117.855C132.029 117.855 131.061 117.855 130.057 117.855C130.032 117.683 130.008 117.487 129.983 117.316C129.371 117.561 128.783 117.904 128.134 118.026C124.973 118.651 122.866 117.23 122.536 113.972C122.303 111.497 122.499 108.974 122.499 106.426Z" fill="black"/>
</svg>
