<svg width="320" height="160" viewBox="0 0 320 160" fill="none" xmlns="http://www.w3.org/2000/svg">
<path d="M73.5 85.031L69 87.4523L91.5171 99.5874L114.034 87.4523L109.517 85.0195L106.822 86.47L108.643 87.4523L91.5114 96.6864L74.3794 87.4523L76.1555 86.4929L73.5 85.031Z" fill="url(#paint0_linear)"/>
<path d="M85.8977 78.3477L88.5817 79.7925L78.8051 85.0691L76.1096 83.6186L85.8977 78.3477Z" fill="url(#paint1_linear)"/>
<path d="M97.1591 78.3359L94.4694 79.7922L104.257 85.0688L106.953 83.6183L97.1591 78.3359Z" fill="url(#paint2_linear)"/>
<path d="M69 79.8234L91.5171 91.9585L114.034 79.8234L109.517 77.3906L106.822 78.8411L108.643 79.8234L91.5114 89.0575L74.3794 79.8234L76.1555 78.864L73.4943 77.3963L69 79.8234Z" fill="url(#paint3_linear)"/>
<path d="M91.5343 67.6758L106.907 75.9734L104.218 77.4239L91.5172 70.5882L91.5343 67.6758Z" fill="url(#paint4_linear)"/>
<path d="M91.5343 67.6758L76.1498 75.9734L78.8395 77.4239L91.5571 70.5711L91.5343 67.6758Z" fill="url(#paint5_linear)"/>
<path d="M91.5174 84.276L69.0002 72.1352L91.5174 60L114.035 72.1352L91.5174 84.276ZM91.5174 81.375L74.3854 72.1409L91.5174 62.9067L108.649 72.1409L91.5174 81.375Z" fill="url(#paint6_linear)"/>
<path d="M145.02 86.7369H142.725V85.155C142.131 86.3885 141.023 86.9482 139.681 86.9482C137.334 86.9482 136.175 85.2464 136.175 82.5281V77.3143H138.47V82.511C138.47 84.0358 139.064 84.9323 140.298 84.9323C141.36 84.9323 142.719 84.0529 142.719 81.386V77.3086H145.02V86.7369Z" fill="#18181B"/>
<path d="M147.447 86.7389V73.2617H149.743V86.7389H147.447Z" fill="#18181B"/>
<path d="M152.41 86.7378V72.6211H154.706V86.7378H152.41Z" fill="#18181B"/>
<path d="M158.766 82.9163C159.051 84.0299 160.056 84.8351 161.472 84.8351C162.832 84.8351 163.82 84.224 163.82 83.1733C163.82 82.408 163.26 81.8484 162.101 81.4372L160.422 80.8604C157.681 79.9467 157.212 78.2849 157.212 77.1885C157.212 74.8928 159.148 73.4766 161.535 73.4766C163.717 73.4766 165.264 74.6073 165.858 76.4632L163.848 77.3027C163.403 75.9778 162.489 75.6009 161.535 75.6009C160.473 75.6009 159.599 76.1206 159.599 77.1428C159.599 77.5882 159.725 78.2564 161.141 78.7703L162.82 79.3814C165.361 80.1866 166.155 81.7856 166.172 83.0705C166.172 85.5832 164.025 86.9252 161.512 86.9252C158.954 86.9252 156.944 85.4918 156.59 83.3788L158.766 82.9163Z" fill="#18181B"/>
<path d="M184.441 77.309V86.7487H182.146V85.321C181.477 86.3432 180.301 86.9485 178.919 86.9485C176.126 86.9485 174.299 84.7442 174.299 81.986C174.299 79.3191 176.052 77.0977 178.942 77.0977C180.21 77.0977 181.38 77.6173 182.146 78.6966V77.309H184.441ZM179.387 85.0298C180.952 85.0298 182.203 83.9676 182.203 82.1059C182.203 80.2785 181.026 79.0279 179.336 79.0279C177.6 79.0279 176.612 80.387 176.612 82.0088C176.612 83.682 177.668 85.0298 179.387 85.0298Z" fill="#18181B"/>
<path d="M220.435 84.6545V86.7389H212.12V73.1875H214.507V84.6545H220.435Z" fill="#18181B"/>
<path d="M231.171 77.309V86.7487H228.876V85.321C228.208 86.3432 227.031 86.9485 225.649 86.9485C222.851 86.9485 221.029 84.7442 221.029 81.986C221.029 79.3191 222.782 77.0977 225.672 77.0977C226.94 77.0977 228.111 77.6173 228.876 78.6966V77.309H231.171ZM226.117 85.0298C227.677 85.0298 228.933 83.9676 228.933 82.1059C228.933 80.2785 227.756 79.0279 226.066 79.0279C224.33 79.0279 223.342 80.387 223.342 82.0088C223.342 83.682 224.404 85.0298 226.117 85.0298Z" fill="#18181B"/>
<path d="M238.818 86.9502C237.442 86.9502 236.26 86.3563 235.592 85.3226V86.7389H233.296V73.2617H235.592V78.704C236.357 77.6247 237.527 77.105 238.795 77.105C241.685 77.105 243.438 79.3264 243.438 81.9933C243.438 84.7459 241.616 86.9502 238.818 86.9502ZM238.407 79.0238C236.705 79.0238 235.557 80.2744 235.557 82.1018C235.557 83.9635 236.791 85.0257 238.35 85.0257C240.069 85.0257 241.125 83.6837 241.125 81.999C241.131 80.3886 240.143 79.0238 238.407 79.0238Z" fill="#18181B"/>
<path d="M246.036 83.7373C246.282 84.6682 247.195 85.0965 248.046 85.0965C248.714 85.0965 249.463 84.8509 249.463 84.1085C249.463 83.6231 249.017 83.3433 248.44 83.1035L247.064 82.5838C245.18 81.87 244.7 80.8135 244.7 79.9512C244.7 78.198 246.19 77.1016 248.155 77.1016C249.348 77.1016 250.839 77.5127 251.456 79.2145L249.611 79.8827C249.366 79.1174 248.68 78.9118 248.178 78.9118C247.584 78.9118 246.944 79.2488 246.944 79.8998C246.944 80.4195 247.412 80.6879 247.932 80.8706L249.331 81.3731C251.341 82.0413 251.735 83.2577 251.735 84.08C251.735 85.9417 249.999 86.9467 248.046 86.9467C246.522 86.9467 244.786 86.3186 244.243 84.5083L246.036 83.7373Z" fill="#18181B"/>
<path d="M171.478 85.0301C170.81 85.0301 170.564 84.5846 170.564 84.0079V79.0624H173.379V77.3093H170.564V74.7852H168.794L168.383 77.2978H166.801V79.051H168.274V83.6767C168.274 86.2693 169.816 86.9374 171.392 86.9374C172.334 86.9374 173.048 86.6748 173.528 86.2522L172.694 84.7331C172.694 84.7331 172.043 85.0301 171.478 85.0301Z" fill="#18181B"/>
<path d="M127.477 73.2617V86.7389H129.864V80.874H132.331L134.307 78.8981H129.864V75.3632H135.683V73.2617H127.477Z" fill="#18181B"/>
<path d="M192.836 83.2475C192.487 84.3096 191.574 84.835 190.523 84.835C189.089 84.835 188.022 83.6815 188.022 81.9683C188.022 80.2494 189.089 79.1015 190.523 79.1015C191.631 79.1015 192.567 79.6326 192.836 80.6891H195.268C194.914 78.4676 193.001 77 190.529 77C187.776 77 185.732 79.0444 185.732 81.9683C185.732 84.8921 187.776 86.9365 190.529 86.9365C193.001 86.9365 194.931 85.4746 195.28 83.2475H192.836Z" fill="#18181B"/>
<path d="M204.857 86.7389L201.105 81.6335L204.383 77.5847V77.2992H201.841L198.883 80.9254V73.2617H196.593V86.7389H198.883V82.1703L202.19 86.7389H204.857Z" fill="#18181B"/>
<defs>
<linearGradient id="paint0_linear" x1="91.5186" y1="67.9474" x2="91.5186" y2="99.6159" gradientUnits="userSpaceOnUse">
<stop offset="0.4863" stop-color="#092D82"/>
<stop offset="0.6633" stop-color="#2C6AFA"/>
<stop offset="0.7976" stop-color="#2C6AFA"/>
<stop offset="1" stop-color="#6593FF"/>
</linearGradient>
<linearGradient id="paint1_linear" x1="80.3294" y1="85.8191" x2="84.6874" y2="76.9308" gradientUnits="userSpaceOnUse">
<stop stop-color="#092D82"/>
<stop offset="1" stop-color="#2C6AFA"/>
</linearGradient>
<linearGradient id="paint2_linear" x1="102.728" y1="85.8212" x2="98.3696" y2="76.9329" gradientUnits="userSpaceOnUse">
<stop stop-color="#092D82"/>
<stop offset="1" stop-color="#2C6AFA"/>
</linearGradient>
<linearGradient id="paint3_linear" x1="91.5186" y1="60.3146" x2="91.5186" y2="91.9831" gradientUnits="userSpaceOnUse">
<stop offset="0.4863" stop-color="#092D82"/>
<stop offset="0.6633" stop-color="#2C6AFA"/>
<stop offset="0.7976" stop-color="#2C6AFA"/>
<stop offset="1" stop-color="#6593FF"/>
</linearGradient>
<linearGradient id="paint4_linear" x1="103.171" y1="78.4736" x2="96.0579" y2="69.1409" gradientUnits="userSpaceOnUse">
<stop stop-color="#092D82"/>
<stop offset="1" stop-color="#2C6AFA"/>
</linearGradient>
<linearGradient id="paint5_linear" x1="79.884" y1="78.4789" x2="86.9973" y2="69.1462" gradientUnits="userSpaceOnUse">
<stop stop-color="#092D82"/>
<stop offset="1" stop-color="#2C6AFA"/>
</linearGradient>
<linearGradient id="paint6_linear" x1="91.5188" y1="60" x2="91.5188" y2="84.2752" gradientUnits="userSpaceOnUse">
<stop stop-color="#2C6AFA"/>
<stop offset="0.6416" stop-color="#2C6AFA"/>
<stop offset="1" stop-color="#6593FF"/>
</linearGradient>
</defs>
</svg>
