<svg width="320" height="160" viewBox="0 0 320 160" fill="none" xmlns="http://www.w3.org/2000/svg">
<path d="M161.38 84.9393C160.524 84.9393 160.153 84.5677 160.153 83.583V82.4496H156.081V84.5491C156.081 86.4629 158.256 87.6706 161.435 87.6706C164.949 87.6706 166.362 85.9984 166.641 84.6792C166.678 84.3633 166.715 83.8802 166.715 83.4529C166.715 82.8769 166.697 82.4496 166.622 81.8922C166.474 79.997 164.726 78.9937 163.164 78.362C160.933 77.4887 160.338 76.987 160.171 76.2067C160.097 75.9837 160.115 75.5006 160.171 75.2591C160.283 74.8689 160.803 74.5716 161.417 74.5716C162.105 74.5716 162.662 75.0361 162.662 75.6307V76.857H166.474V75.0175C166.474 72.6393 163.778 71.8961 161.454 71.9147C158.963 71.9147 156.918 72.695 156.49 74.6459C156.397 75.1104 156.341 75.705 156.341 76.3367C156.341 77.4701 156.509 78.4549 156.75 78.9008C157.011 79.3839 157.903 80.2943 160.171 81.3534C162.384 82.3753 162.514 82.7469 162.644 83.2299C162.681 83.3414 162.7 83.4715 162.7 83.6015C162.718 84.3447 162.123 84.9393 161.38 84.9393ZM191.814 72.3978H187.073V87.1875H190.866L190.643 78.0833H190.921L195.123 87.1875H199.641V72.3978H195.848L196.071 81.502H195.792L191.814 72.3978ZM182.016 83.8245V72.3978H177.703V83.9174C177.703 84.4376 177.201 84.8836 176.606 84.8836C176.011 84.8836 175.509 84.4562 175.509 83.9174V72.3978H171.196V83.8245C171.196 85.9612 173.631 87.6706 176.606 87.6706C179.581 87.6892 182.016 85.9612 182.016 83.8245ZM143.569 80.5544H143.234L141.877 72.4163H135.426L135.128 87.2061H138.921V75.8351H139.293L141.505 87.2061H145.354L147.566 75.8351H147.938V87.2061H151.731L151.415 72.4163H144.777L143.569 80.5544ZM125.517 75.7236L127.115 87.2061H131.299L128.584 72.3978H122.152L119.437 87.1875H123.62L125.238 75.7236H125.517ZM155.895 58.8157C196.908 51.5881 231.841 55.2298 233.905 66.9538C234.946 72.8808 227.379 79.7555 214.31 86.017C214.737 85.4967 214.979 84.8464 214.979 84.1961V79.0308H209.903V81.0375H210.889V83.936C210.889 84.4562 210.387 84.9021 209.792 84.9021C209.197 84.9021 208.695 84.4748 208.695 83.936V75.4635C208.695 74.9432 209.197 74.5159 209.792 74.5159C210.387 74.5159 210.889 74.9432 210.889 75.4635V76.857H214.979V75.8537C214.979 73.271 213.529 71.8961 209.792 71.8961C206.129 71.8961 204.846 73.7355 204.846 75.6679V84.1589C204.846 86.1099 207.059 87.6706 209.792 87.6706C210.089 87.6706 210.387 87.652 210.666 87.6148V87.6706C198.246 93.1145 181.774 97.9825 163.387 101.234C122.356 108.48 87.4227 104.839 85.359 93.1145C84.2993 87.076 92.1635 80.0713 105.642 73.7169C105.568 73.9213 105.456 74.2929 105.419 74.553C105.345 75.0175 105.289 75.6121 105.289 76.2438C105.289 77.3772 105.456 78.362 105.698 78.8079C105.94 79.291 106.721 80.3129 108.933 81.3534C111.108 82.3753 111.22 82.7469 111.35 83.2299C111.387 83.3414 111.406 83.4715 111.406 83.6015C111.406 84.3447 110.829 84.9579 110.104 84.9579C109.268 84.9579 108.914 84.5863 108.914 83.6015V82.4682H104.954V84.5677C104.954 86.4815 107.092 87.6892 110.179 87.6892C113.618 87.6892 114.994 86.017 115.254 84.6978C115.291 84.3819 115.328 83.8988 115.328 83.4715C115.328 82.8955 115.31 82.4682 115.236 81.9108C115.087 80.0156 113.376 79.0123 111.852 78.3805C109.677 77.5073 109.1 77.0056 108.933 76.2253C108.859 76.0023 108.877 75.5192 108.933 75.2777C109.045 74.8875 109.547 74.5902 110.141 74.5902C110.811 74.5902 111.35 75.0547 111.35 75.6493V76.8756H115.068V75.0361C115.068 72.6579 112.447 71.9147 110.179 71.9333C110.086 71.9333 109.714 71.9518 109.621 71.9518C121.891 66.6751 137.991 61.9743 155.895 58.8157Z" fill="#034EA2"/>
</svg>
