<svg width="320" height="160" viewBox="0 0 320 160" fill="none" xmlns="http://www.w3.org/2000/svg">
<path d="M177.778 98.4298C169.37 104.595 157.186 107.893 146.68 107.893C131.963 107.893 118.722 102.477 108.693 93.4605C107.912 92.7547 108.606 91.7896 109.561 92.337C120.371 98.6027 133.757 102.362 147.562 102.362C156.882 102.362 167.127 100.446 176.548 96.4565C177.981 95.8659 179.167 97.3928 177.778 98.4298Z" fill="#FF9901"/>
<path d="M181.267 94.4396C180.196 93.0713 174.162 93.7915 171.456 94.1083C170.631 94.2092 170.5 93.489 171.253 92.9848C176.057 89.6143 183.944 90.5938 184.87 91.7173C185.796 92.8552 184.624 100.72 180.109 104.479C179.415 105.055 178.749 104.753 179.067 103.989C180.08 101.469 182.352 95.8224 181.267 94.4396Z" fill="#FF9901"/>
<path d="M171.643 69.2196V65.9499C171.643 65.4602 172.019 65.1289 172.468 65.1289H187.185C187.662 65.1289 188.039 65.4746 188.039 65.9499V68.7587C188.039 69.234 187.633 69.839 186.924 70.8184L179.312 81.6502C182.149 81.5782 185.144 81.9959 187.706 83.4363C188.285 83.7675 188.444 84.2429 188.487 84.7038V88.1895C188.487 88.6649 187.952 89.2266 187.402 88.9385C182.872 86.5763 176.852 86.317 171.845 88.9674C171.339 89.241 170.803 88.6937 170.803 88.2184V84.9055C170.803 84.3725 170.803 83.4651 171.339 82.6584L180.181 70.0406H172.497C172.019 70.0406 171.643 69.7093 171.643 69.2196Z" fill="black"/>
<path d="M117.941 89.6441H113.469C113.035 89.6153 112.702 89.2984 112.673 88.8807V66.0073C112.673 65.5464 113.064 65.1863 113.541 65.1863H117.724C118.158 65.2007 118.505 65.532 118.534 65.9497V68.9457H118.621C119.706 66.0505 121.761 64.7109 124.511 64.7109C127.318 64.7109 129.069 66.0649 130.328 68.9457C131.413 66.0505 133.873 64.7109 136.507 64.7109C138.388 64.7109 140.443 65.4887 141.688 67.2172C143.106 69.1473 142.817 71.9417 142.817 74.3904V88.8231C142.817 89.284 142.426 89.6441 141.948 89.6441H137.477C137.028 89.6153 136.666 89.2552 136.666 88.8231V76.695C136.666 75.7299 136.753 73.3245 136.536 72.4026C136.203 70.8614 135.205 70.4293 133.902 70.4293C132.817 70.4293 131.688 71.1495 131.225 72.3018C130.762 73.4541 130.806 75.3842 130.806 76.6806V88.8087C130.806 89.2696 130.415 89.6297 129.937 89.6297H125.48C125.032 89.6009 124.67 89.2408 124.67 88.8087V76.6806C124.67 74.1311 125.089 70.3717 121.906 70.3717C118.693 70.3717 118.809 74.0303 118.809 76.6806V88.8087C118.809 89.2696 118.418 89.6441 117.941 89.6441Z" fill="black"/>
<path d="M200.73 64.6953C194.246 64.6953 190.643 70.2264 190.643 77.3563C190.643 84.4286 194.189 90.1182 200.73 90.1182C206.996 90.1182 210.975 84.5871 210.975 77.6012C210.961 70.3849 207.372 64.6953 200.73 64.6953ZM200.73 85.4081C197.213 85.4081 197.256 79.4449 197.256 76.6361C197.256 73.8418 197.459 69.3766 200.759 69.3766C202.177 69.3766 203.19 69.9959 203.682 71.5948C204.261 73.4241 204.347 75.7287 204.347 77.6588C204.362 80.5828 204.188 85.4081 200.73 85.4081Z" fill="black"/>
<path d="M219.585 89.6429H215.128C214.68 89.614 214.318 89.254 214.318 88.8218V65.934C214.361 65.5163 214.723 65.185 215.186 65.185H219.339C219.73 65.1994 220.049 65.4731 220.135 65.8188V69.319H220.222C221.481 66.1933 223.232 64.6953 226.329 64.6953C228.34 64.6953 230.294 65.4155 231.553 67.3888C232.725 69.2181 232.725 72.3006 232.725 74.5044V88.9083C232.682 89.3116 232.306 89.6285 231.857 89.6285H227.371C226.966 89.5996 226.618 89.2972 226.575 88.9083V76.4921C226.575 73.9858 226.864 70.3272 223.768 70.3272C222.682 70.3272 221.669 71.0474 221.177 72.1565C220.541 73.5537 220.468 74.9509 220.468 76.4921V88.8074C220.454 89.2684 220.063 89.6429 219.585 89.6429Z" fill="black"/>
<path d="M167.881 85.4525C167.056 84.329 166.187 83.4072 166.187 81.3186V74.3759C166.187 71.4376 166.39 68.7296 164.219 66.7131C162.512 65.0566 159.661 64.4805 157.476 64.4805C153.221 64.4805 148.46 66.0649 147.462 71.3079C147.361 71.8697 147.766 72.1577 148.127 72.2442L152.469 72.7051C152.874 72.6907 153.178 72.2874 153.25 71.8841C153.627 70.0836 155.146 69.2049 156.854 69.2049C157.78 69.2049 158.822 69.5362 159.372 70.3573C160.008 71.2791 159.921 72.5322 159.921 73.5837V74.1599C157.331 74.448 153.93 74.6496 151.499 75.7155C148.692 76.9254 146.724 79.3885 146.724 83.0039C146.724 87.6419 149.647 89.9466 153.424 89.9466C156.608 89.9466 158.344 89.1976 160.804 86.7057C161.615 87.8724 161.89 88.4486 163.38 89.6729C163.713 89.8457 164.147 89.8313 164.436 89.5721V89.5865C165.334 88.7942 166.954 87.3827 167.866 86.6193C168.228 86.3312 168.17 85.8414 167.881 85.4525ZM159.068 83.436C158.359 84.6891 157.215 85.4669 155.971 85.4669C154.249 85.4669 153.25 84.1706 153.25 82.2405C153.25 78.4378 156.665 77.7465 159.907 77.7465V78.7115C159.907 80.4544 159.95 81.8948 159.068 83.436Z" fill="black"/>
<path d="M109.171 85.4525C108.346 84.329 107.478 83.4072 107.478 81.3186V74.3759C107.478 71.4376 107.681 68.7296 105.51 66.7131C103.788 65.0566 100.952 64.4805 98.7665 64.4805C94.512 64.4805 89.751 66.0649 88.7525 71.3079C88.6512 71.8697 89.0564 72.1577 89.4182 72.2442L93.7595 72.7051C94.1647 72.6907 94.4541 72.2874 94.5265 71.8841C94.9027 70.0836 96.4222 69.2049 98.1298 69.2049C99.0559 69.2049 100.098 69.5362 100.648 70.3573C101.27 71.2791 101.183 72.5322 101.183 73.5837V74.1599C98.6073 74.4624 95.2066 74.664 92.7755 75.7155C89.9681 76.9254 88 79.3885 88 83.0039C88 87.6419 90.9376 89.9466 94.7001 89.9466C97.8838 89.9466 99.6203 89.1976 102.08 86.7057C102.905 87.8724 103.166 88.4486 104.656 89.6729C104.989 89.8457 105.423 89.8313 105.713 89.5721L105.727 89.5865C106.624 88.7942 108.245 87.3827 109.157 86.6193C109.519 86.3312 109.461 85.8414 109.171 85.4525ZM100.358 83.436C99.6492 84.6891 98.5205 85.4669 97.2615 85.4669C95.5395 85.4669 94.5409 84.1706 94.5409 82.2405C94.5409 78.4378 97.9561 77.7465 101.198 77.7465V78.7115C101.198 80.4544 101.241 81.8948 100.358 83.436Z" fill="black"/>
</svg>
