<svg width="320" height="160" viewBox="0 0 320 160" fill="none" xmlns="http://www.w3.org/2000/svg">
<path d="M133.346 90.6334L135.194 86.3914C137.192 87.8643 139.845 88.6303 142.469 88.6303C144.407 88.6303 145.629 87.8938 145.629 86.7744C145.6 83.6518 134.032 86.0968 133.942 78.2608C133.912 74.2839 137.49 71.2202 142.558 71.2202C145.57 71.2202 148.581 71.9567 150.728 73.6358L148.998 77.9662C147.031 76.729 144.586 75.8452 142.26 75.8452C140.68 75.8452 139.637 76.5817 139.637 77.5244C139.666 80.5881 151.324 78.9089 151.443 86.3914C151.443 90.4567 147.955 93.3142 142.946 93.3142C139.279 93.3142 135.91 92.4599 133.346 90.6334ZM204.275 84.8596C203.351 86.4503 201.621 87.5403 199.624 87.5403C196.672 87.5403 194.287 85.1836 194.287 82.2672C194.287 79.3508 196.672 76.9941 199.624 76.9941C201.621 76.9941 203.351 78.0841 204.275 79.6748L209.373 76.8763C207.465 73.518 203.798 71.2202 199.624 71.2202C193.452 71.2202 188.443 76.1693 188.443 82.2672C188.443 88.3651 193.452 93.3142 199.624 93.3142C203.828 93.3142 207.465 91.0459 209.373 87.6581L204.275 84.8596ZM154.007 62.0586H160.388V92.9018H154.007V62.0586ZM211.878 62.0586V92.9018H218.258V83.6518L225.831 92.9018H234L224.37 81.9137L233.285 71.6621H225.473L218.258 80.1756V62.0586H211.878ZM179.35 84.9185C178.426 86.4209 176.517 87.5403 174.371 87.5403C171.419 87.5403 169.034 85.1836 169.034 82.2672C169.034 79.3508 171.419 76.9941 174.371 76.9941C176.517 76.9941 178.426 78.1725 179.35 79.7043V84.9185ZM179.35 71.6621V74.1661C178.306 72.428 175.712 71.2202 172.999 71.2202C167.394 71.2202 162.982 76.1103 162.982 82.2377C162.982 88.3651 167.394 93.3142 172.999 93.3142C175.712 93.3142 178.306 92.1064 179.35 90.3683V92.8723H185.73V71.6621H179.35Z" fill="black"/>
<path d="M93.9009 84.8885C93.9009 87.039 92.1418 88.7771 89.9653 88.7771C87.7889 88.7771 86.0298 87.039 86.0298 84.8885C86.0298 82.7381 87.7889 81 89.9653 81H93.9009V84.8885ZM95.8686 84.8885C95.8686 82.7381 97.6277 81 99.8042 81C101.981 81 103.74 82.7381 103.74 84.8885V94.6099C103.74 96.7604 101.981 98.4984 99.8042 98.4984C97.6277 98.4984 95.8686 96.7604 95.8686 94.6099V84.8885Z" fill="#E01E5A"/>
<path d="M99.8042 69.2771C97.6277 69.2771 95.8687 67.539 95.8687 65.3885C95.8687 63.2381 97.6277 61.5 99.8042 61.5C101.981 61.5 103.74 63.2381 103.74 65.3885V69.2771H99.8042ZM99.8042 71.2508C101.981 71.2508 103.74 72.9889 103.74 75.1393C103.74 77.2898 101.981 79.0279 99.8042 79.0279H89.9355C87.7591 79.0279 86 77.2898 86 75.1393C86 72.9889 87.7591 71.2508 89.9355 71.2508H99.8042Z" fill="#36C5F0"/>
<path d="M115.576 75.1393C115.576 72.9889 117.335 71.2508 119.512 71.2508C121.688 71.2508 123.447 72.9889 123.447 75.1393C123.447 77.2898 121.688 79.0279 119.512 79.0279H115.576V75.1393ZM113.608 75.1393C113.608 77.2898 111.849 79.0279 109.673 79.0279C107.496 79.0279 105.737 77.2898 105.737 75.1393V65.3885C105.737 63.2381 107.496 61.5 109.673 61.5C111.849 61.5 113.608 63.2381 113.608 65.3885V75.1393Z" fill="#2EB67D"/>
<path d="M109.673 90.7213C111.849 90.7213 113.608 92.4594 113.608 94.6099C113.608 96.7604 111.849 98.4984 109.673 98.4984C107.496 98.4984 105.737 96.7604 105.737 94.6099V90.7213H109.673ZM109.673 88.7771C107.496 88.7771 105.737 87.039 105.737 84.8885C105.737 82.7381 107.496 81 109.673 81H119.541C121.718 81 123.477 82.7381 123.477 84.8885C123.477 87.039 121.718 88.7771 119.541 88.7771H109.673Z" fill="#ECB22E"/>
</svg>
