<svg width="320" height="160" viewBox="0 0 320 160" fill="none" xmlns="http://www.w3.org/2000/svg">
<path d="M113.108 59.8164C102.025 59.8164 93.0435 68.8911 93.0435 79.8564C93.0435 91.0107 102.025 100.085 113.108 100.085C124.383 100.085 133.173 91.0107 133.173 79.8564C133.364 68.8911 124.574 59.8164 113.108 59.8164ZM113.108 68.3239C122.281 68.3239 128.969 73.9956 131.835 79.8564C128.969 85.7171 122.281 91.5778 113.108 91.5778C103.936 91.5778 97.2475 85.7171 94.3811 79.8564C97.2475 74.1847 103.936 68.3239 113.108 68.3239ZM113.108 69.2692C107.184 69.2692 102.216 73.9956 102.216 79.8564C102.216 85.9062 106.993 90.6326 113.108 90.6326C119.223 90.6326 123.81 85.9062 123.81 79.8564C124.001 73.9956 119.223 69.2692 113.108 69.2692Z" fill="black"/>
<path d="M152.474 62.2734C141.964 62.2734 134.511 70.2138 134.511 79.8557V80.0447C134.511 89.8756 141.964 97.4379 152.091 97.4379C158.78 97.4379 162.602 95.1692 166.232 91.3881L161.455 86.6617C158.78 89.1194 156.296 90.6319 152.474 90.6319C146.55 90.6319 142.537 85.7164 142.537 79.8557C142.537 73.9949 146.741 69.2685 152.474 69.2685C155.913 69.2685 158.589 70.781 161.264 73.0496L166.041 67.378C162.984 64.3531 158.971 62.2734 152.474 62.2734Z" fill="black"/>
<path d="M169.29 62.8398V96.8699H185.533C193.177 96.8699 198.336 93.845 198.336 87.6062V87.4171C198.336 82.8798 195.852 80.6111 191.839 79.0987C194.323 77.7753 196.425 75.6957 196.425 71.7255C196.425 69.4568 195.661 67.5662 194.132 65.8647C192.221 63.9742 189.164 62.8398 185.151 62.8398H169.29ZM176.551 69.2678H184.004C187.253 69.2678 188.973 70.5911 188.973 72.6708V72.8598C188.973 75.3175 186.871 76.4519 183.431 76.4519H176.551V69.2678ZM176.551 82.6907H185.342C189.164 82.6907 190.883 84.2032 190.883 86.4719V86.6609C190.883 89.1186 188.781 90.253 185.533 90.253H176.551V82.6907Z" fill="black"/>
<path d="M213.241 62.2734C206.171 62.2734 201.203 66.4327 201.203 72.4825C201.203 79.2885 205.598 81.179 212.668 82.8806C218.401 84.393 219.547 85.3383 219.547 87.2288V87.4179C219.547 89.3085 217.637 90.6319 214.579 90.6319C210.566 90.6319 207.509 89.1194 204.26 86.4726L199.865 91.7662C204.069 95.3583 209.228 97.2488 214.388 97.2488C221.841 97.2488 227 93.4677 227 86.6617C227 80.8009 222.987 78.3432 216.108 76.4526C210.184 74.9402 208.655 74.184 208.655 71.9153C208.655 70.2138 210.184 68.8904 213.05 68.8904C215.917 68.8904 218.974 70.2138 222.032 72.2934L225.854 66.6217C222.414 63.7859 218.21 62.2734 213.241 62.2734Z" fill="black"/>
</svg>
