<svg width="320" height="160" viewBox="0 0 320 160" fill="none" xmlns="http://www.w3.org/2000/svg">
<path d="M182.786 66.5006C184.048 66.5006 185.198 66.3701 186.328 66.5193C189.21 66.9295 191.169 68.5703 191.942 71.3298C192.714 74.0334 191.979 76.4947 189.869 78.3592C188.381 79.6644 186.667 80.7272 185.028 81.8646C183.935 82.6291 183.822 82.8901 184.425 84.0648C186.403 88.0363 189.587 90.8331 193.392 92.996C194.466 93.6113 195.596 94.1147 196.614 94.786C199.552 96.7251 199.797 100.23 197.235 102.654C195.427 104.351 193.185 105.209 190.868 105.899C189.813 106.197 189.097 106.645 188.664 107.726C187.703 110.113 185.763 111.25 183.238 111.474C181.524 111.623 179.791 111.66 178.077 111.847C175.986 112.089 174.064 112.872 172.274 114.01C169.863 115.538 167.32 116.806 164.494 117.422C158.956 118.634 153.7 117.962 148.745 115.203C147.916 114.737 147.069 114.271 146.278 113.749C143.979 112.22 141.38 111.809 138.686 111.642C137.405 111.567 136.105 111.53 134.843 111.325C132.714 110.97 131.132 109.814 130.34 107.819C129.907 106.7 129.154 106.197 128.042 105.88C125.744 105.209 123.521 104.37 121.75 102.673C119.037 100.063 119.527 96.2403 122.88 94.5063C126.008 92.8841 129.078 91.1687 131.433 88.521C132.676 87.1226 133.656 85.5005 134.673 83.9342C135.219 83.0765 134.993 82.5918 134.089 81.9578C132.337 80.7086 130.435 79.6085 128.909 78.1168C125.48 74.8166 126.328 69.3348 130.435 67.2092C131.923 66.4447 133.505 66.2955 135.163 66.5193C135.483 66.5566 135.803 66.6125 136.143 66.6684C136.237 64.8785 136.312 63.1817 136.387 61.485C136.934 50.4282 145.091 43.2683 154.435 41.5156C160.369 40.3968 166.077 41.0494 171.427 43.9581C177.756 47.4076 181.543 52.647 182.428 59.8069C182.673 61.746 182.673 63.7038 182.786 65.6616C182.805 65.9599 182.786 66.2769 182.786 66.5006ZM140.72 66.4074C140.777 66.4074 140.664 66.4074 140.72 66.4074C140.739 68.1787 140.927 69.9314 140.909 71.7027C140.909 72.5418 140.57 72.8028 139.759 72.5604C138.686 72.2248 137.65 71.796 136.576 71.479C135.653 71.218 134.73 70.9569 133.788 70.8823C132.846 70.8078 131.998 71.162 131.565 72.0943C131.113 73.0639 131.15 74.0334 131.904 74.8352C132.469 75.4505 133.128 75.9912 133.825 76.476C135.332 77.5202 136.915 78.4524 138.403 79.5152C140.099 80.7272 140.306 81.4357 139.684 83.4308C138.592 86.8429 136.632 89.7144 134.089 92.2502C131.64 94.6927 128.758 96.4827 125.687 98.0489C124.406 98.7015 124.406 99.3728 125.65 100.119C125.857 100.249 126.083 100.38 126.309 100.454C127.873 101.032 129.417 101.666 131.019 102.132C132.902 102.673 134.372 103.456 134.409 105.694C134.428 106.514 135.031 106.924 135.803 107.055C136.105 107.092 136.406 107.111 136.708 107.148C138.968 107.39 141.248 107.54 143.489 107.894C146.202 108.341 148.425 109.926 150.742 111.269C155.414 113.935 160.35 114.345 165.398 112.592C167.132 111.996 168.752 110.989 170.353 110.057C172.557 108.77 174.874 107.838 177.436 107.577C179.245 107.39 181.053 107.278 182.843 107.129C184.161 107.017 184.614 106.663 184.727 105.339C184.858 103.941 185.48 102.99 186.855 102.58C187.213 102.468 187.59 102.356 187.948 102.226C189.643 101.61 191.358 101.051 193.015 100.324C193.543 100.1 193.901 99.4474 194.334 98.9999C193.92 98.6269 193.581 98.1608 193.091 97.9184C190.604 96.6319 188.231 95.1589 186.121 93.313C182.862 90.4602 180.413 87.0853 179.226 82.9087C178.811 81.4544 179.019 80.7458 180.262 79.8695C181.939 78.6948 183.69 77.6134 185.348 76.4201C186.064 75.898 186.799 75.32 187.326 74.6115C188.475 73.0079 187.42 70.9756 185.442 70.9196C184.858 70.901 184.237 70.9942 183.672 71.162C182.183 71.6095 180.714 72.1502 179.226 72.6164C178.453 72.8588 178.133 72.5977 178.133 71.796C178.133 71.4976 178.171 71.1993 178.171 70.901C178.171 67.6194 178.34 64.3191 178.095 61.0561C177.606 54.5675 174.064 50.018 168.224 47.2957C163.496 45.0955 158.504 44.8531 153.511 46.3075C147.502 48.0602 143.301 51.7893 141.493 57.8677C140.664 60.6273 140.683 63.5173 140.72 66.4074Z" fill="black"/>
</svg>
