<svg width="320" height="160" viewBox="0 0 320 160" fill="none" xmlns="http://www.w3.org/2000/svg">
<path d="M193.064 91.7818L193.659 95.2727H197.83V78.6909H185.319V83.6364H191.872C191.425 87.8545 189.042 90.1818 184.723 90.1818C178.766 90.1818 176.681 85.0909 176.681 80C176.681 74.6182 178.915 69.5273 184.723 69.5273C187.851 69.5273 190.234 71.2727 190.978 74.6182H197.234C196.638 67.7818 190.978 64 184.872 64C175.638 64 170.276 71.1273 170.276 80.1455C170.276 89.0182 175.638 96 184.872 96C187.702 96 190.681 94.8364 193.064 91.7818Z" fill="black"/>
<path d="M212.128 64.7266L200.809 95.272H207.511L209.894 88.4357H221.064L223.298 95.272H230L218.83 64.7266H212.128ZM215.404 72.2902L219.277 83.4902H211.532L215.404 72.2902Z" fill="black"/>
<path d="M165.957 64.7266L154.936 95.272H159.702L170.723 64.7266H165.957Z" fill="black"/>
<path d="M151.064 73.1629C151.064 68.5084 147.638 64.7266 142.277 64.7266H126.191V95.272H132.745V83.3447H139.298C142.574 83.3447 143.766 84.7993 144.213 87.9993C144.511 90.472 144.511 93.3811 145.255 95.272H151.808C150.617 93.5266 150.617 90.0357 150.617 87.9993C150.468 84.9447 149.425 81.7447 146.298 80.872V80.7266C149.574 79.4175 151.064 76.7993 151.064 73.1629ZM144.511 74.1811C144.511 77.2357 142.872 78.5447 140.042 78.5447H132.894V69.9629H140.042C142.872 69.9629 144.511 71.272 144.511 74.1811Z" fill="black"/>
<path d="M90 95.272H119.787V64.7266H90V95.272Z" fill="#E51837"/>
</svg>
