<svg width="256" height="128" viewBox="0 0 256 128" fill="none" xmlns="http://www.w3.org/2000/svg">
<g clip-path="url(#clip0_5301_12220)">
<path d="M56.9865 68.9503C56.9865 70.7356 57.3713 72.099 57.8844 72.9267C58.5418 74.0141 59.5359 74.4686 60.546 74.4686C61.8447 74.4686 63.0312 74.144 65.324 70.9304C67.1519 68.366 69.3165 64.7466 70.7755 62.4906L73.2447 58.6602C74.9603 55.9984 76.9325 53.0445 79.2093 51.0319C81.0371 49.4089 83.0253 48.5 85.0456 48.5C88.4287 48.5 91.6354 50.4801 94.1046 54.1969C96.7983 58.2707 98.1131 63.3995 98.1131 68.6906C98.1131 71.8393 97.5038 74.144 96.4616 75.978C95.4515 77.7471 93.4954 79.5162 90.1924 79.5162V74.4848C93.0143 74.4848 93.7198 71.8555 93.7198 68.8529C93.7198 64.5681 92.7257 59.8126 90.5612 56.4042C89.0219 53.9859 87.0177 52.5251 84.8211 52.5251C82.4321 52.5251 80.524 54.3429 78.3755 57.589C77.2371 59.3094 76.0506 61.4031 74.7359 63.7728L73.2768 66.3859C70.3586 71.6283 69.6211 72.8131 68.162 74.7932C65.5806 78.1853 63.4 79.5 60.53 79.5C57.1148 79.5 54.9662 78.0068 53.6354 75.7508C52.5291 73.9168 52 71.5147 52 68.7717L56.9865 68.9503Z" fill="#0081FB"/>
<path d="M55.9282 54.5539C58.205 50.9832 61.508 48.5 65.2759 48.5C67.4725 48.5 69.6371 49.1492 71.9139 51.0319C74.3991 53.077 77.0447 56.4691 80.3476 62.0361L81.5341 64.0325C84.3881 68.8529 86.0236 71.3361 86.9696 72.5047C88.1881 74.0141 89.054 74.4524 90.1603 74.4524C92.9822 74.4524 93.6877 71.823 93.6877 68.8204L98.081 68.6743C98.081 71.823 97.4717 74.1277 96.4295 75.9618C95.4194 77.7309 93.4632 79.5 90.1603 79.5C88.108 79.5 86.2962 79.0455 84.2759 77.1304C82.7367 75.6534 80.9248 73.0403 79.5299 70.6869L75.3932 63.6916C73.3248 60.1859 71.4168 57.5728 70.3105 56.388C69.124 55.122 67.6008 53.5801 65.1797 53.5801C63.2075 53.5801 61.54 54.9759 60.1451 57.1183L55.9282 54.5539Z" fill="url(#paint0_linear_5301_12220)"/>
<path d="M65.1958 53.5639C63.2236 53.5639 61.5561 54.9597 60.1612 57.1021C58.189 60.1209 56.9865 64.6168 56.9865 68.9503C56.9865 70.7356 57.3713 72.099 57.8844 72.9267L53.6354 75.7508C52.5291 73.9168 52 71.5147 52 68.7717C52 63.7728 53.3468 58.5791 55.9283 54.5539C58.2051 50.9995 61.508 48.5 65.2759 48.5L65.1958 53.5639Z" fill="url(#paint1_linear_5301_12220)"/>
<path d="M107.781 49.4739H113.537L123.35 67.4247L133.147 49.4739H138.791V78.9482H134.093V56.3718L125.499 72.0179H121.089L112.495 56.3718V78.9645H107.797V49.4739H107.781ZM153.493 60.4781C150.126 60.4781 148.09 63.0425 147.609 66.2236H159.041C158.817 62.9451 156.957 60.4781 153.493 60.4781ZM142.959 68.0252C142.959 61.3383 147.224 56.4692 153.59 56.4692C159.843 56.4692 163.579 61.2734 163.579 68.3823V69.6807H147.625C148.186 73.1378 150.463 75.4749 154.119 75.4749C157.037 75.4749 158.865 74.566 160.58 72.9268L163.082 76.0268C160.725 78.2179 157.742 79.4838 153.942 79.4838C147.064 79.4838 142.959 74.4037 142.959 68.0252ZM169.271 60.8838H164.942V56.9885H169.271V50.5613H173.808V57.0048H180.382V60.9001H173.808V70.7681C173.808 74.144 174.866 75.3289 177.496 75.3289C178.699 75.3289 179.372 75.2315 180.382 75.0529V78.8995C179.115 79.2566 177.913 79.4189 176.614 79.4189C171.724 79.4189 169.271 76.7084 169.271 71.2875V60.8838ZM199.462 64.6817C198.548 62.3608 196.528 60.6404 193.53 60.6404C189.65 60.6404 187.164 63.432 187.164 67.9603C187.164 72.3912 189.457 75.3126 193.337 75.3126C196.4 75.3126 198.58 73.5111 199.446 71.2713V64.6817H199.462ZM204 78.9482H199.542V75.8807C198.292 77.6823 196.031 79.4838 192.359 79.4838C186.459 79.4838 182.515 74.4849 182.515 67.9765C182.515 61.4032 186.555 56.4854 192.6 56.4854C195.598 56.4854 197.939 57.7027 199.526 59.8289V57.0048H204V78.9482Z" fill="#192830"/>
</g>
<defs>
<linearGradient id="paint0_linear_5301_12220" x1="61.9947" y1="63.1967" x2="93.7435" y2="64.7808" gradientUnits="userSpaceOnUse">
<stop stop-color="#0064E1"/>
<stop offset="0.4" stop-color="#0064E1"/>
<stop offset="0.83" stop-color="#0073EE"/>
<stop offset="1" stop-color="#0082FB"/>
</linearGradient>
<linearGradient id="paint1_linear_5301_12220" x1="58.642" y1="71.0602" x2="58.642" y2="59.212" gradientUnits="userSpaceOnUse">
<stop stop-color="#0082FB"/>
<stop offset="1" stop-color="#0064E0"/>
</linearGradient>
<clipPath id="clip0_5301_12220">
<rect width="152" height="31" fill="white" transform="translate(52 48.5)"/>
</clipPath>
</defs>
</svg>
