<svg width="320" height="160" viewBox="0 0 320 160" fill="none" xmlns="http://www.w3.org/2000/svg">
<path d="M177.751 88.7872C177.695 88.6533 177.562 88.5768 177.411 88.596L177.373 88.6151C176.958 88.7107 176.637 88.6725 176.41 88.5195C176.089 88.3091 175.938 87.8118 175.938 87.0467V79.989C175.938 77.2348 174.295 75.8386 171.046 75.8386C168.137 75.8386 165.87 77.2157 165.87 78.9753C165.87 79.8743 166.418 80.5246 167.23 80.6202C167.759 80.6776 168.269 80.4481 168.628 80.0655C169.346 79.3196 169.251 78.4207 168.382 77.4452C168.892 76.9097 169.799 76.5845 170.838 76.5845C172.519 76.5845 173.237 77.5791 173.237 79.9317V81.7104C172.84 81.8252 172.481 81.9399 171.801 82.1121C170.441 82.4372 168.552 82.858 167.154 83.6422C165.983 84.2734 165.398 85.2871 165.398 86.6451C165.398 88.1178 166.361 89.8392 169.081 89.8392C170.611 89.8392 171.971 89.1124 173.369 87.5631C173.482 89.1698 174.106 89.7818 175.579 89.7818C176.297 89.7818 176.863 89.6097 177.543 89.2845C177.732 89.1889 177.827 88.9785 177.751 88.7872ZM173.256 86.6259C172.916 87.085 171.839 88.4621 170.498 88.4621C168.685 88.4621 168.288 87.1806 168.288 86.1095C168.288 84.3499 169.629 83.5274 173.256 82.6476V86.6259ZM208.144 89.8774C204.29 89.8774 201.382 86.8554 201.382 82.858C201.382 78.9371 204.423 75.7429 208.144 75.7429C211.922 75.7429 214.887 78.8223 214.887 82.7432C214.887 87.1615 211.393 89.8774 208.144 89.8774ZM207.993 76.508C206.33 76.508 204.404 77.2157 204.404 82.8006C204.404 87.0658 205.669 89.1315 208.257 89.1315C210.732 89.1315 211.846 87.1806 211.846 82.8006C211.846 78.5737 210.581 76.508 207.993 76.508ZM148.492 76.0107C148.492 79.2622 147.699 81.041 143.6 81.041H141.428V71.2291H143.694C147.925 71.2291 148.492 73.639 148.492 76.0107ZM141.428 87.0467V81.9399H143.392C146.32 81.9399 148.568 81.3279 150.022 80.1038C151.552 78.8223 151.873 77.1966 151.873 76.0681C151.873 71.4012 147.359 70.4258 143.581 70.4258H143.6H135.931C135.761 70.4258 135.61 70.5597 135.61 70.7318V70.7509C135.61 70.9039 135.704 71.057 135.855 71.1143C136.535 71.363 138.386 71.0187 138.386 73.0079V87.0658C138.386 88.0795 137.933 88.8064 135.855 88.9976C135.685 89.0167 135.572 89.1506 135.572 89.3036V89.361C135.572 89.5332 135.704 89.667 135.893 89.667H144.091C144.261 89.667 144.412 89.5332 144.412 89.361V89.3036C144.412 89.1506 144.28 88.9976 144.11 88.9976C141.881 88.8064 141.428 88.1178 141.428 87.0467V81.9591V87.0467ZM158.107 75.7429C154.537 75.7429 151.628 78.9753 151.628 82.9345C151.628 86.9511 154.348 89.8583 158.107 89.8583C161.261 89.8583 162.791 87.9839 163.679 86.5686C163.773 86.4347 163.736 86.2434 163.584 86.1478L163.547 86.1095C163.414 86.0139 163.226 86.033 163.112 86.1669C161.96 87.6205 160.94 88.4621 159.183 88.4621C156.973 88.4621 154.593 86.932 154.593 82.6667V82.6285C154.593 82.4372 154.593 82.1886 154.593 81.9399H163.66C163.679 81.9399 163.698 81.9208 163.698 81.9017V81.8252C163.83 80.0655 163.32 78.4972 162.3 77.3878C161.318 76.3167 159.844 75.7429 158.107 75.7429ZM154.65 81.0601C154.952 78.1338 156.085 76.5271 157.88 76.5271C158.787 76.5271 159.448 76.7758 159.92 77.2922C160.562 77.9999 160.846 79.2622 160.732 81.0601H154.65ZM195.658 81.2131C193.184 80.5246 192.22 79.8169 192.22 78.7076C192.22 77.4452 193.221 76.5271 194.6 76.5271C196.225 76.5271 196.924 77.3113 198.643 80.1803L198.662 80.2186C198.662 80.2377 198.68 80.2377 198.68 80.2377H198.926C199.096 80.2377 199.247 80.1038 199.247 79.9317V75.7812C199.247 75.7621 199.228 75.7429 199.228 75.7429H198.907C198.813 75.7429 198.718 75.7812 198.662 75.8577L198.114 76.5271C197.415 76.1446 196.3 75.7429 195.167 75.7429C192.315 75.7429 190.331 77.5026 190.331 80.0082C190.331 82.3607 191.899 83.2597 194.6 83.9865C197.226 84.7133 198.17 85.4592 198.17 86.8363C198.17 88.3856 196.678 89.0741 195.601 89.0741C193.618 89.0741 192.787 88.3473 190.879 84.9428L190.86 84.9045C190.86 84.8854 190.841 84.8854 190.841 84.8854H190.596C190.426 84.8854 190.275 85.0193 190.275 85.1914V89.8201C190.275 89.8392 190.294 89.8583 190.331 89.8583H190.653C190.728 89.8583 190.823 89.8201 190.879 89.7627L191.748 88.902C192.768 89.5332 194.279 89.8583 195.261 89.8583C196.735 89.8583 197.963 89.3801 198.775 88.5003C199.512 87.7161 199.908 86.5877 199.908 85.3445C199.908 83.2023 198.756 82.0929 195.658 81.2131ZM180.66 88.003C180.66 88.7107 180.471 88.9402 179.338 89.0167C179.168 89.0359 179.036 89.1698 179.036 89.3228C179.036 89.4949 179.168 89.6288 179.357 89.6288H184.967C185.137 89.6288 185.269 89.4949 185.269 89.3228C185.269 89.1506 185.137 89.0167 184.967 89.0167C183.664 88.9594 183.342 88.749 183.342 88.003V79.7978C184.268 78.2676 184.929 77.4643 186.044 77.2157C185.987 77.407 185.949 77.6365 185.949 77.8277C185.949 78.8223 186.648 79.53 187.649 79.53C188.631 79.53 189.311 78.8414 189.311 77.8277C189.311 76.8905 188.726 75.7812 187.064 75.7812C185.704 75.7812 184.4 76.5654 183.286 78.4207V76.3167C183.286 76.1064 183.116 75.9342 182.889 75.9342L179.357 76.0298C179.187 76.0298 179.055 76.1637 179.055 76.3359V76.3741C179.055 76.5271 179.168 76.661 179.319 76.6801C180.49 76.8523 180.66 77.407 180.66 77.9808V88.003ZM219.458 75.9151C219.534 75.9151 219.61 75.9533 219.666 76.0107C219.723 76.0681 219.761 76.1446 219.761 76.2402L219.78 78.5737C219.78 78.5737 220.932 75.8195 224.672 75.8195H224.71C227.033 75.8195 228.374 77.3113 228.374 79.8934V87.9839C228.374 88.6916 228.563 88.9211 229.696 88.9976C229.866 89.0167 229.999 89.1506 229.999 89.3036C229.999 89.4758 229.866 89.6097 229.677 89.6097H224.634C224.464 89.6097 224.313 89.4758 224.313 89.3036C224.313 89.1315 224.445 88.9976 224.596 88.9785C225.522 88.902 225.654 88.6725 225.654 87.9648V80.6967C225.654 78.2868 224.974 77.3496 223.198 77.3496C222.008 77.3496 221.026 78.3824 220.422 79.2622C220.422 79.2622 220.12 79.6448 219.78 80.3907L219.817 88.003C219.817 88.7107 219.968 88.9402 220.856 89.0167C221.007 89.0359 221.14 89.1698 221.14 89.3228C221.14 89.4949 221.007 89.6479 220.818 89.6479H215.813C215.643 89.6479 215.492 89.514 215.492 89.3419C215.492 89.1698 215.624 89.0359 215.794 89.0359C216.927 88.9594 217.116 88.7298 217.116 88.0222V77.9999C217.116 77.4261 216.946 76.8523 215.775 76.6801C215.624 76.661 215.511 76.5271 215.511 76.3741V76.3359C215.511 76.1637 215.643 76.0298 215.813 76.0298L219.458 75.9151Z" fill="#3D3935"/>
<path d="M121.009 61.7062C129.887 66.7556 131.964 78.0976 125.769 89.5544C120.348 99.6341 108.485 103.938 99.6452 98.8116C90.824 93.6666 89.105 79.36 92.9018 71.1165C98.4174 59.1624 111.205 56.1213 121.009 61.7062Z" fill="#007FA3"/>
<path d="M120.801 70.3877C122.539 72.2429 123.086 75.0545 122.784 77.3688C122.444 80.0083 120.839 82.4374 118.194 84.044C116.097 85.3255 113.321 85.8419 110.601 85.861C110.582 86.3009 110.487 87.7737 110.45 88.0032C110.393 88.3474 110.261 88.5387 110.11 88.73C109.807 89.1125 109.316 89.3612 108.806 89.495C108.41 89.6098 108.013 89.648 107.73 89.648C107.692 89.648 107.635 89.648 107.597 89.648C107.295 89.6098 106.974 89.4759 106.766 89.2464C106.558 89.0169 106.445 88.73 106.426 88.4048L106.407 88.1179C106.351 87.8693 106.029 75.0737 106.086 75.3032C106.124 73.7731 108.598 73.5053 109.958 73.7731C111.3 74.0408 110.96 75.6857 110.922 77.694C110.922 77.694 110.865 80.3334 110.733 83.1259C112.452 83.0685 113.812 82.5712 115.077 81.9401C117.646 80.6586 119.006 78.7077 119.006 75.8387C119.006 72.9697 116.211 69.7374 111.016 69.7374C105.822 69.7374 103.612 71.038 101.118 73.1036C100.552 73.5627 100.117 74.0408 99.7016 74.3468C99.2861 74.6529 98.1905 74.7102 97.9072 73.9834C97.5483 73.1036 98.2094 72.1282 98.6061 71.6691C99.2105 70.9232 100.722 69.4313 102.384 68.5706C104.292 67.5761 106.615 66.505 109.864 66.4285C112.792 66.352 117.439 66.6006 120.782 70.3685L120.801 70.3877ZM109.581 91.5607C109.316 91.3503 109.014 91.1973 108.693 91.1399C108.598 91.1208 108.485 91.1017 108.372 91.1017C107.786 91.1017 107.219 91.4268 106.861 91.9432C106.558 92.3831 106.426 92.9187 106.502 93.4351C106.558 93.7603 106.672 94.0471 106.861 94.2575C107.068 94.4871 107.371 94.6783 107.767 94.7931C107.994 94.8505 108.221 94.8887 108.447 94.8887C108.938 94.8887 109.392 94.7357 109.751 94.4488C110.147 94.1237 110.374 93.6455 110.374 93.1291C110.374 92.5362 110.072 91.9432 109.581 91.5607Z" fill="white"/>
</svg>
