<svg width="320" height="160" viewBox="0 0 320 160" fill="none" xmlns="http://www.w3.org/2000/svg">
<path d="M116 79.5C116 103.524 135.476 123 159.5 123C183.524 123 203 103.524 203 79.5C203 55.4756 183.524 36 159.5 36C135.476 36 116 55.4756 116 79.5Z" fill="#0F75BD"/>
<path d="M184.534 63.5C184.534 62.4045 185.405 61.5337 186.5 61.5337C187.596 61.5337 188.466 62.4045 188.466 63.5C188.466 64.5955 187.596 65.4663 186.5 65.4663C185.405 65.4663 184.534 64.5955 184.534 63.5ZM186.5 66C187.876 66 189 64.8764 189 63.5C189 62.1236 187.876 61 186.5 61C185.124 61 184 62.1236 184 63.5C184 64.8764 185.124 66 186.5 66ZM186.275 62.0112C186.669 62.0112 186.837 62.0393 187.006 62.0955C187.511 62.264 187.567 62.6854 187.567 62.882C187.567 62.9101 187.567 62.9944 187.539 63.1067C187.511 63.2191 187.455 63.4157 187.202 63.5843C187.174 63.6123 187.146 63.6124 187.09 63.6685L187.736 64.8202H187.118L186.556 63.7528H186.163V64.8202H185.601V62.0112H186.275ZM186.444 63.3034C186.612 63.2753 186.809 63.2753 186.893 63.1348C186.949 63.0506 186.978 62.9944 186.978 62.882C186.978 62.7416 186.893 62.6292 186.753 62.5449C186.64 62.4888 186.5 62.4888 186.247 62.4888H186.079V63.3034H186.444Z" fill="white"/>
<path d="M169.613 85.0135C167.726 87.9391 165.924 90.7164 164.122 93.4936C163.443 94.5325 162.807 95.5713 162.065 96.5677C161.069 97.9457 159.627 98.3273 157.91 97.7761C156.532 97.3309 155.769 96.1437 155.705 94.5113C155.663 93.2604 156.002 92.1792 156.702 91.1404C159.436 87.1123 162.129 83.0418 164.843 79.0137C165.224 78.4413 165.267 78.0385 164.843 77.4237C162.447 73.8832 160.094 70.3216 157.783 66.7387C156.914 65.4031 157.104 63.9614 157.889 62.6258C158.631 61.375 159.776 60.8662 161.196 60.9934C162.447 61.1206 163.359 61.799 164.016 62.8166C165.754 65.5091 167.493 68.2227 169.21 70.9364C169.295 71.0848 169.401 71.212 169.591 71.4452C171.182 68.9435 172.708 66.5479 174.234 64.1522C174.658 63.495 175.04 62.7954 175.549 62.2442C176.842 60.8238 178.92 60.527 180.234 61.5234C181.867 62.753 182.397 65.0851 181.294 66.8235C179.662 69.3887 177.966 71.8904 176.291 74.4345C175.718 75.3249 175.21 76.2577 174.531 77.0845C173.853 77.9113 173.916 78.5049 174.51 79.3742C177.224 83.2962 179.831 87.2819 182.481 91.2464C183.223 92.3488 183.563 93.5148 183.435 94.8505C183.266 96.4617 182.46 97.4581 180.934 97.9033C179.386 98.3485 178.008 97.9669 177.096 96.6313C175.358 94.0661 173.683 91.4372 171.987 88.8507C171.288 87.5999 170.503 86.3915 169.613 85.0135Z" fill="white"/>
<path d="M143.473 72.8007C145.338 69.8114 147.098 66.9494 148.857 64.1085C149.112 63.6845 149.387 63.2817 149.642 62.8577C150.681 61.1405 152.377 60.5256 154.179 61.2041C155.557 61.7129 156.786 63.8753 156.256 65.4229C155.769 66.907 154.963 68.3062 154.136 69.6418C151.953 73.1399 149.663 76.5956 147.458 80.0725C147.225 80.4541 147.119 80.9841 147.119 81.4505C147.098 85.6906 147.119 89.9307 147.098 94.1707C147.098 96.4604 145.699 97.9656 143.6 98.0504C141.289 98.1352 139.762 96.5452 139.784 94.0859C139.805 89.9095 139.826 85.7542 139.805 81.5777C139.805 81.0477 139.614 80.4541 139.338 80.0088C136.667 75.7688 133.975 71.5499 131.282 67.331C130.01 65.3381 130.456 62.5397 132.215 61.4585C133.911 60.3984 136.074 60.9921 137.24 62.8577C139.19 65.9742 141.119 69.0906 143.049 72.2071C143.155 72.3555 143.239 72.4827 143.473 72.8007Z" fill="white"/>
</svg>
