<svg width="320" height="160" viewBox="0 0 320 160" fill="none" xmlns="http://www.w3.org/2000/svg">
<path d="M96.6937 89.2666V66.1875H63.9898V93.5056C63.9898 93.5056 66.937 90.868 70.9299 90.5854C76.6341 90.2086 79.0108 92.9404 84.4298 93.8825C91.0846 95.0129 95.4578 90.9622 96.4085 89.7376C96.6937 89.5492 96.6937 89.455 96.6937 89.2666Z" fill="#0784BD"/>
<path d="M67.1273 88.6058C68.2681 88.0406 69.2188 87.758 71.5005 87.5696C77.1096 87.287 79.2011 89.2652 84.4299 90.113C88.613 90.7724 90.8947 89.8304 92.701 88.7C93.6517 88.1348 93.3665 88.229 93.8418 87.8522C94.3172 87.4754 94.4122 87.287 94.3172 87.0044C94.3172 86.9102 94.2221 86.9102 94.0319 87.0044C93.9369 87.0986 93.6517 87.287 93.6517 87.287C89.4686 90.113 84.0496 88.5116 79.2962 87.0044C74.8279 85.5914 69.4089 86.2508 66.9371 87.9464C66.9371 87.9464 66.6519 88.1348 66.4618 88.4174C66.3667 88.5116 66.2716 88.9826 66.4618 88.8884C66.747 88.7942 66.9371 88.6058 67.1273 88.6058Z" fill="white"/>
<path d="M73.5921 81.4487L68.8387 75.3257V81.4487H66.7471V71.7461H68.7436L73.3069 77.6807V71.7461H75.3985V81.3545H73.5921V81.4487Z" fill="white"/>
<path d="M81.7681 81.5438C78.9161 81.5438 76.8245 79.3772 76.8245 76.5512C76.8245 73.8194 78.9161 71.5586 81.8632 71.5586C83.6695 71.5586 84.8104 72.1238 85.666 73.0658L84.335 74.6672C83.5745 74.0078 82.8139 73.5368 81.8632 73.5368C80.247 73.5368 79.0111 74.8556 79.0111 76.5512C79.0111 78.2468 80.152 79.5656 81.8632 79.5656C83.004 79.5656 83.6695 79.0946 84.4301 78.4352L85.7611 79.754C84.7153 80.8844 83.5745 81.5438 81.7681 81.5438Z" fill="white"/>
<path d="M87.092 81.4487V71.7461H89.2786V79.4705H94.1272V81.3545C94.1272 81.4487 87.092 81.4487 87.092 81.4487Z" fill="white"/>
<path d="M112.666 80.6944L105.535 71.4627V80.6944H102.303V66.1875H105.25L112.095 75.1365V66.1875H115.327V80.6944C115.423 80.6944 112.666 80.6944 112.666 80.6944Z" fill="black"/>
<path d="M128.162 80.9779C123.599 80.9779 120.366 77.5867 120.366 73.536C120.366 69.3912 123.694 66 128.162 66C132.725 66 135.958 69.3912 135.958 73.4418C136.053 77.5867 132.725 80.9779 128.162 80.9779ZM132.63 73.4418C132.63 70.9926 130.824 68.826 128.162 68.826C125.595 68.826 123.789 70.8984 123.789 73.3476C123.789 75.7969 125.595 77.9635 128.257 77.9635C130.824 77.9635 132.63 75.9853 132.63 73.4418Z" fill="black"/>
<path d="M149.458 80.6944L146.32 76.0786H143.848V80.6944H140.616V66.1875H147.366C150.788 66.1875 152.88 67.9773 152.88 70.9917C152.88 73.3467 151.644 74.8539 149.743 75.5134L153.355 80.6944H149.458ZM149.553 71.0859C149.553 69.6729 148.602 69.0135 146.986 69.0135H143.848V73.1583H147.081C148.602 73.2525 149.553 72.4047 149.553 71.0859Z" fill="black"/>
<path d="M173.605 80.7886H170.753L167.426 71.2743L164.098 80.7886H161.246L156.398 66.1875H159.82L162.862 76.0786L166.19 66.1875H168.947L172.274 76.0786L175.316 66.1875H178.739L173.605 80.7886Z" fill="black"/>
<path d="M182.542 80.6944V66.1875H193.57V69.0135H185.679V71.9337H192.619V74.7597H185.679V77.7742H193.665V80.6002C193.665 80.6944 182.542 80.6944 182.542 80.6944Z" fill="black"/>
<path d="M205.073 80.9779C200.51 80.9779 197.373 77.7751 197.373 73.536C197.373 69.3912 200.605 66 205.073 66C207.735 66 209.351 66.6594 210.872 67.9782L208.876 70.4274C207.735 69.4854 206.784 68.9202 205.073 68.9202C202.696 68.9202 200.89 70.9926 200.89 73.4418C200.89 76.0795 202.696 78.0577 205.358 78.0577C206.499 78.0577 207.545 77.7751 208.401 77.2099V75.0432H205.168V72.3114H211.538V78.6229C209.827 79.9417 207.83 80.9779 205.073 80.9779Z" fill="black"/>
<path d="M216.386 80.6944V66.1875H219.619V80.6944H216.386Z" fill="black"/>
<path d="M235.781 80.6948L234.164 77.3978H228.27L226.939 80.6948H223.612L229.886 66.0938H232.833L239.108 80.6948H235.781ZM231.312 69.8618L229.316 74.5718H233.214L231.312 69.8618Z" fill="black"/>
<path d="M253.273 80.6944L246.143 71.4627V80.6944H242.911V66.1875H245.858L252.703 75.1365V66.1875H255.935V80.6944C256.03 80.6944 253.273 80.6944 253.273 80.6944Z" fill="black"/>
<path d="M106.106 93.3173C103.919 93.3173 102.303 91.6217 102.303 89.5493C102.303 87.4769 103.919 85.7812 106.106 85.7812C107.532 85.7812 108.292 86.2523 108.958 86.9117L107.912 88.0421C107.342 87.5711 106.771 87.1943 106.011 87.1943C104.775 87.1943 103.919 88.2305 103.919 89.4551C103.919 90.6797 104.775 91.7159 106.011 91.7159C106.866 91.7159 107.342 91.3391 107.912 90.8681L108.958 91.9043C108.292 92.7521 107.437 93.3173 106.106 93.3173Z" fill="black"/>
<path d="M115.898 93.1284L114.282 90.7734H113.046V93.1284H111.43V85.875H114.757C116.468 85.875 117.514 86.817 117.514 88.23C117.514 89.3604 116.849 90.114 115.898 90.4908L117.704 93.1284H115.898ZM115.898 88.3242C115.898 87.6648 115.423 87.288 114.662 87.288H113.046V89.4546H114.662C115.423 89.4546 115.898 88.9836 115.898 88.3242Z" fill="black"/>
<path d="M123.123 93.3164C121.126 93.3164 119.986 92.186 119.986 90.1136V85.9688H121.602V90.1136C121.602 91.3382 122.172 91.9034 123.218 91.9034C124.169 91.9034 124.834 91.3382 124.834 90.1136V85.9688H126.45V90.1136C126.355 92.186 125.024 93.3164 123.123 93.3164Z" fill="black"/>
<path d="M129.113 93.1284V85.875H130.729V93.1284H129.113Z" fill="black"/>
<path d="M136.148 93.2231C135.007 93.2231 133.961 92.8463 133.01 92.0927L133.961 90.9623C134.627 91.5275 135.292 91.8101 136.148 91.8101C136.813 91.8101 137.193 91.5275 137.193 91.1507C137.193 90.7739 136.908 90.4913 135.672 90.2087C134.341 89.8319 133.391 89.4551 133.391 87.9479C133.391 86.6291 134.436 85.7812 135.958 85.7812C137.003 85.7812 137.954 86.1581 138.715 86.7233L137.859 87.9479C137.193 87.4769 136.528 87.1943 135.958 87.1943C135.292 87.1943 135.007 87.4769 135.007 87.8537C135.007 88.3247 135.292 88.5131 136.623 88.7957C138.144 89.1725 138.905 89.7377 138.905 90.9623C138.905 92.4695 137.764 93.2231 136.148 93.2231Z" fill="black"/>
<path d="M141.376 93.1284V85.875H146.89V87.288H142.898V88.7952H146.32V90.2082H142.898V91.7154H146.89V93.1284H141.376Z" fill="black"/>
<path d="M153.64 93.1284V85.875H155.256V91.7154H158.869V93.1284H153.64Z" fill="black"/>
<path d="M161.246 93.1284V85.875H162.862V93.1284H161.246Z" fill="black"/>
<path d="M170.848 93.1284L167.331 88.5126V93.1284H165.714V85.875H167.236L170.658 90.3966V85.875H172.274V93.1284H170.848Z" fill="black"/>
<path d="M175.031 93.1284V85.875H180.545V87.288H176.647V88.7952H180.07V90.2082H176.647V91.7154H180.64V93.1284H175.031Z" fill="black"/>
<path d="M185.774 89.5488C185.394 89.9256 184.823 90.2082 184.253 90.2082C183.683 90.2082 183.112 90.0198 182.732 89.5488C182.352 89.172 182.066 88.6068 182.066 88.0416C182.066 87.4764 182.257 86.9112 182.732 86.5344C183.112 86.1576 183.683 85.875 184.253 85.875C184.823 85.875 185.394 86.0634 185.774 86.5344C186.154 86.9112 186.44 87.4764 186.44 88.0416C186.44 88.6068 186.154 89.172 185.774 89.5488ZM182.922 86.7228C182.542 87.0996 182.352 87.4764 182.352 88.0416C182.352 88.5126 182.542 88.9836 182.922 89.3604C183.302 89.7372 183.683 89.9256 184.253 89.9256C184.728 89.9256 185.204 89.7372 185.584 89.3604C185.964 88.9836 186.154 88.5126 186.154 88.0416C186.154 87.5706 185.964 87.0996 185.584 86.7228C185.204 86.346 184.728 86.1576 184.253 86.1576C183.683 86.1576 183.207 86.346 182.922 86.7228ZM184.158 86.817C184.443 86.817 184.633 86.817 184.823 86.9112C185.109 87.0054 185.204 87.1938 185.204 87.4764C185.204 87.6648 185.109 87.8532 185.014 87.9474C184.919 88.0416 184.823 88.0416 184.633 88.0416C184.823 88.0416 184.919 88.1358 185.014 88.23C185.109 88.3242 185.109 88.5126 185.109 88.6068V88.7952C185.109 88.8894 185.109 88.8894 185.109 88.9836C185.109 89.0778 185.109 89.0778 185.109 89.0778H184.728V88.9836V88.7952C184.728 88.5126 184.633 88.3242 184.538 88.23C184.443 88.1358 184.253 88.1358 184.063 88.1358H183.778V89.0778H183.397V86.7228L184.158 86.817ZM184.633 87.1938C184.538 87.0996 184.348 87.0996 184.158 87.0996H183.778V87.9474H184.158C184.348 87.9474 184.443 87.9474 184.538 87.8532C184.728 87.759 184.823 87.6648 184.823 87.4764C184.823 87.3822 184.728 87.288 184.633 87.1938Z" fill="black"/>
</svg>
