<svg width="320" height="160" viewBox="0 0 320 160" fill="none" xmlns="http://www.w3.org/2000/svg">
<path d="M149.953 79.921L159.064 90.7794H153.145L144.635 80.6643V90.7794H139.289V69.1953H144.635V78.9652H144.689L151.454 69.1953H157.345L149.953 79.921ZM108.713 90.7794V73.7086H101.757V69.2219H121.068V73.7086H114.113V90.7794H108.713ZM122.187 90.7794V69.2219H137.979V73.5493H127.506V77.9564H137.488V81.9121H127.506V86.4785H138.143V90.8059H122.187V90.7794ZM240.127 79.2042H240.209C240.291 79.2042 240.373 79.1776 240.373 79.098C240.373 79.0183 240.318 78.9918 240.209 78.9918C240.154 78.9918 240.127 78.9918 240.127 78.9918V79.2042ZM240.1 79.6024H239.936V78.859C239.991 78.859 240.1 78.8325 240.236 78.8325C240.373 78.8325 240.455 78.859 240.482 78.8856C240.536 78.9121 240.564 78.9652 240.564 79.0449C240.564 79.1245 240.509 79.2042 240.4 79.2307C240.482 79.2573 240.509 79.3104 240.536 79.4166C240.564 79.5227 240.564 79.5758 240.591 79.6024H240.4C240.373 79.5758 240.373 79.5227 240.345 79.4166C240.318 79.3369 240.291 79.3104 240.182 79.3104H240.1V79.6024ZM239.664 79.2307C239.664 79.5493 239.909 79.8148 240.236 79.8148C240.564 79.8148 240.809 79.5493 240.809 79.2307C240.809 78.9121 240.564 78.6466 240.236 78.6466C239.909 78.6466 239.664 78.9121 239.664 79.2307ZM241 79.2307C241 79.6289 240.673 79.9741 240.236 79.9741C239.8 79.9741 239.473 79.6555 239.473 79.2307C239.473 78.8325 239.827 78.4873 240.264 78.4873C240.673 78.4873 241 78.8059 241 79.2307ZM164.573 90.9121C164.491 90.9121 164.437 90.9121 164.355 90.9121C163.646 90.9121 162.937 90.8059 162.337 90.6201C160.346 90.0626 159.145 88.682 159.145 86.9564V86.7971H159.964V86.9564C159.964 88.3104 160.918 89.3988 162.555 89.8767C163.128 90.036 163.755 90.1422 164.382 90.1422C164.437 90.1422 164.519 90.1422 164.573 90.1422C165.092 90.1422 165.664 90.0626 166.183 89.9033C167.71 89.4785 168.556 88.5227 168.556 87.3281C168.556 85.3635 166.455 85.098 164.219 84.8325H164.137C161.791 84.5404 159.336 84.2484 159.336 81.8059C159.336 80.2927 160.4 79.098 162.2 78.5935C162.746 78.4343 163.4 78.3546 164.137 78.3546C164.792 78.3546 165.446 78.4343 166.073 78.5935C167.983 79.1511 169.074 80.3192 169.074 81.8325V81.9918H168.256V81.8059C168.256 80.1865 166.564 79.5227 165.855 79.3369C164.628 79.0183 163.373 79.0449 162.419 79.3104C160.973 79.7086 160.155 80.6112 160.155 81.7528C160.155 83.3989 161.846 83.7174 164.273 84.0095C166.783 84.3015 169.347 84.6201 169.347 87.275C169.347 88.8679 168.256 90.0891 166.374 90.6466C165.801 90.8325 165.173 90.9121 164.573 90.9121ZM172.974 95.0006H172.101L174.011 90.6997L168.719 78.4608H169.592L174.447 89.7705L179.575 78.4608H180.448L172.974 95.0006ZM185.303 90.9121C185.221 90.9121 185.167 90.9121 185.085 90.9121C184.376 90.9121 183.666 90.8059 183.066 90.6201C181.075 90.0626 179.902 88.682 179.902 86.9564V86.7971H180.721V86.9564C180.721 88.3104 181.675 89.3988 183.312 89.8767C183.885 90.036 184.512 90.1422 185.167 90.1422C185.221 90.1422 185.276 90.1422 185.357 90.1422C185.876 90.1422 186.448 90.0626 186.967 89.9033C188.494 89.4785 189.34 88.5227 189.34 87.3281C189.34 85.3635 187.239 85.098 185.003 84.8325H184.921C182.548 84.5404 180.121 84.2484 180.121 81.8059C180.121 80.2927 181.184 79.098 182.984 78.5935C183.53 78.4343 184.185 78.3546 184.921 78.3546C185.576 78.3546 186.23 78.4343 186.858 78.5935C188.767 79.1511 189.858 80.3192 189.858 81.8325V81.9918H189.04V81.8059C189.04 80.1865 187.349 79.5227 186.639 79.3369C185.412 79.0183 184.157 79.0449 183.203 79.3104C181.757 79.7086 180.939 80.6112 180.939 81.7528C180.939 83.3989 182.63 83.7174 185.057 84.0095C187.567 84.3015 190.131 84.6201 190.131 87.275C190.131 88.8679 189.04 90.0891 187.158 90.6466C186.558 90.8325 185.93 90.9121 185.303 90.9121ZM195.286 90.859C192.558 90.859 192.04 89.3192 192.04 86.6378V79.2838H189.722V78.5139H192.04V76.0183H192.858V78.5139H196.268V79.2838H192.858V86.6378C192.858 89.3458 193.295 90.3546 196.268 90.036L196.431 90.0095L196.513 90.7794L196.35 90.8059C195.968 90.8325 195.613 90.859 195.286 90.859ZM196.841 84.036H207.614C207.342 81.1157 205.214 79.1776 202.241 79.1776C199.895 79.1776 198.068 80.3458 197.25 82.3635C197.031 82.8944 196.895 83.4519 196.841 84.036ZM202.241 90.8856C199.541 90.8856 197.441 89.5316 196.486 87.1688C196.186 86.4254 196.022 85.5493 196.022 84.6201C196.022 83.6909 196.186 82.8413 196.486 82.098C197.441 79.7351 199.541 78.3812 202.241 78.3812C203.987 78.3812 205.514 78.9652 206.66 80.0803C207.833 81.2219 208.46 82.8148 208.433 84.6201V84.7794H196.841C196.868 85.5227 197.004 86.2396 197.25 86.8767C198.068 88.921 199.895 90.0626 202.241 90.0626C204.505 90.0626 206.223 89.0272 207.096 87.1422L207.151 87.036H207.996L207.887 87.275C206.933 89.5847 204.887 90.8856 202.241 90.8856ZM228.317 90.8059H227.499V83.9564C227.471 82.39 227.062 81.1422 226.326 80.3723C225.617 79.6024 224.635 79.2307 223.407 79.2307H223.353C222.48 79.2307 221.252 79.4431 220.38 80.505C219.67 81.3546 219.316 82.5227 219.316 84.0891V90.8325H218.498V84.0891C218.498 82.4696 218.088 81.2219 217.325 80.3989C216.643 79.6555 215.634 79.2573 214.433 79.2573H214.379C213.506 79.2573 212.279 79.4696 211.406 80.5316C210.724 81.3015 210.369 82.4431 210.342 83.9033V90.8325H209.524V78.4873H210.342V80.6378C210.451 80.3989 210.615 80.213 210.751 80.0272C211.842 78.7528 213.315 78.4873 214.379 78.4873H214.433C215.879 78.4873 217.106 78.9652 217.952 79.8679C218.361 80.2927 218.716 80.9298 218.934 81.6201C219.125 80.9564 219.479 80.3989 219.779 80.0272C220.843 78.7528 222.343 78.4873 223.38 78.4873H223.434C224.88 78.4873 226.107 78.9652 226.926 79.8679C227.826 80.8502 228.29 82.2307 228.317 84.0095V90.8059ZM234.999 90.9121C234.918 90.9121 234.863 90.9121 234.781 90.9121C234.072 90.9121 233.363 90.8059 232.763 90.6201C230.772 90.0626 229.599 88.682 229.599 86.9564V86.7971H230.417V86.9564C230.417 88.3104 231.372 89.3988 233.008 89.8767C233.581 90.036 234.208 90.1422 234.863 90.1422C234.918 90.1422 234.972 90.1422 235.054 90.1422C235.599 90.1422 236.145 90.0626 236.663 89.9033C238.191 89.4785 239.036 88.5227 239.036 87.3281C239.036 85.3635 236.936 85.098 234.699 84.8325H234.618C232.245 84.5404 229.817 84.2484 229.817 81.8059C229.817 80.2927 230.881 79.098 232.681 78.5935C233.226 78.4343 233.881 78.3546 234.618 78.3546C235.272 78.3546 235.927 78.4343 236.554 78.5935C238.463 79.1511 239.554 80.3192 239.554 81.8325V81.9918H238.736V81.8059C238.736 80.1865 237.045 79.5227 236.336 79.3369C235.108 79.0183 233.854 79.0449 232.899 79.3104C231.454 79.7086 230.635 80.6112 230.635 81.7528C230.635 83.3989 232.326 83.7174 234.754 84.0095C237.263 84.3015 239.827 84.6201 239.827 87.275C239.827 88.8679 238.736 90.0891 236.854 90.6466C236.227 90.8325 235.599 90.9121 234.999 90.9121Z" fill="#002C58"/>
<path d="M84.1098 70.6797C82.4187 70.6797 81.2185 70.7593 80.5912 70.9452C80.5639 70.9452 80.5366 70.9452 80.5094 70.9717C79.4183 71.2107 78.7364 71.8213 78.5182 72.8567C78.2455 74.1576 79.8002 75.6974 79.8275 75.6974C79.9093 75.777 89.3467 83.5823 90.2195 84.3257C91.1469 85.0956 92.4016 85.4938 93.1108 85.2018C93.4108 85.0691 93.629 84.9363 93.7927 84.8036C93.5199 84.8832 93.2472 84.9363 92.9744 84.9363C92.3743 84.9363 91.8561 84.7505 91.3651 84.3788C89.5922 83.0248 87.5465 78.9629 87.2192 78.2195L87.0828 77.9275C86.5373 76.7062 85.7736 75.0337 86.21 72.8567C86.4282 71.8478 86.7555 71.1045 86.9192 70.7859C86.4282 70.7328 85.3099 70.6797 84.1098 70.6797Z" fill="#008CCF"/>
<path d="M84.4102 70.0973C85.5558 70.0973 86.6195 70.1504 87.1651 70.2035L87.4924 70.2301C88.8562 70.3628 90.7382 70.5487 92.4566 72.0088C93.2476 72.6726 93.7385 73.3363 93.9567 73.6283C94.475 72.8319 96.5752 69.5929 96.9298 68.1858C96.9298 68.1593 96.9298 68.1327 96.9571 68.1062C97.2844 67.0708 97.0662 66.1947 96.2752 65.5044C95.8933 65.1858 95.3205 65 94.5568 65C93.7658 65 93.0839 65.1858 93.0839 65.1858C92.9748 65.2124 81.3281 69.3009 80.237 69.6726C79.2278 70.0177 78.1368 70.8142 78.0277 71.6903C78.0004 71.9823 78.0004 72.2478 78.055 72.4602C78.2186 71.7434 78.7096 71 79.637 70.6283C80.8098 70.2035 82.8828 70.0973 84.4102 70.0973Z" fill="#F39800"/>
<path d="M87.7648 78.1949C88.2012 79.0179 90.0287 82.4427 91.0924 83.425C91.1197 83.4515 91.1197 83.4515 91.147 83.4781C91.3379 83.6905 91.9652 84.3542 92.9744 84.3542C93.2472 84.3542 93.52 84.3011 93.7927 84.2214C95.102 83.7967 95.6747 81.6993 95.6747 81.6993C95.702 81.5931 97.9386 69.7259 98.1568 68.6374C98.375 67.602 98.2114 66.3011 97.5022 65.7701C97.2567 65.5843 97.0113 65.4781 96.793 65.3984C97.3386 65.9029 97.775 66.6728 97.6113 67.6551C97.284 69.8321 94.6928 73.5754 94.2019 74.2391L94.0109 74.5046C93.1926 75.5931 92.0743 77.0799 89.9196 77.7701C88.9649 78.0887 88.1466 78.1683 87.7648 78.1949Z" fill="#002C58"/>
</svg>
