<svg width="320" height="160" viewBox="0 0 320 160" fill="none" xmlns="http://www.w3.org/2000/svg">
<path d="M102.544 71.6836C101.776 72.0454 101.176 72.6002 100.672 73.0584C98.5838 74.8915 97.8158 78.3648 98.0078 80.005C98.4878 83.7918 100.528 85.9385 103.456 87.0239C106.72 87.7716 109.144 87.2168 110.896 85.5043C112.048 84.4913 112.504 83.3818 112.912 82.3446H123.424C123.04 89.3153 117.28 95.3211 111.904 96.9854C105.904 98.9391 98.7998 98.2638 94.2638 93.0298C90.8558 88.6882 90.9998 84.4672 92.4878 80.2462C93.3998 77.1829 95.5358 74.7227 97.5278 73.372C98.9198 72.4554 100.624 71.6836 102.544 71.6836Z" fill="#06415D"/>
<path d="M122.512 70.9382C123.16 72.4095 123.568 74.3633 123.688 76.0275H112.744C111.904 73.4708 110.848 72.5543 109.768 71.5895C109.192 71.2035 108.544 70.7453 107.656 70.5282C103.816 69.6116 100 70.4317 96.736 72.5784C96.232 72.8919 95.656 73.4226 94.768 74.1703C91.096 77.8606 89.896 83.1429 90.64 88.5458C88.192 84.373 87.088 78.0536 88.912 73.1814C91.288 65.873 97.072 61.7726 104.776 61.0249C115.216 60.832 120.616 65.8489 122.512 70.9382Z" fill="#06415D"/>
<path d="M141.904 65.5847C140.2 64.1616 137.944 63.848 136.264 63.848C132.472 63.848 131.368 66.8389 131.368 70.1192C131.368 73.8578 133.216 76.8969 137.368 76.8969C139.984 76.8969 142.048 76.1975 143.896 75.2085L142.144 79.0918C140.176 79.5742 138.304 79.7431 136.456 79.7431C133.624 79.7431 131.248 79.2848 129.016 77.4035C126.88 75.6427 125.728 73.086 125.728 70.3363C125.728 67.8519 126.808 65.1988 128.752 63.5345C130.864 61.7737 134.32 60.4954 139.984 61.5325L140.68 61.7496L141.904 65.5847Z" fill="#06415D"/>
<path d="M149.656 76.3638C150.568 76.7256 152.776 76.8462 153.736 76.7739C155.56 76.6292 156.472 76.5327 157.792 75.2784H157.936L156.832 79.3788H143.824L143.656 79.3065C145.024 78.4623 144.688 76.9427 144.688 75.5438V65.4134C144.688 64.0144 144.976 62.4466 143.608 61.6507V61.5783H154.408C154.648 61.5783 155.104 61.5783 155.416 61.4336H155.512L156.184 65.3651H156.088C155.344 64.0868 153.088 64.2315 151.744 64.2315H149.704V68.549H152.608H153.64H153.784V71.0816C152.896 71.0575 151.984 71.0333 150.952 71.0333H149.704V76.3638H149.656Z" fill="#06415D"/>
<path d="M174.712 80.0078C173.728 80.0078 172.384 79.236 171.544 78.8501C169.48 77.837 168.952 76.9205 167.608 75.1838L162.28 68.2373H162.184V75.4009C162.184 76.9687 161.872 78.1988 163.072 79.3083H158.368C159.592 78.1988 159.448 77.0411 159.448 75.4733V66.1147C159.448 64.0163 159.16 63.2203 157.672 61.5802V61.5078H163.456V61.5802L171.976 72.4824V65.4635C171.976 63.8957 172.288 62.6897 171.088 61.5802V61.5078H175.768V61.5802C174.568 62.6897 174.712 63.968 174.712 65.5358V80.0078Z" fill="#06415D"/>
<path d="M183.544 76.292C184.672 76.8226 185.032 76.8467 186.472 76.7503C187.984 76.6297 190.024 76.4126 191.248 75.5201L189.376 79.3552H177.28V79.2828C178.648 78.4387 178.456 76.9191 178.456 75.5201V65.4139C178.456 64.0149 178.648 62.4471 177.28 61.627V61.5547H184.744V61.627C183.376 62.4712 183.568 64.0149 183.568 65.4621V76.292H183.544Z" fill="#06415D"/>
<path d="M198.808 66.114H198.784L196.96 71.4445H200.728L198.808 66.114ZM196.144 73.9771L195.472 75.8103C195.28 76.365 194.968 77.1851 194.968 77.764C194.968 78.5117 195.472 78.8735 195.976 79.2835V79.3559H190.288V79.2835C191.344 78.3429 191.704 77.5469 192.208 76.1721L196.048 65.3422C196.216 64.8116 196.648 63.7503 196.648 63.1714C196.648 62.4478 196.144 61.9413 195.592 61.6036V61.5312H202.384L207.64 75.4967C208.312 77.2333 208.456 77.8605 210.016 79.2835V79.3318V79.3559H201.952V79.2835C202.6 78.8735 202.768 78.4876 202.768 77.6193C202.768 77.161 202.72 77.0163 202.552 76.5821L201.64 73.953L196.144 73.9771Z" fill="#06415D"/>
<path d="M217.096 70.0931C221.608 70.262 221.608 67.1746 221.608 67.1746C221.344 65.6792 221.776 63.4843 216.928 64.0149H216.664V75.4719C216.664 76.8709 216.472 78.4387 217.84 79.2587V79.3311H210.376V79.2828C211.744 78.4387 211.552 76.895 211.552 75.496V65.4139C211.552 64.0149 211.744 62.4471 210.376 61.627V61.5547H218.92C220.288 61.5547 221.56 61.5788 222.808 62.23C224.44 63.0984 225.592 64.3285 225.544 66.4269C225.496 68.453 224.296 69.9967 222.208 70.6238L224.8 75.9784C225.544 77.2085 226.576 78.511 227.968 79.307L224.512 79.4758C222.64 79.5964 221.752 79.3311 220.792 77.6668L217.096 70.0931Z" fill="#06415D"/>
<path d="M127.336 88.3502C127.072 88.109 126.76 87.9642 126.424 87.9642C125.752 87.9642 125.296 88.6396 125.296 89.6044C125.296 90.5692 125.776 91.4375 126.544 91.4375C126.904 91.4375 127.264 91.2687 127.576 91.0275H127.6L127.36 91.7993C127.12 91.944 126.88 91.9923 126.616 91.9923C125.464 91.9923 124.768 91.124 124.768 89.7009C124.768 88.326 125.464 87.4336 126.472 87.4336C126.76 87.4336 127.072 87.506 127.36 87.6024V88.3502H127.336Z" fill="#06415D"/>
<path d="M128.488 91.3194L129.112 91.3918C129.424 91.44 129.76 91.2953 130.024 91.0059H130.048L129.832 91.8742H127.792V91.8501C128.032 91.7295 128.008 91.2471 128.008 90.9335V88.4492C128.008 88.1356 128.032 87.6532 127.792 87.5326V87.5085H129.352L129.592 87.4844H129.616V88.2562H129.544C129.4 88.015 129.184 87.9909 128.968 87.9909C128.8 87.9909 128.632 87.9909 128.464 88.0391V89.2692H129.04L129.256 89.221H129.28V89.9205H129.256C129.184 89.7275 128.968 89.7275 128.824 89.7275H128.464V91.3194H128.488Z" fill="#06415D"/>
<path d="M130.864 91.0293C130.864 91.3911 130.864 91.6564 131.128 91.8735V91.8976H130.264V91.8735C130.528 91.6806 130.528 91.4152 130.528 91.0293V88.3761C130.528 88.0143 130.528 87.749 130.264 87.5319V87.5078H130.984L131.056 87.6767L131.128 87.8214L132.904 90.8846V88.3761C132.904 88.0143 132.904 87.749 132.64 87.5319V87.5078H133.504V87.5319C133.24 87.7249 133.24 87.9902 133.24 88.3761V92.0906C132.904 91.9218 132.736 91.7047 132.52 91.3429L130.84 88.4485V91.0293H130.864Z" fill="#06415D"/>
<path d="M134.944 91.0307C134.944 91.4166 134.944 91.6578 135.208 91.8749V91.899H134.248V91.8749C134.488 91.7543 134.464 91.2719 134.464 90.9583V87.9916H134.032C133.816 87.9916 133.6 88.0639 133.456 88.2569H133.432L133.6 87.4609H133.624L133.816 87.5092H133.936H135.76L135.976 87.4609H136L135.856 88.2569H135.832C135.76 88.0157 135.568 87.9916 135.424 87.9916H134.992V91.0307H134.944Z" fill="#06415D"/>
<path d="M137.2 87.5319C137.848 87.5319 138.208 87.9902 138.208 88.5932C138.208 89.1721 137.824 89.6304 137.44 89.751L138.136 90.957C138.352 91.2946 138.64 91.6564 138.928 91.8735H138.472C138.208 91.8735 138.04 91.777 137.896 91.5358L137.296 90.5228L136.84 89.5821C137.224 89.5098 137.68 89.2444 137.68 88.6414C137.68 88.159 137.368 87.8937 137.056 87.9179C136.936 87.9179 136.84 87.942 136.72 87.9661V90.9328C136.72 91.2464 136.696 91.7288 136.936 91.8494V91.8735H136.024V91.8494C136.264 91.7288 136.24 91.2464 136.24 90.9328V88.4485C136.24 88.1349 136.264 87.6525 136.024 87.5319V87.5078L137.2 87.5319Z" fill="#06415D"/>
<path d="M140.776 90.2568L141.04 91.1975C141.16 91.6558 141.208 91.7281 140.968 91.8728V91.897H141.976V91.8728C141.688 91.6799 141.616 91.3181 141.496 90.9322L140.488 87.5312H139.72V87.5554C139.96 87.6518 139.864 87.9413 139.792 88.1825L138.976 90.9563C138.88 91.3422 138.784 91.704 138.496 91.897V91.9211H139.384V91.897C139.144 91.7764 139.192 91.5834 139.288 91.2216L139.552 90.2809H140.776V90.2568ZM140.632 89.7503H139.672L140.152 88.086L140.632 89.7503Z" fill="#06415D"/>
<path d="M143.56 91.4152C143.896 91.4394 144.184 91.2946 144.424 91.0052H144.448L144.184 91.8976H142.192V91.8735C142.432 91.7529 142.408 91.2705 142.408 90.957V88.4485C142.408 88.1349 142.432 87.6525 142.192 87.5319V87.5078H143.128V87.5319C142.888 87.6525 142.912 88.1591 142.912 88.4485V91.3429L143.56 91.4152Z" fill="#06415D"/>
<path d="M147.448 91.4152C147.784 91.4394 148.072 91.2946 148.312 91.0052H148.336L148.072 91.8976H146.08V91.8735C146.32 91.7529 146.296 91.2705 146.296 90.957V88.4485C146.296 88.1349 146.32 87.6525 146.08 87.5319V87.5078H147.016V87.5319C146.776 87.6525 146.8 88.1591 146.8 88.4485V91.3429L147.448 91.4152Z" fill="#06415D"/>
<path d="M150.352 87.4106C149.32 87.3864 148.528 88.4236 148.528 89.702C148.528 91.0527 149.344 91.9934 150.304 91.9934C151.264 91.9934 152.104 91.0044 152.104 89.6537C152.08 88.4718 151.36 87.4106 150.352 87.4106ZM150.304 87.893C151.072 87.893 151.528 88.8336 151.528 89.7984C151.528 90.7874 151.048 91.511 150.304 91.511C149.536 91.511 149.056 90.5462 149.056 89.6296C149.08 88.6407 149.56 87.893 150.304 87.893Z" fill="#06415D"/>
<path d="M154.504 90.2568L154.768 91.1975C154.888 91.6558 154.936 91.7281 154.696 91.8728V91.897H155.704V91.8728C155.416 91.6799 155.344 91.3181 155.224 90.9322L154.216 87.5312H153.448V87.5554C153.688 87.6518 153.592 87.9413 153.52 88.1825L152.704 90.9563C152.608 91.3422 152.512 91.704 152.224 91.897V91.9211H153.112V91.897C152.872 91.7764 152.92 91.5834 153.016 91.2216L153.28 90.2809H154.504V90.2568ZM154.36 89.7503H153.4L153.88 88.086L154.36 89.7503Z" fill="#06415D"/>
<path d="M156.472 91.0293C156.472 91.3911 156.472 91.6564 156.736 91.8735V91.8976H155.872V91.8735C156.136 91.6806 156.136 91.4152 156.136 91.0293V88.3761C156.136 88.0143 156.136 87.749 155.872 87.5319V87.5078H156.592L156.664 87.6767L156.736 87.8214L158.512 90.8846V88.3761C158.512 88.0143 158.512 87.749 158.248 87.5319V87.5078H159.112V87.5319C158.848 87.7249 158.848 87.9902 158.848 88.3761V92.0906C158.512 91.9218 158.344 91.7047 158.128 91.3429L156.448 88.4485V91.0293H156.472Z" fill="#06415D"/>
<path d="M162.88 90.2568L163.144 91.1975C163.264 91.6558 163.312 91.7281 163.072 91.8728V91.897H164.08V91.8728C163.792 91.6799 163.72 91.3181 163.6 90.9322L162.592 87.5312H161.824V87.5554C162.064 87.6518 161.968 87.9413 161.896 88.1825L161.08 90.9563C160.984 91.3422 160.888 91.704 160.6 91.897V91.9211H161.488V91.897C161.248 91.7764 161.296 91.5834 161.392 91.2216L161.656 90.2809H162.88V90.2568ZM162.76 89.7503H161.8L162.28 88.086L162.76 89.7503Z" fill="#06415D"/>
<path d="M164.488 90.9322C164.488 91.3181 164.512 91.6316 164.272 91.8728V91.897H165.448C166.528 91.897 167.272 90.9804 167.272 89.6779C167.272 88.3513 166.576 87.5312 165.472 87.5312H164.272V87.5554C164.512 87.6518 164.488 88.1342 164.488 88.4478V90.9322ZM164.968 88.086C165.112 88.0378 165.256 88.0136 165.4 88.0136C166.216 88.0136 166.696 88.5925 166.696 89.7503C166.696 90.908 166.048 91.4146 165.328 91.4146C165.208 91.4146 165.088 91.4146 164.968 91.3663V88.086Z" fill="#06415D"/>
<path d="M170.464 87.9413C170.512 87.7966 170.536 87.676 170.536 87.5312H171.376V87.5554C171.256 87.6036 171.232 87.7966 171.232 87.9413L171.544 91.1975C171.568 91.511 171.592 91.6799 171.784 91.8728V91.897H170.848V91.8728C171.016 91.8005 171.04 91.6075 171.04 91.3663L170.752 88.1825L169.672 91.9934C169.432 91.7522 169.36 91.5593 169.24 91.1975L168.304 88.2066L168.016 91.0528C167.968 91.4628 167.944 91.7522 168.184 91.897V91.9211H167.392V91.897C167.608 91.6558 167.632 91.3181 167.656 90.9804L167.944 88.2066C167.968 88.0136 168.016 87.7483 167.8 87.5795V87.5554H168.664C168.664 87.6518 168.712 87.7725 168.736 87.8448L169.648 90.7633L170.464 87.9413Z" fill="#06415D"/>
<path d="M172.192 88.4485C172.192 88.1349 172.216 87.6525 171.976 87.5319V87.5078H172.912V87.5319C172.672 87.6525 172.696 88.1591 172.696 88.4485V90.957C172.696 91.2464 172.672 91.7288 172.912 91.8735V91.8976H171.976V91.8735C172.216 91.7529 172.192 91.2705 172.192 90.957V88.4485Z" fill="#06415D"/>
<path d="M173.824 91.0293C173.824 91.3911 173.824 91.6564 174.088 91.8735V91.8976H173.224V91.8735C173.488 91.6806 173.488 91.4152 173.488 91.0293V88.3761C173.488 88.0143 173.488 87.749 173.224 87.5319V87.5078H173.944L174.016 87.6767L174.088 87.8214L175.864 90.8846V88.3761C175.864 88.0143 175.864 87.749 175.6 87.5319V87.5078H176.464V87.5319C176.2 87.7249 176.2 87.9902 176.2 88.3761V92.0906C175.864 91.9218 175.696 91.7047 175.48 91.3429L173.8 88.4485V91.0293H173.824Z" fill="#06415D"/>
<path d="M176.944 88.4485C176.944 88.1349 176.968 87.6525 176.728 87.5319V87.5078H177.664V87.5319C177.424 87.6525 177.448 88.1591 177.448 88.4485V90.957C177.448 91.2464 177.424 91.7288 177.664 91.8735V91.8976H176.728V91.8735C176.968 91.7529 176.944 91.2705 176.944 90.957V88.4485Z" fill="#06415D"/>
<path d="M179.92 88.3019C179.728 88.0366 179.44 87.8919 179.152 87.8919C178.864 87.8919 178.528 88.0366 178.528 88.4949C178.528 89.4114 180.208 89.3873 180.208 90.6174C180.208 91.3169 179.656 91.9923 178.912 91.9923C178.624 91.9923 178.312 91.944 178.048 91.7993L177.904 90.9792C178.192 91.3169 178.576 91.534 178.96 91.534C179.248 91.534 179.656 91.3169 179.656 90.8345C179.656 89.7974 177.976 89.9903 177.976 88.5914C177.976 87.7472 178.6 87.4336 179.2 87.4336C179.44 87.4336 179.68 87.4818 179.92 87.5783V88.3019Z" fill="#06415D"/>
<path d="M181.696 91.0307C181.696 91.4166 181.696 91.6578 181.96 91.8749V91.899H181V91.8749C181.24 91.7543 181.216 91.2719 181.216 90.9583V87.9916H180.784C180.568 87.9916 180.352 88.0639 180.208 88.2569H180.184L180.352 87.4609H180.376L180.568 87.5092H180.688H182.512L182.728 87.4609H182.752L182.608 88.2569H182.584C182.512 88.0157 182.32 87.9916 182.176 87.9916H181.744V91.0307H181.696Z" fill="#06415D"/>
<path d="M183.952 87.5319C184.6 87.5319 184.96 87.9902 184.96 88.5932C184.96 89.1721 184.576 89.6304 184.192 89.751L184.888 90.957C185.104 91.2946 185.392 91.6564 185.68 91.8735H185.224C184.96 91.8735 184.792 91.777 184.648 91.5358L184.048 90.5228L183.592 89.5821C183.976 89.5098 184.432 89.2444 184.432 88.6414C184.432 88.159 184.12 87.8937 183.808 87.9179C183.688 87.9179 183.592 87.942 183.472 87.9661V90.9328C183.472 91.2464 183.448 91.7288 183.688 91.8494V91.8735H182.752V91.8494C182.992 91.7288 182.968 91.2464 182.968 90.9328V88.4485C182.968 88.1349 182.992 87.6525 182.752 87.5319V87.5078L183.952 87.5319Z" fill="#06415D"/>
<path d="M187.528 90.2568L187.792 91.1975C187.912 91.6558 187.96 91.7281 187.72 91.8728V91.897H188.728V91.8728C188.44 91.6799 188.368 91.3181 188.248 90.9322L187.24 87.5312H186.472V87.5554C186.712 87.6518 186.616 87.9413 186.544 88.1825L185.728 90.9563C185.632 91.3422 185.536 91.704 185.248 91.897V91.9211H186.136V91.897C185.896 91.7764 185.944 91.5834 186.04 91.2216L186.304 90.2809H187.528V90.2568ZM187.408 89.7503H186.448L186.928 88.086L187.408 89.7503Z" fill="#06415D"/>
<path d="M190.072 91.0307C190.072 91.4166 190.072 91.6578 190.336 91.8749V91.899H189.376V91.8749C189.616 91.7543 189.592 91.2719 189.592 90.9583V87.9916H189.16C188.944 87.9916 188.728 88.0639 188.584 88.2569H188.56L188.728 87.4609H188.752L188.944 87.5092H189.064H190.888L191.104 87.4609H191.128L190.984 88.2569H190.96C190.888 88.0157 190.696 87.9916 190.552 87.9916H190.12V91.0307H190.072Z" fill="#06415D"/>
<path d="M191.368 88.4485C191.368 88.1349 191.392 87.6525 191.152 87.5319V87.5078H192.088V87.5319C191.848 87.6525 191.872 88.1591 191.872 88.4485V90.957C191.872 91.2464 191.848 91.7288 192.088 91.8735V91.8976H191.152V91.8735C191.392 91.7529 191.368 91.2705 191.368 90.957V88.4485Z" fill="#06415D"/>
<path d="M194.176 87.4106C193.144 87.3864 192.352 88.4236 192.352 89.702C192.352 91.0527 193.168 91.9934 194.128 91.9934C195.088 91.9934 195.928 91.0044 195.928 89.6537C195.928 88.4718 195.208 87.4106 194.176 87.4106ZM194.152 87.893C194.92 87.893 195.376 88.8336 195.376 89.7984C195.376 90.7874 194.896 91.511 194.152 91.511C193.384 91.511 192.904 90.5462 192.904 89.6296C192.904 88.6407 193.408 87.893 194.152 87.893Z" fill="#06415D"/>
<path d="M196.816 91.0293C196.816 91.3911 196.816 91.6564 197.08 91.8735V91.8976H196.216V91.8735C196.48 91.6806 196.48 91.4152 196.48 91.0293V88.3761C196.48 88.0143 196.48 87.749 196.216 87.5319V87.5078H196.936L197.008 87.6767L197.08 87.8214L198.856 90.8846V88.3761C198.856 88.0143 198.856 87.749 198.592 87.5319V87.5078H199.456V87.5319C199.192 87.7249 199.192 87.9902 199.192 88.3761V92.0906C198.856 91.9218 198.688 91.7047 198.472 91.3429L196.792 88.4485V91.0293H196.816Z" fill="#06415D"/>
<path d="M203.08 90.9565C202.912 91.27 202.672 91.5353 202.36 91.5353C201.976 91.5353 201.688 91.2218 201.688 90.667C201.688 90.257 201.88 89.9193 202.12 89.6781L203.08 90.9565ZM204.856 91.873C203.944 91.27 203.224 90.257 202.504 89.2922C202.72 89.0269 202.936 88.7374 202.936 88.3033C202.936 87.7485 202.624 87.3867 202.24 87.3867C201.856 87.3867 201.472 87.7485 201.472 88.3033C201.472 88.6651 201.688 88.9786 201.856 89.244C201.496 89.6299 201.184 90.0158 201.184 90.667C201.184 91.4871 201.736 91.9454 202.288 91.9454C202.744 91.9454 203.056 91.7042 203.296 91.1735C203.44 91.3665 203.704 91.6318 203.872 91.7524C204.016 91.8489 204.16 91.8489 204.328 91.8489H204.856V91.873ZM202.216 88.9304C202.096 88.7616 201.88 88.4962 201.88 88.2309C201.88 87.9897 202.024 87.845 202.192 87.845C202.384 87.845 202.528 87.9897 202.528 88.255C202.528 88.5204 202.36 88.7616 202.216 88.9304Z" fill="#06415D"/>
<path d="M207.424 87.5319C208.072 87.5319 208.432 87.9902 208.432 88.5932C208.432 89.1721 208.048 89.6304 207.664 89.751L208.36 90.957C208.576 91.2946 208.864 91.6564 209.152 91.8735H208.696C208.432 91.8735 208.264 91.777 208.12 91.5358L207.52 90.5228L207.064 89.5821C207.448 89.5098 207.904 89.2444 207.904 88.6414C207.904 88.159 207.592 87.8937 207.28 87.9179C207.16 87.9179 207.064 87.942 206.944 87.9661V90.9328C206.944 91.2464 206.92 91.7288 207.16 91.8494V91.8735H206.224V91.8494C206.464 91.7288 206.44 91.2464 206.44 90.9328V88.4485C206.44 88.1349 206.464 87.6525 206.224 87.5319V87.5078L207.424 87.5319Z" fill="#06415D"/>
<path d="M209.632 91.3194L210.256 91.3918C210.568 91.44 210.904 91.2953 211.168 91.0059H211.192L210.976 91.8742H208.936V91.8501C209.176 91.7295 209.152 91.2471 209.152 90.9335V88.4492C209.152 88.1356 209.176 87.6532 208.936 87.5326V87.5085H210.496L210.736 87.4844H210.76V88.2562H210.736C210.592 88.015 210.376 87.9909 210.16 87.9909C209.992 87.9909 209.824 87.9909 209.656 88.0391V89.2692H210.232L210.448 89.221H210.472V89.9205H210.424C210.352 89.7275 210.136 89.7275 209.992 89.7275H209.632V91.3194Z" fill="#06415D"/>
<path d="M212.656 87.5319C213.28 87.5319 213.76 87.942 213.76 88.6897C213.76 89.4615 213.232 89.9439 212.68 89.9439C212.56 89.9439 212.44 89.9198 212.32 89.8474C212.752 89.8233 213.184 89.4615 213.184 88.8344C213.184 88.2555 212.872 88.0143 212.488 88.0143C212.368 88.0143 212.248 88.0385 212.152 88.0626V91.0534C212.152 91.4152 212.152 91.6806 212.416 91.8976V91.9218H211.456V91.8976C211.696 91.777 211.672 91.2946 211.672 90.9811V88.4485C211.672 88.1591 211.696 87.6767 211.456 87.5319V87.5078L212.656 87.5319Z" fill="#06415D"/>
<path d="M215.728 87.4106C214.696 87.3864 213.904 88.4236 213.904 89.702C213.904 91.0527 214.72 91.9934 215.68 91.9934C216.64 91.9934 217.48 91.0044 217.48 89.6537C217.456 88.4718 216.736 87.4106 215.728 87.4106ZM215.68 87.893C216.448 87.893 216.904 88.8336 216.904 89.7984C216.904 90.7874 216.424 91.511 215.68 91.511C214.912 91.511 214.432 90.5462 214.432 89.6296C214.432 88.6407 214.936 87.893 215.68 87.893Z" fill="#06415D"/>
<path d="M218.92 87.5319C219.568 87.5319 219.928 87.9902 219.928 88.5932C219.928 89.1721 219.544 89.6304 219.16 89.751L219.856 90.957C220.072 91.2946 220.36 91.6564 220.648 91.8735H220.192C219.928 91.8735 219.76 91.777 219.616 91.5358L219.016 90.5228L218.56 89.5821C218.944 89.5098 219.4 89.2444 219.4 88.6414C219.4 88.159 219.088 87.8937 218.776 87.9179C218.656 87.9179 218.56 87.942 218.44 87.9661V90.9328C218.44 91.2464 218.416 91.7288 218.656 91.8494V91.8735H217.72V91.8494C217.96 91.7288 217.936 91.2464 217.936 90.9328V88.4485C217.936 88.1349 217.96 87.6525 217.72 87.5319V87.5078L218.92 87.5319Z" fill="#06415D"/>
<path d="M221.56 91.0307C221.56 91.4166 221.56 91.6578 221.824 91.8749V91.899H220.864V91.8749C221.104 91.7543 221.08 91.2719 221.08 90.9583V87.9916H220.648C220.432 87.9916 220.216 88.0639 220.072 88.2569H220.024L220.192 87.4609H220.216L220.408 87.5092H220.528H222.352L222.568 87.4609H222.592L222.424 88.2569H222.4C222.328 88.0157 222.136 87.9916 221.992 87.9916H221.56V91.0307Z" fill="#06415D"/>
<path d="M222.832 88.4485C222.832 88.1349 222.856 87.6525 222.616 87.5319V87.5078H223.552V87.5319C223.312 87.6525 223.336 88.1591 223.336 88.4485V90.957C223.336 91.2464 223.312 91.7288 223.552 91.8735V91.8976H222.616V91.8735C222.856 91.7529 222.832 91.2705 222.832 90.957V88.4485Z" fill="#06415D"/>
<path d="M224.488 91.0293C224.488 91.3911 224.488 91.6564 224.752 91.8735V91.8976H223.888V91.8735C224.152 91.6806 224.152 91.4152 224.152 91.0293V88.3761C224.152 88.0143 224.152 87.749 223.888 87.5319V87.5078H224.608L224.68 87.6767L224.752 87.8214L226.528 90.8846V88.3761C226.528 88.0143 226.528 87.749 226.264 87.5319V87.5078H227.128V87.5319C226.864 87.7249 226.864 87.9902 226.864 88.3761V92.0906C226.528 91.9218 226.36 91.7047 226.144 91.3429L224.464 88.4485L224.488 91.0293Z" fill="#06415D"/>
<path d="M230.104 88.3033C229.888 87.9897 229.528 87.8932 229.216 87.8932C228.448 87.8932 227.872 88.5686 227.872 89.6299C227.872 90.6911 228.496 91.5112 229.264 91.5112C229.48 91.5112 229.72 91.463 229.936 91.3906V90.4258C229.936 90.1123 229.936 89.7987 229.72 89.6781V89.654H230.464V89.6781C230.44 89.7505 230.44 89.8711 230.44 89.9675V91.4871C230.44 91.5836 230.44 91.7042 230.464 91.7765C230.08 91.873 229.696 91.9695 229.312 91.9695C228.064 91.9695 227.344 91.0529 227.344 89.7022C227.344 88.2792 228.184 87.3867 229.36 87.3867C229.624 87.3867 229.864 87.435 230.128 87.5073L230.104 88.3033Z" fill="#06415D"/>
<path d="M229.888 73.1335C229.888 73.3024 229.888 73.4471 230.008 73.5677H229.216C229.36 73.4712 229.336 73.3024 229.336 73.1576V72.024C229.336 71.8552 229.36 71.6863 229.216 71.614H230.248L230.368 71.5898V72.024C230.296 71.8793 230.128 71.9034 229.984 71.9034H229.888V72.3858H230.104L230.224 72.3617H230.248V72.7958H230.224C230.176 72.6752 230.056 72.6752 229.96 72.6752H229.912V73.1335H229.888Z" fill="#06415D"/>
<path d="M229.048 76.0742C229.216 76.219 229.456 76.3154 229.672 76.3154C229.816 76.3154 229.984 76.2672 229.984 76.0984C229.984 75.7366 229.072 75.8089 229.072 75.1336C229.072 74.9647 229.144 74.7959 229.288 74.6994C229.432 74.6029 229.624 74.5547 229.792 74.5547C229.96 74.5547 230.128 74.5788 230.296 74.6512V75.013C230.176 74.9406 230.032 74.8682 229.888 74.8682C229.768 74.8682 229.624 74.9165 229.624 75.0612C229.624 75.2059 229.792 75.2542 229.912 75.3024C230.056 75.3748 230.176 75.423 230.296 75.5195C230.44 75.6401 230.512 75.7848 230.512 75.9778C230.512 76.1707 230.44 76.3396 230.272 76.4602C230.104 76.5808 229.912 76.6049 229.696 76.6049C229.504 76.6049 229.312 76.5808 229.12 76.5084L229.048 76.0742Z" fill="#06415D"/>
<path d="M229.648 78.6309H229.72C229.936 78.6309 230.056 78.7274 230.056 78.9686C230.056 79.1374 229.984 79.3063 229.792 79.3063L229.672 79.258V78.6309H229.648ZM229 77.5938C229.144 77.6902 229.12 77.8591 229.12 78.0279V79.1615C229.12 79.3304 229.144 79.4992 229 79.5957H229.864C230.08 79.5957 230.224 79.5957 230.392 79.451C230.536 79.3304 230.608 79.1615 230.608 78.9927C230.608 78.7274 230.44 78.5103 230.176 78.4862C230.344 78.4138 230.488 78.3173 230.488 78.1003C230.488 77.9555 230.416 77.8349 230.296 77.7385C230.176 77.642 230.032 77.642 229.888 77.642L229 77.5938ZM229.648 77.9073L229.744 77.8832C229.864 77.8832 229.936 78.0038 229.936 78.1244C229.936 78.245 229.864 78.3897 229.72 78.3897H229.672L229.648 77.9073Z" fill="#06415D"/>
<path d="M230.512 82.2969H124.624C124.6 82.731 124.576 82.9481 124.528 83.2376L124.48 83.6717H230.488" fill="#06415D"/>
<path d="M228.976 63.3638V62.4713H229.576C229.888 62.4713 230.2 62.5437 230.2 62.9055C230.2 63.3638 229.864 63.3879 229.504 63.3879H228.976V63.3638ZM228.976 63.7256H229.48L230.224 64.9798H230.704L229.888 63.7014C230.296 63.6532 230.632 63.412 230.632 62.9055C230.632 62.3266 230.296 62.0854 229.624 62.0854H228.544V65.0039H228.976V63.7256ZM229.504 66.0652C230.848 66.0652 232 65.0039 232 63.5326C232 62.0854 230.848 61 229.504 61C228.136 61 226.984 62.0613 226.984 63.5326C226.984 64.9798 228.136 66.0652 229.504 66.0652ZM227.464 63.5326C227.464 62.3266 228.352 61.4342 229.48 61.4342C230.608 61.4342 231.496 62.3266 231.496 63.5326C231.496 64.7386 230.608 65.6551 229.48 65.6551C228.352 65.631 227.464 64.7386 227.464 63.5326Z" fill="#06415D"/>
</svg>
