<svg width="320" height="160" viewBox="0 0 320 160" fill="none" xmlns="http://www.w3.org/2000/svg">
<path d="M96.3851 97C105.987 97 113.77 89.165 113.77 79.5C113.77 69.835 105.987 62 96.3851 62C86.7836 62 79 69.835 79 79.5C79 89.165 86.7836 97 96.3851 97Z" fill="#2DB670"/>
<path d="M103.971 72.4883H94.7924V85.26H103.971V72.4883Z" fill="#6D6E71"/>
<path d="M106.778 72.5971C104.106 68.7656 99.9484 68.7656 97.6268 68.7656H90.77V88.8471C92.3357 89.1461 93.9284 88.9287 95.4942 88.9015C95.5752 88.9015 95.6831 88.9287 95.7371 89.0102C95.8721 89.0102 96.0071 89.0917 96.0611 89.2548H98.0048C105.86 89.2548 108.668 84.5537 108.668 78.9558C108.668 76.7276 108.182 74.5265 106.778 72.5971ZM98.4097 84.7982H96.1421V73.4939H98.4367C100.785 73.4939 101.838 74.4721 102.459 75.3689C103.215 76.5374 103.458 78.0048 103.458 79.1732C103.485 82.0808 102.351 84.7982 98.4097 84.7982Z" fill="white"/>
<path d="M85.722 68.7656H90.8241V84.6352L96.0073 84.6624V89.2276L85.722 89.2004V68.7656Z" fill="#6D6E71"/>
<path d="M117.334 69.1211H119.385V87.3548H127.349V89.3113H117.334V69.1211Z" fill="#6D6E71"/>
<path d="M141.684 84.2011L143.33 85.0435C142.79 86.0761 142.169 86.9185 141.441 87.5707C140.739 88.1957 139.929 88.712 139.038 89.038C138.147 89.3641 137.148 89.5544 136.014 89.5544C133.531 89.5544 131.56 88.7663 130.156 87.163C128.753 85.5598 128.051 83.7663 128.051 81.7554C128.024 79.9076 128.672 78.1141 129.833 76.7011C131.344 74.8261 133.369 73.875 135.88 73.875C138.471 73.875 140.577 74.8533 142.115 76.7826C143.222 78.1413 143.789 79.8533 143.789 81.8913H130.048C130.075 83.6304 130.642 85.0435 131.749 86.1576C132.856 87.2717 134.206 87.8152 135.826 87.8152C136.608 87.8152 137.364 87.6794 138.093 87.4076C138.768 87.163 139.416 86.8098 139.956 86.3478C140.523 85.8859 141.09 85.1793 141.684 84.2011ZM141.819 80.3696C141.549 79.337 141.171 78.5217 140.685 77.9239C140.145 77.2717 139.47 76.7826 138.687 76.4293C137.877 76.0489 136.986 75.8587 136.095 75.8587C134.584 75.8587 133.315 76.3207 132.235 77.2717C131.452 77.9511 130.858 78.9837 130.453 80.3696H141.819Z" fill="#6D6E71"/>
<path d="M161.471 74.2298V89.1483H159.528V86.5939C158.691 87.5722 157.773 88.3059 156.747 88.795C155.694 89.2841 154.533 89.5559 153.373 89.5287C151.213 89.5287 149.35 88.7678 147.839 87.2189C146.327 85.67 145.544 83.8222 145.544 81.6211C145.544 79.4743 146.327 77.6265 147.866 76.1048C149.404 74.583 151.267 73.8222 153.454 73.8222C154.641 73.795 155.802 74.0667 156.855 74.6102C157.881 75.1265 158.772 75.9146 159.528 76.9743V74.2298H161.471ZM153.643 75.8874C152.59 75.8874 151.537 76.1591 150.619 76.6754C148.756 77.7624 147.596 79.7461 147.596 81.92C147.623 85.2624 150.322 87.9798 153.643 87.9798C154.722 87.9798 155.775 87.708 156.693 87.1917C157.611 86.7026 158.394 85.9417 158.907 85.045C159.42 84.1211 159.69 83.0613 159.69 82.0015C159.69 80.2624 159.096 78.8222 157.935 77.6809C156.774 76.458 155.343 75.8874 153.643 75.8874Z" fill="#6D6E71"/>
<path d="M164.036 74.2279H166.006V76.891C166.789 75.8584 167.653 75.0975 168.625 74.5812C169.597 74.0649 170.65 73.8203 171.73 73.8203C172.863 73.8203 173.889 74.0921 174.78 74.6627C175.644 75.2062 176.346 75.9942 176.751 76.9453C177.183 77.8964 177.372 79.391 177.372 81.429V89.1192H175.401V81.9997C175.401 80.2877 175.32 79.1192 175.185 78.5486C174.969 77.5703 174.51 76.8094 173.862 76.3203C173.214 75.8312 172.377 75.5866 171.352 75.5594C170.191 75.5594 169.057 75.9671 168.166 76.7007C167.248 77.4344 166.6 78.4127 166.303 79.554C166.114 80.2877 166.033 81.6464 166.033 83.6029V89.0921H164.063V74.2279H164.036Z" fill="#6D6E71"/>
<path d="M179.504 69.1211H184.336C187.468 69.1211 189.762 69.4744 191.301 70.2081C192.813 70.9417 194.055 72.1102 195.054 73.7678C196.025 75.3983 196.538 77.3276 196.538 79.5015C196.565 80.9689 196.268 82.4363 195.728 83.795C195.216 85.045 194.433 86.132 193.461 87.0287C192.57 87.8439 191.49 88.4689 190.329 88.8222C189.196 89.1483 187.252 89.3113 184.471 89.3113H179.558L179.504 69.1211ZM183.553 72.8439V85.5613H185.443C187.306 85.5613 188.656 85.3711 189.519 84.9635C190.356 84.5559 191.058 83.8765 191.571 82.9254C192.111 81.9744 192.381 80.8059 192.381 79.42C192.381 77.2733 191.733 75.6157 190.464 74.42C189.304 73.3602 187.468 72.8167 184.93 72.8167L183.553 72.8439Z" fill="#2DB670"/>
<path d="M210.09 74.5834H214.086V89.5019H210.09V87.9258C209.307 88.6323 208.524 89.1214 207.742 89.4203C206.932 89.7193 206.068 89.8823 205.204 89.8823C203.152 89.8823 201.371 89.1214 199.886 87.6269C198.401 86.1323 197.645 84.2845 197.645 82.0562C197.645 79.7464 198.374 77.8714 199.805 76.3769C201.263 74.9095 203.017 74.1758 205.069 74.1758C205.987 74.1758 206.905 74.3388 207.742 74.6921C208.605 75.0453 209.388 75.5617 210.063 76.2138L210.09 74.5834ZM205.987 77.5725C204.745 77.5725 203.746 77.9801 202.909 78.7953C202.1 79.6106 201.695 80.6703 201.695 81.9475C201.695 83.2519 202.1 84.3117 202.936 85.1269C203.773 85.9693 204.772 86.3769 205.987 86.3769C207.229 86.3769 208.282 85.9693 209.091 85.154C209.901 84.3388 210.333 83.2519 210.333 81.9475C210.333 80.6432 209.928 79.5834 209.091 78.7953C208.282 77.9801 207.256 77.5725 205.987 77.5725Z" fill="#2DB670"/>
<path d="M217.865 69.1211H221.833V74.6102H224.209V77.8439H221.833V89.5559H217.865V77.8439H215.813V74.6102H217.865V69.1211Z" fill="#2DB670"/>
<path d="M237.005 74.5834H241V89.5019H237.005V87.9258C236.222 88.6323 235.439 89.1214 234.656 89.4203C233.846 89.7193 232.982 89.8823 232.119 89.8823C230.067 89.8823 228.285 89.1214 226.8 87.6269C225.316 86.1323 224.56 84.2845 224.56 82.0562C224.56 79.7464 225.289 77.8714 226.719 76.3769C228.177 74.9095 229.932 74.1758 231.984 74.1758C232.901 74.1758 233.819 74.3388 234.656 74.6921C235.52 75.0453 236.303 75.5617 236.978 76.2138V74.5834H237.005ZM232.874 77.5725C231.633 77.5725 230.634 77.9801 229.797 78.7953C228.987 79.6106 228.582 80.6703 228.582 81.9475C228.582 83.2519 228.987 84.3117 229.824 85.1269C230.661 85.9693 231.66 86.3769 232.874 86.3769C234.116 86.3769 235.169 85.9693 235.979 85.154C236.816 84.3388 237.221 83.2519 237.221 81.9475C237.221 80.6432 236.816 79.5834 235.979 78.7953C235.169 77.9801 234.143 77.5725 232.874 77.5725Z" fill="#2DB670"/>
</svg>
