<svg width="320" height="160" viewBox="0 0 320 160" fill="none" xmlns="http://www.w3.org/2000/svg">
<path d="M91.4481 65.7076V80.9107C91.4481 84.2701 88.9853 87.8012 82.9993 87.8012C78.9494 87.8012 77.1912 84.7991 77.0134 82.8549C76.8355 81.0893 78.0669 79.3169 80.0029 79.3169C81.7611 79.3169 82.8215 80.7321 82.8215 81.7901C82.9993 83.2053 82.1168 84.4418 80.5365 84.6205C79.483 84.6205 79.483 83.7342 78.9494 83.9129C78.0669 84.2632 79.8319 87.0936 82.6436 87.0936C85.4622 86.915 85.811 84.9708 85.811 83.0266V65.7076H82.9993V65.1786H93.9109V65.8862C92.8574 65.7076 91.9749 65.7076 91.4481 65.7076ZM139.678 65L134.575 80.0245L129.471 65C127.713 65.1786 125.599 65.1786 121.022 65.1786V65.8862C122.076 65.8862 122.958 65.7076 123.307 65.7076V86.5646C122.958 86.5646 121.898 86.386 120.844 86.386V87.0936H126.83V86.386C125.599 86.386 124.717 86.5646 124.19 86.5646V65.8862H124.368L131.763 87.0936H132.994L140.205 65.8862H140.383V86.3929H138.269V87.1005H148.127V86.3929H145.842V65.7145H148.127V65C144.255 65 142.141 65.1786 139.678 65ZM176.819 73.8347C176.996 72.7767 178.406 69.7677 181.217 69.7677C183.153 69.7677 184.207 71.0043 184.385 72.4195C184.563 73.8347 183.502 75.0713 182.271 75.2499C180.862 75.6003 179.452 74.7209 179.281 73.1271C179.281 71.3615 180.691 71.3615 180.513 71.0043C180.335 70.4753 179.104 71.0043 178.399 71.8905C177.872 72.5981 176.641 74.3637 176.641 77.7231V86.5578C177.167 86.5578 178.228 86.5578 179.281 86.3792V87.0868H169.601V86.5578H172.064V71.1829H169.601V70.6539H174.527C175.231 70.6539 175.58 70.4753 176.641 70.3036V73.8416L176.819 73.8347ZM240.886 86.5646C241.235 86.5646 241.939 86.5646 243 86.386V87.0936H234.373V86.386C234.954 86.5097 235.543 86.5646 236.131 86.5646V73.4843C236.131 72.2478 235.775 70.8326 234.195 71.0112C232.259 71.0112 230.323 73.134 230.145 76.1361V86.5646C230.494 86.5646 231.377 86.5646 232.259 86.386V87.0936H223.284V86.386C224.166 86.5646 224.871 86.5646 225.397 86.5646V71.0112H223.461V70.4822H227.682C228.565 70.4822 229.27 70.3036 230.145 70.1318V73.3126C230.494 72.7836 231.732 69.9532 235.953 69.9532C238.416 69.9532 240.879 71.3684 240.879 74.5492L240.886 86.5646ZM105 65.8862V77.3727C105.883 77.5513 106.41 77.5513 107.285 77.5513C109.926 77.5513 111.335 75.6071 111.335 71.5402C111.342 67.2945 110.46 65.529 105 65.8862V65.1786H109.755C114.332 65.1786 117.321 67.4732 117.15 71.7188C116.801 76.4934 112.929 78.4375 108.701 78.4375C106.588 78.4375 105.007 78.0872 105.007 78.0872V86.3929C105.534 86.5715 106.239 86.3929 107.47 86.3929V87.1005H97.0784V86.3929C98.1319 86.3929 99.0144 86.5715 99.5412 86.5715V65.7076H96.9074V65.1786H105V65.8862ZM158.861 87.444C163.082 87.444 167.658 84.6136 167.658 78.6093C167.836 72.5981 163.082 69.7746 158.861 69.7746V70.4822C161.152 70.4822 162.206 72.4264 162.206 76.6651V80.9038C162.206 85.1494 161.152 86.915 158.861 86.915C156.576 86.915 155.515 85.1494 155.515 80.9038V76.6651C155.515 72.4264 156.569 70.4822 158.861 70.4822V69.7746C154.64 69.7746 150.063 72.7767 150.063 78.6093C150.063 84.2632 154.64 87.444 158.861 87.444ZM191.424 88.5088H197.233C199.346 88.5088 200.222 89.5668 200.4 91.1606C200.578 93.8124 197.581 96.1069 193.709 96.2856V96.9932H193.887C198.115 96.6428 201.809 94.1628 201.809 89.395C201.631 84.9777 199.169 83.7411 196.706 83.7411L189.488 83.9197C188.079 83.9197 187.374 83.2121 187.552 82.5045C187.73 81.4466 189.837 80.3817 191.424 80.5603C192.129 80.739 192.478 80.9107 193.36 80.9107C196.528 80.9107 200.222 78.6162 200.051 75.0782C200.051 73.8416 199.524 72.7836 198.293 71.3684C198.649 70.3104 199.175 69.7746 199.702 69.6028C200.229 69.2525 200.585 69.2525 200.585 69.6028C200.585 69.7815 199.702 69.9532 199.88 71.1967C199.88 72.0829 200.934 72.7905 201.994 72.6119C203.047 72.6119 203.752 71.5539 203.581 70.6677C203.581 69.6097 202.705 68.5449 201.118 68.5449C199.531 68.5449 198.478 69.7815 197.951 71.018C197.068 70.3104 196.015 69.6028 193.374 69.6028V70.1318C194.961 70.1318 195.659 70.8394 195.837 74.1988V76.3216C195.659 80.0314 194.783 80.21 193.374 80.21C192.143 80.21 190.911 80.21 190.911 76.5002V74.3774C190.911 71.018 191.616 70.1387 193.374 70.1387V69.6097H193.196C189.146 69.6097 186.861 72.7905 186.861 75.0919C186.861 77.5651 187.915 78.9803 189.851 80.2168C188.264 80.5672 185.979 81.9824 185.979 84.4624C186.157 87.2929 188.797 88.0005 189.673 88.3508C188.62 88.7012 185.623 89.766 185.623 92.2392C185.623 95.0696 189.146 97.1855 193.723 97.0138V96.3062C190.2 96.4848 187.737 94.1834 187.915 91.7102C187.908 89.0378 190.371 88.5088 191.424 88.5088ZM214.486 77.1941V72.7767C214.486 70.8326 212.899 70.125 210.792 70.3036C209.204 70.6539 208.5 71.3615 208.678 71.8974C209.027 72.4264 210.265 72.4264 210.436 74.0202C210.614 75.0782 210.087 76.143 208.849 76.4934C207.795 76.672 206.03 76.143 205.859 74.3706C205.681 72.4264 207.091 69.7746 212.899 69.596C215.717 69.596 219.234 70.8326 219.056 75.0782V84.4418C219.056 85.857 219.405 86.2074 219.76 86.2074C220.465 86.2074 221.17 85.4998 221.348 84.4418L221.874 84.6205C221.696 86.0357 220.643 87.2722 218.18 87.2722C215.888 87.2722 214.835 85.6784 214.486 84.6205C213.959 85.5067 213.077 86.5646 211.667 87.0936V86.2074C212.543 86.2074 214.486 84.6136 214.486 82.848V77.9017C211.845 77.7231 210.614 78.2521 209.909 79.8459C209.382 80.7321 209.382 82.6763 209.56 83.9129C209.738 85.5067 210.443 86.386 211.674 86.2074V87.0936C211.147 87.2722 210.621 87.2722 210.087 87.2722C207.268 87.2722 204.45 85.6784 204.45 82.8549C204.45 78.6093 208.5 77.1941 214.486 77.1941Z" fill="#272727"/>
</svg>
