<svg width="320" height="160" viewBox="0 0 320 160" fill="none" xmlns="http://www.w3.org/2000/svg">
<path d="M149.782 80.6844C149.782 87.0903 144.777 91.7946 138.621 91.7946C132.466 91.7946 127.461 87.0903 127.461 80.6844C127.461 74.2285 132.466 69.5742 138.621 69.5742C144.777 69.5742 149.782 74.2285 149.782 80.6844ZM144.927 80.6844C144.927 76.6807 142.024 73.9783 138.671 73.9783C135.318 73.9783 132.416 76.7308 132.416 80.6844C132.416 84.638 135.318 87.3906 138.671 87.3906C142.024 87.3906 144.927 84.638 144.927 80.6844Z" fill="#E1183A"/>
<path d="M173.802 80.6844C173.802 87.0903 168.798 91.7946 162.642 91.7946C156.486 91.7946 151.482 87.0903 151.482 80.6844C151.482 74.2785 156.486 69.5742 162.642 69.5742C168.798 69.5742 173.802 74.2285 173.802 80.6844ZM168.898 80.6844C168.898 76.6807 165.995 73.9783 162.642 73.9783C159.289 73.9783 156.386 76.7308 156.386 80.6844C156.386 84.638 159.289 87.3906 162.642 87.3906C165.995 87.3906 168.898 84.638 168.898 80.6844Z" fill="#F5C228"/>
<path d="M196.823 70.2749V90.1931C196.823 98.4007 191.968 101.754 186.263 101.754C180.858 101.754 177.655 98.1504 176.404 95.1977L180.658 93.4461C181.409 95.2478 183.26 97.3997 186.263 97.3997C189.917 97.3997 192.169 95.1477 192.169 90.8938V89.2923H192.018C190.917 90.6435 188.816 91.7946 186.163 91.7946C180.608 91.7946 175.503 86.9401 175.503 80.7345C175.503 74.4787 180.608 69.5742 186.163 69.5742C188.816 69.5742 190.917 70.7753 192.018 72.0765H192.169V70.2749H196.823ZM192.519 80.7345C192.519 76.8309 189.917 73.9783 186.613 73.9783C183.26 73.9783 180.408 76.8309 180.408 80.7345C180.408 84.588 183.21 87.4406 186.613 87.4406C189.917 87.4406 192.519 84.588 192.519 80.7345Z" fill="#4E81EE"/>
<path d="M204.43 58.5625V91.0923H199.676V58.5625H204.43Z" fill="#24BF58"/>
<path d="M222.996 84.337L226.8 86.8393C225.598 88.641 222.646 91.7438 217.541 91.7438C211.235 91.7438 206.531 86.8894 206.531 80.6336C206.531 74.0276 211.285 69.5234 216.991 69.5234C222.746 69.5234 225.548 74.1277 226.499 76.5799L227 77.8311L212.136 84.0368C213.287 86.2888 215.039 87.3898 217.541 87.3898C219.993 87.3898 221.695 86.1887 222.996 84.337ZM211.335 80.3334L221.245 76.2296C220.694 74.8283 219.042 73.8774 217.141 73.8774C214.638 73.8774 211.185 76.0795 211.335 80.3334Z" fill="#E1183A"/>
<path d="M109.494 77.7813V73.077H125.358C125.508 73.8777 125.608 74.8786 125.608 75.9296C125.608 79.4828 124.658 83.8368 121.505 86.9397C118.502 90.0926 114.598 91.7941 109.494 91.7941C100.035 91.7941 92.0276 84.037 92.0276 74.5283C92.0276 65.0196 100.035 57.3125 109.494 57.3125C114.748 57.3125 118.502 59.3644 121.304 62.0669L118.001 65.3699C116 63.4681 113.247 62.0168 109.494 62.0168C102.537 62.0168 97.1323 67.622 97.1323 74.5283C97.1323 81.4346 102.537 87.0398 109.494 87.0398C113.998 87.0398 116.55 85.2381 118.202 83.5866C119.553 82.2354 120.404 80.3336 120.754 77.7312L109.494 77.7813Z" fill="#4E81EE"/>
</svg>
