<svg width="320" height="160" viewBox="0 0 320 160" fill="none" xmlns="http://www.w3.org/2000/svg">
<path d="M197.515 70.3519H201.313L202.561 64.6094H209.816L208.557 70.3519H213.348L212.323 75.0313H207.554L205.965 82.3163C205.613 83.9526 205.965 84.1818 207.917 84.1818C208.803 84.1818 209.528 84.1506 210.499 84.1193L209.539 88.5278C208.024 88.7258 206.082 88.8613 203.959 88.8613C199.233 88.8613 197.537 87.7253 198.39 83.8171L200.31 75.0209H196.512L197.515 70.3519Z" fill="#231F20"/>
<path d="M187.665 70.3477H194.92L190.983 88.461H183.729L187.665 70.3477Z" fill="#231F20"/>
<path d="M189.055 63.9961H196.31L195.382 68.2691H188.127L189.055 63.9961Z" fill="#231F20"/>
<path d="M168.512 70.3541L164.518 88.4948L171.524 88.4605L175.518 70.3198L168.512 70.3541Z" fill="#231F20"/>
<path d="M183.863 69.5508C180.619 69.5508 175.466 72.6669 174.111 78.2114L173.759 79.4621H173.877C174.912 77.0546 177.483 75.7623 180.961 75.7623C181.9 75.7623 182.966 75.8873 183.82 76.0749L185.228 69.6029C184.78 69.5716 184.3 69.5508 183.863 69.5508Z" fill="#231F20"/>
<path d="M158.216 70.3477H165.471L161.534 88.461H154.279L158.216 70.3477Z" fill="#231F20"/>
<path d="M159.605 63.9961H166.86L165.932 68.2691H158.677L159.605 63.9961Z" fill="#231F20"/>
<path d="M140.297 84.0502C143.615 84.0502 145.781 82.4452 146.432 79.4437C147.082 76.4317 145.621 74.8267 142.303 74.8267C138.91 74.8267 136.744 76.6297 136.136 79.4437C135.518 82.2472 136.905 84.0502 140.297 84.0502ZM130.855 70.3557H137.907L137.385 72.7632H137.449C139.39 70.9289 142.175 69.8867 145.119 69.8867C151.691 69.8867 155.191 73.4302 153.825 79.7146C152.684 84.9673 147.787 89.1986 140.98 89.1986C137.769 89.1986 135.528 88.1669 134.589 86.8328H134.525L132.744 95.0245H125.489L130.855 70.3557Z" fill="#231F20"/>
<path d="M110.517 82.8179C110.474 83.4849 110.634 84.0164 111.21 84.3604C111.786 84.7251 112.725 84.9232 114.304 84.9232C115.915 84.9232 117.686 84.6209 117.974 83.3182C118.187 82.3489 117.526 82.078 115.787 81.8799L109.482 81.1087C105.353 80.6085 103.518 79.139 104.19 76.0645C105.257 71.1557 109.898 69.6133 116.843 69.6133C121.772 69.6133 127.811 70.4783 127.096 75.6268H118.956C119.052 74.8555 118.646 74.3553 117.985 74.0947C117.334 73.7925 116.395 73.6883 115.467 73.6883C113.376 73.6883 112.053 74.1573 111.775 75.3975C111.647 75.9707 112.021 76.4709 113.824 76.669L119.937 77.336C124.813 77.8675 126.946 79.3787 126.178 82.9117C125.25 87.1847 120.641 89.1962 112.938 89.1962C107.807 89.1962 101.053 88.2999 102.078 82.8179H110.517Z" fill="#231F20"/>
<path d="M215.518 71.7846C215.603 71.7846 215.667 71.7637 215.72 71.7221C215.774 71.6804 215.795 71.6283 215.795 71.5553C215.795 71.4928 215.774 71.4407 215.731 71.399C215.688 71.3573 215.614 71.3364 215.518 71.3364H215.336V71.7846H215.518ZM214.963 71.0551H215.592C215.763 71.0551 215.902 71.0967 216.019 71.1697C216.136 71.2426 216.2 71.3677 216.2 71.5449C216.2 71.6283 216.179 71.7116 216.126 71.7846C216.072 71.8575 216.008 71.9201 215.912 71.9513L216.243 72.535H215.838L215.592 72.0556H215.336V72.535H214.952V71.0551H214.963ZM215.55 72.9623C215.71 72.9623 215.848 72.931 215.987 72.8789C216.126 72.8268 216.243 72.7434 216.339 72.6392C216.435 72.535 216.51 72.4203 216.574 72.2744C216.627 72.1285 216.659 71.9722 216.659 71.8054C216.659 71.6387 216.627 71.4719 216.574 71.3364C216.52 71.1905 216.446 71.0655 216.339 70.9613C216.243 70.857 216.126 70.7737 215.987 70.7216C215.848 70.6694 215.699 70.6382 215.55 70.6382C215.39 70.6382 215.24 70.6694 215.102 70.7216C214.963 70.7737 214.845 70.857 214.749 70.9613C214.653 71.0655 214.579 71.1905 214.515 71.3364C214.461 71.4824 214.429 71.6387 214.429 71.8054C214.429 71.9722 214.461 72.1389 214.515 72.2744C214.568 72.4099 214.643 72.535 214.749 72.6392C214.845 72.7434 214.963 72.8164 215.102 72.8789C215.24 72.9414 215.39 72.9623 215.55 72.9623ZM215.55 73.2854C215.347 73.2854 215.155 73.2541 214.984 73.1811C214.803 73.1082 214.653 73.004 214.515 72.8789C214.376 72.7434 214.28 72.5975 214.205 72.4099C214.131 72.2327 214.088 72.0347 214.088 71.8159C214.088 71.597 214.131 71.399 214.205 71.2114C214.28 71.0238 214.387 70.8675 214.515 70.7424C214.653 70.6069 214.803 70.5131 214.984 70.4402C215.166 70.3672 215.347 70.3359 215.55 70.3359C215.752 70.3359 215.944 70.3672 216.115 70.4402C216.296 70.5131 216.446 70.6173 216.585 70.7424C216.723 70.8779 216.819 71.0342 216.894 71.2114C216.969 71.399 217.011 71.597 217.011 71.8159C217.011 72.0347 216.969 72.2327 216.894 72.4099C216.819 72.5871 216.713 72.7434 216.585 72.8789C216.446 73.0144 216.296 73.1082 216.115 73.1811C215.944 73.2437 215.752 73.2854 215.55 73.2854Z" fill="#231F20"/>
</svg>
