<svg width="320" height="160" viewBox="0 0 320 160" fill="none" xmlns="http://www.w3.org/2000/svg">
<path d="M184.485 69.7646C181.795 66.2899 177.848 64.3389 172.585 63.9217L172.584 63.9216C170.614 63.7598 168.169 64.1702 165.221 65.2084C165.221 65.2086 165.22 65.2088 165.22 65.2089L165.054 64.7373C161.901 65.8707 160.036 66.4401 159.487 66.4401C158.754 66.4401 157.074 65.9528 154.464 64.9947L184.485 69.7646ZM184.485 69.7646C179.662 72.789 177.237 76.9983 177.288 82.3499L177.288 82.3506C177.334 86.6366 178.931 90.2184 182.059 93.0508C183.354 94.2495 184.788 95.2045 186.371 95.9087C186.052 96.7925 185.717 97.638 185.366 98.4555C184.371 100.697 183.201 102.758 181.845 104.65C179.968 107.266 178.463 109.036 177.324 110.002L177.319 110.007L177.313 110.011C175.551 111.598 173.693 112.387 171.724 112.429C170.299 112.428 168.536 112.029 166.45 111.189L166.448 111.189C164.271 110.323 162.248 109.883 160.378 109.883C158.421 109.883 156.342 110.321 154.141 111.188L154.14 111.188C151.999 112.034 150.326 112.454 149.077 112.495L149.073 112.495C147.223 112.57 145.329 111.779 143.376 110.007L143.37 110.002L143.365 109.997C142.129 108.942 140.549 107.103 138.629 104.451L138.628 104.45C136.594 101.652 134.918 98.4057 133.605 94.69C132.205 90.6787 131.5 86.8092 131.5 83.0679C131.5 78.7849 132.446 75.123 134.316 72.0666L134.316 72.0666L134.318 72.0629C135.793 69.6053 137.748 67.673 140.194 66.2485C142.644 64.8306 145.28 64.1032 148.135 64.0547C149.654 64.0555 151.693 64.5193 154.292 65.4642L184.485 69.7646ZM163.229 53.2738L163.232 53.2708C164.414 51.9417 165.926 50.8298 167.773 49.9402C169.442 49.1461 171.008 48.6815 172.476 48.5359C172.492 48.792 172.5 49.0485 172.5 49.3031C172.5 52.4178 171.34 55.3379 168.988 58.0693C166.238 61.2106 162.996 63.0087 159.531 62.8881C159.511 62.6445 159.5 62.3922 159.5 62.1312C159.5 59.1542 160.828 55.9299 163.229 53.2738Z" fill="#18181B" stroke="#18181B"/>
</svg>
