<svg width="320" height="160" viewBox="0 0 320 160" fill="none" xmlns="http://www.w3.org/2000/svg">
<path d="M151.033 50.2879C154.546 46.6327 159.474 44.3801 164.915 44.3801C172.155 44.3801 178.454 48.3753 181.838 54.3256C184.752 53.0505 188.008 52.328 191.393 52.328C204.417 52.328 215 62.911 215 75.9591C215 89.0072 204.417 99.5901 191.393 99.5901C189.807 99.5901 188.265 99.4201 186.723 99.1226C183.766 104.35 178.111 107.878 171.641 107.878C168.942 107.878 166.371 107.24 164.101 106.135C161.102 113.148 154.118 118.036 145.978 118.036C137.494 118.036 130.254 112.723 127.469 105.243C126.269 105.498 124.984 105.625 123.698 105.625C113.63 105.668 105.447 97.465 105.447 87.3496C105.447 80.5493 109.131 74.6415 114.573 71.4539C113.459 68.9037 112.816 66.0561 112.816 63.081C112.859 51.4354 122.37 42 134.11 42C141.008 42 147.177 45.2727 151.033 50.2879Z" fill="#0D98D3"/>
<path d="M121.3 81.4415C121.215 81.6115 121.343 81.654 121.343 81.6965C121.558 81.824 121.772 81.9515 121.986 82.079C123.1 82.6741 124.171 82.8441 125.242 82.8441C127.47 82.8441 128.884 81.654 128.884 79.7414V79.6989C128.884 77.9138 127.299 77.2763 125.842 76.8088L125.671 76.7663C124.557 76.4263 123.614 76.0863 123.614 75.3637V75.3212C123.614 74.6837 124.171 74.2587 125.028 74.2587C126.013 74.2587 127.127 74.5987 127.898 74.9812C127.898 74.9812 128.113 75.1087 128.198 74.8962C128.241 74.7687 128.627 73.7911 128.67 73.6636C128.713 73.5361 128.627 73.4511 128.541 73.4086C127.684 72.8986 126.527 72.5586 125.328 72.5586H125.114C123.057 72.5586 121.6 73.7911 121.6 75.5762V75.6187C121.6 77.4888 123.186 78.0838 124.685 78.5089L124.942 78.5939C126.013 78.9339 126.956 79.1889 126.956 79.9539V79.9964C126.956 80.6765 126.356 81.1865 125.371 81.1865C124.985 81.1865 123.785 81.1865 122.457 80.379C122.286 80.2939 122.2 80.2089 122.072 80.1664C122.029 80.1239 121.857 80.0389 121.772 80.2514L121.3 81.4415Z" fill="white"/>
<path d="M154.205 81.4415C154.119 81.6115 154.248 81.654 154.248 81.6965C154.462 81.824 154.676 81.9515 154.89 82.079C156.004 82.6741 157.075 82.8441 158.147 82.8441C160.374 82.8441 161.788 81.654 161.788 79.7414V79.6989C161.788 77.9138 160.203 77.2763 158.746 76.8088L158.575 76.7663C157.461 76.4263 156.518 76.0863 156.518 75.3637V75.3212C156.518 74.6837 157.075 74.2587 157.932 74.2587C158.918 74.2587 160.032 74.5987 160.803 74.9812C160.803 74.9812 161.017 75.1087 161.103 74.8962C161.146 74.7687 161.531 73.7911 161.574 73.6636C161.617 73.5361 161.531 73.4511 161.446 73.4086C160.589 72.8986 159.432 72.5586 158.232 72.5586H158.018C155.961 72.5586 154.505 73.7911 154.505 75.5762V75.6187C154.505 77.4888 156.09 78.0838 157.59 78.5089L157.847 78.5939C158.918 78.9339 159.86 79.1889 159.86 79.9539V79.9964C159.86 80.6765 159.26 81.1865 158.275 81.1865C157.889 81.1865 156.69 81.1865 155.362 80.379C155.19 80.2939 155.105 80.2089 154.976 80.1664C154.933 80.1239 154.762 80.0814 154.676 80.2514L154.205 81.4415Z" fill="white"/>
<path d="M176.698 77.7018C176.698 78.7643 176.484 79.6144 176.098 80.2519C175.712 80.8469 175.113 81.1445 174.256 81.1445C173.442 81.1445 172.842 80.8469 172.456 80.2519C172.071 79.6569 171.856 78.8068 171.856 77.7018C171.856 76.6392 172.071 75.7892 172.456 75.1942C172.842 74.5992 173.442 74.3016 174.256 74.3016C175.07 74.3016 175.669 74.5992 176.098 75.1942C176.484 75.7892 176.698 76.6392 176.698 77.7018ZM178.54 75.7042C178.369 75.0667 178.069 74.5567 177.683 74.0891C177.298 73.6216 176.826 73.2816 176.226 72.9841C175.669 72.7291 174.984 72.6016 174.213 72.6016C173.442 72.6016 172.756 72.7291 172.199 72.9841C171.642 73.2391 171.128 73.6216 170.742 74.0891C170.357 74.5567 170.057 75.1092 169.885 75.7042C169.714 76.2992 169.628 76.9793 169.628 77.7018C169.628 78.4243 169.714 79.1044 169.885 79.6994C170.057 80.2944 170.357 80.8469 170.742 81.3145C171.128 81.782 171.599 82.122 172.199 82.377C172.756 82.632 173.442 82.7595 174.213 82.7595C174.984 82.7595 175.669 82.632 176.226 82.377C176.783 82.122 177.298 81.7395 177.683 81.3145C178.069 80.8469 178.369 80.3369 178.54 79.6994C178.711 79.1044 178.797 78.4243 178.797 77.7018C178.84 77.0218 178.754 76.3417 178.54 75.7042Z" fill="white"/>
<path d="M193.964 80.8474C193.921 80.6774 193.707 80.7199 193.707 80.7199C193.45 80.8049 193.15 80.9324 192.85 80.9749C192.55 81.0174 192.208 81.0599 191.822 81.0599C190.922 81.0599 190.194 80.8049 189.68 80.2524C189.166 79.7424 188.866 78.8498 188.866 77.7023C188.866 76.6397 189.123 75.8747 189.594 75.2372C190.065 74.6421 190.751 74.3446 191.693 74.3446C192.465 74.3446 193.064 74.4296 193.664 74.6421C193.664 74.6421 193.793 74.6846 193.879 74.5146C194.05 74.0471 194.178 73.7496 194.35 73.2396C194.393 73.1121 194.264 73.027 194.221 73.027C193.964 72.942 193.407 72.772 192.979 72.7295C192.593 72.687 192.079 72.6445 191.565 72.6445C190.794 72.6445 190.065 72.772 189.466 73.027C188.866 73.2821 188.352 73.6646 187.966 74.1321C187.58 74.5996 187.238 75.1521 187.066 75.7472C186.852 76.3422 186.766 77.0222 186.766 77.7448C186.766 79.2748 187.195 80.5499 188.009 81.4424C188.823 82.3775 190.065 82.845 191.693 82.845C192.636 82.845 193.621 82.6325 194.35 82.3775C194.35 82.3775 194.478 82.2925 194.436 82.165L193.964 80.8474Z" fill="white"/>
<path d="M197.264 76.6817C197.35 76.0867 197.521 75.5767 197.778 75.1942C198.164 74.5992 198.764 74.3016 199.578 74.3016C200.392 74.3016 200.949 74.6417 201.377 75.1942C201.634 75.5767 201.763 76.0867 201.806 76.6817H197.264ZM203.562 75.3642C203.391 74.7692 203.005 74.1741 202.748 73.8766C202.32 73.4516 201.934 73.1541 201.549 72.9841C201.034 72.7716 200.392 72.6016 199.749 72.6016C198.935 72.6016 198.25 72.7291 197.65 73.0266C197.05 73.2816 196.579 73.6641 196.193 74.1316C195.807 74.5992 195.508 75.1517 195.336 75.7467C195.165 76.3842 195.036 77.0643 195.036 77.7443C195.036 78.4668 195.122 79.1469 195.336 79.7419C195.55 80.3369 195.85 80.8894 196.236 81.357C196.664 81.8245 197.178 82.1645 197.821 82.4195C198.464 82.6745 199.235 82.802 200.135 82.802C201.977 82.802 202.92 82.377 203.348 82.1645C203.434 82.122 203.477 82.037 203.391 81.867L202.962 80.7194C202.92 80.5494 202.705 80.5919 202.705 80.5919C202.234 80.7619 201.591 81.0594 200.092 81.0594C199.106 81.0594 198.378 80.7619 197.907 80.3369C197.436 79.8694 197.221 79.1894 197.178 78.2543H203.519C203.519 78.2543 203.691 78.2543 203.691 78.0843C203.776 77.9993 203.991 76.7668 203.562 75.3642Z" fill="white"/>
<path d="M146.406 76.6817C146.491 76.0867 146.663 75.5767 146.92 75.1942C147.305 74.5992 147.862 74.3016 148.719 74.3016C149.576 74.3016 150.09 74.6417 150.519 75.1942C150.776 75.5767 150.904 76.0867 150.947 76.6817H146.406ZM152.704 75.3642C152.532 74.7692 152.147 74.1741 151.89 73.8766C151.461 73.4516 151.076 73.1541 150.69 72.9841C150.176 72.7716 149.533 72.6016 148.891 72.6016C148.119 72.6016 147.391 72.7291 146.791 73.0266C146.191 73.2816 145.72 73.6641 145.335 74.1316C144.949 74.5992 144.649 75.1517 144.478 75.7467C144.306 76.3842 144.178 77.0643 144.178 77.7443C144.178 78.4668 144.263 79.1469 144.478 79.7419C144.692 80.3369 144.992 80.8894 145.377 81.357C145.806 81.8245 146.32 82.1645 146.963 82.4195C147.605 82.6745 148.376 82.802 149.276 82.802C151.119 82.802 152.061 82.377 152.49 82.1645C152.575 82.122 152.618 82.037 152.532 81.867L152.104 80.7194C152.061 80.5494 151.847 80.5919 151.847 80.5919C151.376 80.7619 150.733 81.0594 149.233 81.0594C148.248 81.0594 147.52 80.7619 147.048 80.3369C146.577 79.8694 146.363 79.1894 146.32 78.2543H152.661C152.661 78.2543 152.832 78.2543 152.832 78.0843C152.918 77.9993 153.089 76.7668 152.704 75.3642Z" fill="white"/>
<path d="M132.652 80.8035C132.395 80.591 132.353 80.5485 132.267 80.421C132.138 80.2085 132.095 79.9535 132.095 79.6134C132.095 79.0609 132.267 78.6784 132.652 78.3809C132.652 78.3809 133.209 77.9134 134.495 77.9134C135.394 77.9134 136.209 78.0409 136.209 78.0409V80.8885C136.209 80.8885 135.394 81.0585 134.495 81.101C133.209 81.271 132.652 80.8035 132.652 80.8035ZM135.18 76.3833C134.923 76.3833 134.58 76.3408 134.195 76.3408C133.638 76.3408 133.124 76.4258 132.61 76.5533C132.095 76.6808 131.667 76.8933 131.281 77.1483C130.896 77.4033 130.596 77.7859 130.382 78.1684C130.167 78.5934 130.039 79.0609 130.039 79.6134C130.039 80.166 130.125 80.676 130.339 81.0585C130.553 81.441 130.81 81.781 131.153 82.0361C131.496 82.2911 131.924 82.4611 132.438 82.5886C132.952 82.7161 133.509 82.7586 134.109 82.7586C134.752 82.7586 135.394 82.7161 136.037 82.5886C136.68 82.5036 137.408 82.3336 137.622 82.2911C137.837 82.2486 138.051 82.1636 138.051 82.1636C138.222 82.1211 138.179 81.9511 138.179 81.9511V76.1708C138.179 74.8957 137.837 73.9607 137.151 73.4082C136.466 72.8131 135.523 72.5156 134.238 72.5156C133.766 72.5156 132.995 72.6006 132.524 72.6856C132.524 72.6856 131.153 72.9406 130.553 73.4082C130.553 73.4082 130.425 73.4932 130.51 73.6632L130.939 74.8532C130.982 75.0232 131.153 74.9382 131.153 74.9382C131.153 74.9382 131.196 74.9382 131.239 74.8957C132.481 74.2157 134.023 74.2582 134.023 74.2582C134.709 74.2582 135.223 74.3857 135.609 74.6832C135.951 74.9382 136.123 75.3633 136.123 76.1708V76.4258C135.694 76.4258 135.18 76.3833 135.18 76.3833Z" fill="white"/>
<path d="M186.423 73.1095C186.465 72.982 186.38 72.897 186.337 72.897C186.208 72.8545 185.694 72.727 185.266 72.727C184.452 72.6845 184.023 72.812 183.638 72.982C183.252 73.152 182.824 73.4495 182.567 73.747V73.0245C182.567 72.897 182.481 72.812 182.395 72.812H180.767C180.681 72.812 180.596 72.897 180.596 73.0245V82.4174C180.596 82.5024 180.681 82.6299 180.81 82.6299H182.481C182.567 82.6299 182.652 82.5449 182.652 82.4174V77.6997C182.652 77.0622 182.738 76.4247 182.866 76.0421C182.995 75.6596 183.209 75.3196 183.423 75.1071C183.638 74.8946 183.938 74.7246 184.195 74.6396C184.495 74.5546 184.794 74.5121 185.052 74.5121C185.394 74.5121 185.737 74.5971 185.737 74.5971C185.866 74.5971 185.908 74.5546 185.951 74.4271C186.037 74.1721 186.337 73.322 186.423 73.1095Z" fill="white"/>
<path d="M170.742 68.775C170.527 68.7325 170.356 68.69 170.099 68.6475C169.842 68.605 169.585 68.5625 169.242 68.5625C168.085 68.5625 167.185 68.9025 166.543 69.54C165.9 70.1776 165.472 71.1126 165.257 72.3877L165.172 72.8127H163.715C163.715 72.8127 163.544 72.8127 163.501 72.9827L163.244 74.3003C163.244 74.4278 163.287 74.5128 163.458 74.5128H164.872L163.501 82.3756C163.372 83.0132 163.244 83.5232 163.115 83.9482C162.987 84.3307 162.858 84.6282 162.687 84.8407C162.515 85.0533 162.387 85.1808 162.087 85.2658C161.873 85.3508 161.616 85.3933 161.359 85.3933C161.187 85.3933 161.016 85.3508 160.845 85.3508C160.716 85.3083 160.63 85.3083 160.502 85.2233C160.502 85.2233 160.33 85.1808 160.288 85.3083C160.245 85.4358 159.859 86.4558 159.816 86.5833C159.773 86.7108 159.816 86.7958 159.902 86.8383C160.073 86.9233 160.245 86.9658 160.502 87.0083C160.845 87.0933 161.144 87.0933 161.444 87.0933C162.044 87.0933 162.558 87.0083 162.987 86.8383C163.415 86.6683 163.801 86.4133 164.144 86.0308C164.529 85.6058 164.743 85.1808 164.958 84.6282C165.172 84.0757 165.386 83.3532 165.515 82.5031L166.928 74.4703H169.028C169.028 74.4703 169.199 74.4703 169.242 74.3003L169.499 72.9827C169.499 72.8552 169.456 72.7702 169.285 72.7702H167.271C167.271 72.7277 167.357 72.0052 167.614 71.3676C167.7 71.0701 167.914 70.8576 168.042 70.6876C168.214 70.5176 168.385 70.4326 168.556 70.3476C168.771 70.2626 168.985 70.2626 169.242 70.2626C169.413 70.2626 169.628 70.3051 169.756 70.3051C169.97 70.3476 170.013 70.3476 170.099 70.3901C170.313 70.4326 170.356 70.3901 170.356 70.3051L170.827 68.9875C170.913 68.86 170.784 68.775 170.742 68.775Z" fill="white"/>
<path d="M142.38 82.4205C142.38 82.5055 142.294 82.5905 142.208 82.5905H140.537C140.452 82.5905 140.366 82.5055 140.366 82.4205V68.9474C140.366 68.8623 140.452 68.7773 140.537 68.7773H142.208C142.294 68.7773 142.38 68.8623 142.38 68.9474V82.4205Z" fill="white"/>
</svg>
