<svg width="320" height="160" viewBox="0 0 320 160" fill="none" xmlns="http://www.w3.org/2000/svg">
<path d="M162.347 72.0449C162.221 77.7439 167.413 80.9099 171.339 82.8095C175.265 84.7092 176.658 85.9756 176.658 87.7486C176.658 90.4081 173.492 91.5479 170.579 91.6745C165.387 91.8011 162.474 90.2814 160.068 89.1417L158.168 97.7533C160.574 98.8931 165.007 99.7796 169.566 99.9062C180.331 99.9062 187.296 94.5873 187.423 86.3555C187.423 75.9709 172.985 75.3377 173.112 70.6519C173.112 69.2588 174.505 67.7391 177.418 67.3592C178.938 67.1059 182.863 66.9793 187.549 69.1322L189.322 60.7738C186.916 59.8873 183.75 59.0008 179.697 59.0008C169.566 59.0008 162.474 64.3198 162.347 72.0449ZM206.546 59.634C204.646 59.634 202.873 60.7738 202.24 62.5468L186.916 99.1464H197.681L199.834 93.1942H213.004L214.271 99.1464H223.769L215.537 59.634H206.546ZM208.065 70.3986L211.105 85.2157H202.62L208.065 70.3986ZM149.43 59.634L140.945 99.1464H151.203L159.688 59.634H149.43ZM134.233 59.634L123.595 86.4822L119.289 63.5599C118.782 61.0271 116.756 59.5074 114.603 59.5074H97.2533L97 60.6471C100.546 61.407 104.599 62.6734 107.131 64.0665C108.651 64.8263 109.031 65.5862 109.538 67.4858L117.643 99.0197H128.407L144.997 59.5074L134.233 59.634Z" fill="#243A86"/>
</svg>
