<svg width="320" height="160" viewBox="0 0 320 160" fill="none" xmlns="http://www.w3.org/2000/svg">
<path d="M126.676 84.7548V60.5H131.801V99.6046H126.741V96.3781V95.1374L125.881 96.0314C124.576 97.3868 123.022 98.4387 121.239 99.1866C119.46 99.9201 117.527 100.289 115.461 100.289C113.339 100.289 111.378 99.9315 109.559 99.209C107.735 98.4844 106.156 97.4687 104.828 96.1388C103.495 94.8043 102.424 93.2123 101.662 91.3471L101.661 91.3445C100.89 89.4865 100.5 87.398 100.5 85.0844V60.5H105.625V84.7422C105.625 86.403 105.878 87.9224 106.406 89.306C106.93 90.6798 107.66 91.8665 108.613 92.8576C109.554 93.849 110.672 94.5981 111.96 95.1179C113.248 95.6377 114.64 95.9021 116.144 95.9021C117.599 95.9021 118.981 95.637 120.272 95.0892C121.556 94.5446 122.682 93.7851 123.646 92.798C124.611 91.8091 125.356 90.6356 125.882 89.2837C126.41 87.9258 126.676 86.4057 126.676 84.7548Z" fill="#18181B" stroke="#18181B"/>
<path d="M164.107 75.071C165.454 76.4066 166.528 77.9761 167.328 79.7839C168.113 81.596 168.511 83.5051 168.511 85.5407C168.511 87.5774 168.112 89.4862 167.329 91.2718C166.541 93.0651 165.469 94.6218 164.109 95.9581C162.765 97.2793 161.156 98.3357 159.313 99.1245C157.469 99.896 155.498 100.289 153.383 100.289C151.345 100.289 149.467 99.9086 147.728 99.1518C145.976 98.3889 144.443 97.3706 143.136 96.0739L142.284 95.2282V96.4288V99.5919H137.455V60.5H142.335V74.6019V75.7945L143.186 74.9585C144.496 73.6709 146.018 72.6402 147.755 71.8784C149.48 71.1221 151.346 70.7416 153.383 70.7416C155.498 70.7416 157.47 71.135 159.315 71.907C161.167 72.6821 162.763 73.7372 164.107 75.071ZM148.75 95.3417L148.947 94.8824L148.75 95.3417C150.054 95.9028 151.463 96.1809 152.97 96.1809C154.428 96.1809 155.824 95.9021 157.127 95.3417C158.419 94.786 159.556 94.0287 160.52 93.055C161.482 92.0957 162.237 90.9664 162.802 89.6987C163.374 88.4137 163.657 87.0257 163.657 85.5407C163.657 84.055 163.373 82.6685 162.803 81.3608C162.237 80.0627 161.468 78.9338 160.521 77.9769L160.519 77.9744C159.557 77.0159 158.431 76.2556 157.117 75.723C155.808 75.1923 154.429 74.9132 152.97 74.9132C151.516 74.9132 150.122 75.1781 148.818 75.7253C147.527 76.2675 146.376 77.0112 145.399 77.9719C144.425 78.9293 143.64 80.0599 143.073 81.3608C142.503 82.6688 142.219 84.068 142.219 85.5407C142.219 87.0224 142.489 88.4092 143.047 89.6946C143.6 90.9661 144.357 92.0981 145.334 93.0588C146.308 94.0158 147.456 94.7854 148.75 95.3417Z" fill="#18181B" stroke="#18181B"/>
<path d="M200.788 85.4897V86.8783H177.097H176.509L176.604 87.4593C176.807 88.695 177.213 89.8547 177.824 90.9222C178.434 91.9876 179.206 92.9055 180.11 93.6884L180.113 93.6908C181.034 94.4769 182.077 95.0888 183.225 95.5267L183.226 95.5274C184.393 95.9672 185.626 96.1933 186.923 96.1933C190.453 96.1933 193.358 94.8155 195.581 92.0842L199.029 94.5898C197.662 96.2877 195.995 97.6278 194.034 98.6318C191.932 99.6955 189.56 100.238 186.923 100.238C184.764 100.238 182.764 99.8681 180.905 99.1324C179.042 98.3952 177.422 97.3529 176.052 96.0307C174.682 94.7083 173.597 93.1403 172.81 91.3475C172.028 89.5651 171.628 87.6197 171.627 85.5055C171.653 83.4881 172.028 81.614 172.774 79.8404C173.524 78.0598 174.559 76.5032 175.881 75.1544C177.202 73.8069 178.747 72.7414 180.556 71.9687C182.361 71.1979 184.305 70.8047 186.42 70.8047C188.5 70.8047 190.407 71.1738 192.173 71.9072C193.943 72.6426 195.459 73.6694 196.725 74.975C197.992 76.2816 198.99 77.8352 199.715 79.6293C200.424 81.4164 200.788 83.3683 200.788 85.4897ZM176.727 82.6858L176.579 83.3025H177.213H195.343H195.967L195.832 82.6937C195.306 80.3366 194.167 78.436 192.424 77.0039C190.68 75.5708 188.633 74.8624 186.306 74.8621C183.974 74.8491 181.927 75.572 180.184 77.0039C178.443 78.4349 177.292 80.3329 176.727 82.6858Z" fill="#18181B" stroke="#18181B"/>
<path d="M209.929 83.4866V99.6039H205.049V71.3874H209.877V74.4998V76.2467L210.802 74.7644C211.494 73.6541 212.401 72.7745 213.516 72.1317C214.613 71.4987 215.928 71.1719 217.495 71.1719H219.033V75.5589H217.086C215.007 75.5326 213.271 76.2565 211.932 77.7092C210.588 79.1538 209.929 81.1116 209.929 83.4866Z" fill="#18181B" stroke="#18181B"/>
</svg>
