
<svg width="145px" height="24px" viewBox="0 0 145 24" version="1.1" xmlns="http://www.w3.org/2000/svg" xmlns:xlink="http://www.w3.org/1999/xlink">
    <g id="Page-1" stroke="none" stroke-width="1" fill="none" fill-rule="evenodd">
        <g id="logo-careerist-black" transform="translate(0.000000, 0.000000)" fill="#18181B" fill-rule="nonzero">
            <path d="M9.1208,18.8424 C6.84057,18.8424 5.17665,17.0895 5.17665,14.4603 C5.11502,11.831 6.84057,10.0782 9.0591,10.0782 C11.7707,10.0782 12.4486,12.5196 12.4486,12.5196 L17.7485,12.5196 C17.7485,12.5196 16.7008,5.1953 8.9975,5.1953 C3.75923,5.2579 0,9.0766 0,14.5229 C0,19.9066 3.75923,23.7253 9.0591,23.7253 C16.8241,23.7253 17.8718,16.4009 17.8718,16.4009 L12.5719,16.4009 C12.5719,16.4009 11.8323,18.8424 9.1208,18.8424 Z" id="Path"></path>
            <path d="M28.5328,5.2578 C23.7259,5.2578 21.1376,7.8871 20.8295,11.0171 L25.8212,11.0171 C25.8212,11.0171 26.3142,9.4521 28.5328,9.4521 C30.2583,9.4521 31.2444,10.5163 31.2444,12.0813 L31.2444,12.4569 L27.3003,12.4569 C22.4934,12.4569 20.0899,14.8984 20.0899,18.2162 C20.0899,21.3463 22.4934,23.7877 26.6224,23.7877 C29.8886,23.7877 31.4293,21.8471 31.4293,21.8471 L31.6141,21.8471 L31.9839,23.4121 L36.421,23.4121 L36.421,12.0187 C36.421,8.0749 33.6478,5.2578 28.5328,5.2578 Z M27.6084,19.6561 C26.0677,19.6561 25.205,18.7796 25.205,17.7154 C25.205,16.6512 26.0677,15.7748 27.9165,15.7748 L31.1827,15.7748 L31.1827,16.1504 L31.2444,16.1504 C31.2444,18.2788 29.8886,19.6561 27.6084,19.6561 Z" id="Shape"></path>
            <path d="M60.9475,5.2578 C55.6476,5.2578 51.8884,9.0765 51.8884,14.4602 C51.8884,19.8439 55.6476,23.6625 60.9475,23.6625 C67.48,23.6625 69.3288,17.9032 69.3288,17.9032 L64.1521,17.9032 C64.1521,17.9032 63.1045,19.4683 60.8859,19.4683 C58.6057,19.4683 57.1267,17.9032 56.9418,15.7748 L69.6369,15.7748 C69.6369,15.7748 69.8218,15.274 69.8218,14.022 C69.8834,9.0765 66.1242,5.2578 60.9475,5.2578 Z M57.0034,12.7699 C57.4964,10.4537 58.9139,9.3269 60.9475,9.3269 C62.9812,9.3269 64.337,10.5789 64.8917,12.7699 L57.0034,12.7699 Z" id="Shape"></path>
            <path d="M81.408,5.2578 C76.108,5.2578 72.3488,9.0765 72.3488,14.4602 C72.3488,19.8439 76.108,23.6625 81.408,23.6625 C87.9404,23.6625 89.7892,17.9032 89.7892,17.9032 L84.6125,17.9032 C84.6125,17.9032 83.5649,19.4683 81.3463,19.4683 C79.0661,19.4683 77.5871,17.9032 77.4022,15.7748 L90.0973,15.7748 C90.0973,15.7748 90.2822,15.274 90.2822,14.022 C90.2822,9.0765 86.523,5.2578 81.408,5.2578 Z M77.4638,12.7699 C77.9568,10.4537 79.3743,9.3269 81.408,9.3269 C83.4416,9.3269 84.7974,10.5789 85.3521,12.7699 L77.4638,12.7699 Z" id="Shape"></path>
            <polygon id="Path" points="112.099 5.5703 106.553 5.5703 106.553 23.349 112.099 23.349"></polygon>
            <path d="M125.411,12.5821 L122.823,12.2065 C121.282,12.0187 120.789,11.5179 120.789,10.8293 C120.789,9.9529 121.652,9.2643 123.377,9.2643 C125.781,9.2643 126.089,10.8293 126.089,10.8293 L131.081,10.8293 C131.081,10.8293 130.711,5.2578 123.377,5.2578 C118.385,5.2578 115.797,7.8871 115.797,10.8293 C115.797,13.8342 117.523,15.4618 121.652,16.0878 L124.24,16.4634 C125.781,16.6512 126.274,17.152 126.274,18.2162 C126.274,19.0927 125.411,19.9691 123.562,19.9691 C120.604,19.9691 120.604,17.9032 120.604,17.9032 L115.612,17.9032 C115.612,17.9032 115.612,23.8503 123.562,23.8503 C128.739,23.8503 131.265,21.2211 131.265,18.2788 C131.265,14.961 129.417,13.0829 125.411,12.5821 Z" id="Path"></path>
            <polygon id="Path" points="39.6868 23.349 44.8635 23.349 44.8635 13.5833 44.8635 10.4532 50.4715 10.4532 50.4715 5.5703 39.6868 5.5703"></polygon>
            <polygon id="Path" points="92.3162 23.349 97.4929 23.349 97.4929 13.5833 97.4929 10.4532 103.163 10.4532 103.163 5.5703 92.3162 5.5703"></polygon>
            <path d="M141.802,18.5299 C140.94,18.5299 140.57,18.1543 140.57,17.2779 L140.57,10.4544 L144.452,10.4544 L144.452,5.5715 L144.452,-1.77635684e-15 L138.783,-1.77635684e-15 L138.783,5.5715 L132.62,5.5715 L132.62,10.4544 L135.332,10.4544 L135.332,18.5299 C135.332,21.66 137.057,23.4128 140.323,23.4128 L144.452,23.4128 L144.452,18.5299 L141.802,18.5299 Z" id="Path"></path>
        </g>
    </g>
</svg>